<?xml version="1.0" encoding="UTF-8"?>
<!DOCTYPE svg PUBLIC "-//W3C//DTD SVG 1.1//EN" "http://www.w3.org/Graphics/SVG/1.1/DTD/svg11.dtd">
<!-- Creator: CorelDRAW X7 -->
<svg xmlns="http://www.w3.org/2000/svg" xml:space="preserve" width="100px" height="100px" version="1.1" style="shape-rendering:geometricPrecision; text-rendering:geometricPrecision; image-rendering:optimizeQuality; fill-rule:evenodd; clip-rule:evenodd"
viewBox="0 0 100000 100000"
 xmlns:xlink="http://www.w3.org/1999/xlink">
 <defs>
  <style type="text/css">
   <![CDATA[
    .fil0 {fill:none}
    .fil1 {fill:white}
   ]]>
  </style>
 </defs>
 <g id="Capa_x0020_1">
  <metadata id="CorelCorpID_0Corel-Layer"/>
  <rect class="fil0" width="100001" height="100001"/>
  <path class="fil1" d="M50000 4995c16569,0 30000,13432 30000,30000 0,5471 -1465,10600 -4024,15016l1 0 -25977 44994 -26016 -45061 -16 -28 -15 -26 1 0c-2515,-4388 -3954,-9474 -3954,-14895 0,-16568 13431,-30000 30000,-30000zm0 5001c13807,0 25000,11192 25000,24999 0,13807 -11193,25000 -25000,25000 -13807,0 -25000,-11193 -25000,-25000 0,-13807 11193,-24999 25000,-24999z"/>
 </g>
</svg>
