<?xml version="1.0" encoding="utf-8"?>
<!-- Generator: Adobe Illustrator 16.0.0, SVG Export Plug-In . SVG Version: 6.00 Build 0)  -->
<!DOCTYPE svg PUBLIC "-//W3C//DTD SVG 1.1//EN" "http://www.w3.org/Graphics/SVG/1.1/DTD/svg11.dtd">
<svg version="1.1" id="Capa_1" xmlns="http://www.w3.org/2000/svg" xmlns:xlink="http://www.w3.org/1999/xlink" x="0px" y="0px"
	 width="315.935px" height="181px" viewBox="0 0 315.935 181" enable-background="new 0 0 315.935 181" xml:space="preserve">
<g>
	<rect x="314.939" y="64" fill="#EEEEEE" width="0.995" height="117"/>
</g>
<g>
	<rect x="314.939" y="62" fill="#EEEEEE" width="0.995" height="1"/>
</g>
<g>
	<rect x="314.939" y="60" fill="#EEEEEE" width="0.995" height="1"/>
</g>
<g>
	<rect x="314.939" y="58" fill="#EEEEEE" width="0.995" height="1"/>
</g>
<g>
	<rect x="314.939" y="56" fill="#EEEEEE" width="0.995" height="1"/>
</g>
<g>
	<rect x="314.939" y="54" fill="#EEEEEE" width="0.995" height="1"/>
</g>
<g>
	<rect x="314.939" y="52" fill="#EEEEEE" width="0.995" height="1"/>
</g>
<g>
	<rect x="314.939" y="50" fill="#EEEEEE" width="0.995" height="1"/>
</g>
<g>
	<rect x="314.939" y="48" fill="#EEEEEE" width="0.995" height="1"/>
</g>
<g>
	<rect x="314.939" y="46" fill="#EEEEEE" width="0.995" height="1"/>
</g>
<g>
	<rect x="314.939" y="44" fill="#EEEEEE" width="0.995" height="1"/>
</g>
<g>
	<rect x="314.939" y="42" fill="#EEEEEE" width="0.995" height="1"/>
</g>
<g>
	<rect x="314.939" y="40" fill="#EEEEEE" width="0.995" height="1"/>
</g>
<g>
	<rect x="314.939" y="38" fill="#EEEEEE" width="0.995" height="1"/>
</g>
<g>
	<rect x="314.939" y="36" fill="#EEEEEE" width="0.995" height="1"/>
</g>
<g>
	<rect x="314.939" y="34" fill="#EEEEEE" width="0.995" height="1"/>
</g>
<g>
	<rect x="314.939" y="32" fill="#EEEEEE" width="0.995" height="1"/>
</g>
<g>
	<rect x="314.939" y="30" fill="#EEEEEE" width="0.995" height="1"/>
</g>
<g>
	<rect x="314.939" y="28" fill="#EEEEEE" width="0.995" height="1"/>
</g>
<g>
	<rect x="314.939" y="26" fill="#EEEEEE" width="0.995" height="1"/>
</g>
<g>
	<rect x="314.939" y="24" fill="#EEEEEE" width="0.995" height="1"/>
</g>
<g>
	<rect x="314.939" y="22" fill="#EEEEEE" width="0.995" height="1"/>
</g>
<g>
	<rect x="314.939" y="20" fill="#EEEEEE" width="0.995" height="1"/>
</g>
<g>
	<rect x="314.939" y="18" fill="#EEEEEE" width="0.995" height="1"/>
</g>
<g>
	<rect x="314.939" y="16" fill="#EEEEEE" width="0.995" height="1"/>
</g>
<g>
	<rect x="314.939" y="14" fill="#EEEEEE" width="0.995" height="1"/>
</g>
<g>
	<rect x="314.939" y="12" fill="#EEEEEE" width="0.995" height="1"/>
</g>
<g>
	<rect x="314.939" y="10" fill="#EEEEEE" width="0.995" height="1"/>
</g>
<g>
	<rect x="314.939" y="8" fill="#EEEEEE" width="0.995" height="1"/>
</g>
<g>
	<rect x="314.939" y="6" fill="#EEEEEE" width="0.995" height="1"/>
</g>
<g>
	<rect x="314.939" y="4" fill="#EEEEEE" width="0.995" height="1"/>
</g>
<g>
	<rect x="314.939" y="2" fill="#EEEEEE" width="0.995" height="1"/>
</g>
<g>
	<rect x="314.939" fill="#EEEEEE" width="0.995" height="1"/>
</g>
<g>
	<rect x="268.957" y="90" fill="#EEEEEE" width="0.995" height="91"/>
</g>
<g>
	<rect x="268.957" y="88" fill="#EEEEEE" width="0.995" height="1"/>
</g>
<g>
	<rect x="268.957" y="86" fill="#EEEEEE" width="0.995" height="1"/>
</g>
<g>
	<rect x="268.957" y="84" fill="#EEEEEE" width="0.995" height="1"/>
</g>
<g>
	<rect x="268.957" y="82" fill="#EEEEEE" width="0.995" height="1"/>
</g>
<g>
	<rect x="268.957" y="80" fill="#EEEEEE" width="0.995" height="1"/>
</g>
<g>
	<rect x="268.957" y="78" fill="#EEEEEE" width="0.995" height="1"/>
</g>
<g>
	<rect x="268.957" y="76" fill="#EEEEEE" width="0.995" height="1"/>
</g>
<g>
	<rect x="268.957" y="74" fill="#EEEEEE" width="0.995" height="1"/>
</g>
<g>
	<rect x="268.957" y="72" fill="#EEEEEE" width="0.995" height="1"/>
</g>
<g>
	<rect x="268.957" y="70" fill="#EEEEEE" width="0.995" height="1"/>
</g>
<g>
	<rect x="268.957" y="68" fill="#EEEEEE" width="0.995" height="1"/>
</g>
<g>
	<rect x="268.957" y="66" fill="#EEEEEE" width="0.995" height="1"/>
</g>
<g>
	<rect x="268.957" y="64" fill="#EEEEEE" width="0.995" height="1"/>
</g>
<g>
	<rect x="268.957" y="62" fill="#EEEEEE" width="0.995" height="1"/>
</g>
<g>
	<rect x="268.957" y="60" fill="#EEEEEE" width="0.995" height="1"/>
</g>
<g>
	<rect x="268.957" y="58" fill="#EEEEEE" width="0.995" height="1"/>
</g>
<g>
	<rect x="268.957" y="56" fill="#EEEEEE" width="0.995" height="1"/>
</g>
<g>
	<rect x="268.957" y="54" fill="#EEEEEE" width="0.995" height="1"/>
</g>
<g>
	<rect x="268.957" y="52" fill="#EEEEEE" width="0.995" height="1"/>
</g>
<g>
	<rect x="268.957" y="50" fill="#EEEEEE" width="0.995" height="1"/>
</g>
<g>
	<rect x="268.957" y="48" fill="#EEEEEE" width="0.995" height="1"/>
</g>
<g>
	<rect x="268.957" y="46" fill="#EEEEEE" width="0.995" height="1"/>
</g>
<g>
	<rect x="268.957" y="44" fill="#EEEEEE" width="0.995" height="1"/>
</g>
<g>
	<rect x="268.957" y="42" fill="#EEEEEE" width="0.995" height="1"/>
</g>
<g>
	<rect x="268.957" y="40" fill="#EEEEEE" width="0.995" height="1"/>
</g>
<g>
	<rect x="268.957" y="38" fill="#EEEEEE" width="0.995" height="1"/>
</g>
<g>
	<rect x="268.957" y="36" fill="#EEEEEE" width="0.995" height="1"/>
</g>
<g>
	<rect x="268.957" y="34" fill="#EEEEEE" width="0.995" height="1"/>
</g>
<g>
	<rect x="268.957" y="32" fill="#EEEEEE" width="0.995" height="1"/>
</g>
<g>
	<rect x="268.957" y="30" fill="#EEEEEE" width="0.995" height="1"/>
</g>
<g>
	<rect x="268.957" y="28" fill="#EEEEEE" width="0.995" height="1"/>
</g>
<g>
	<rect x="225" y="74" fill="#EEEEEE" width="0.995" height="107"/>
</g>
<g>
	<rect x="225" y="72" fill="#EEEEEE" width="0.995" height="1"/>
</g>
<g>
	<rect x="225" y="70" fill="#EEEEEE" width="0.995" height="1"/>
</g>
<g>
	<rect x="225" y="68" fill="#EEEEEE" width="0.995" height="1"/>
</g>
<g>
	<rect x="225" y="66" fill="#EEEEEE" width="0.995" height="1"/>
</g>
<g>
	<rect x="225" y="64" fill="#EEEEEE" width="0.995" height="1"/>
</g>
<g>
	<rect x="225" y="62" fill="#EEEEEE" width="0.995" height="1"/>
</g>
<g>
	<rect x="225" y="60" fill="#EEEEEE" width="0.995" height="1"/>
</g>
<g>
	<rect x="225" y="58" fill="#EEEEEE" width="0.995" height="1"/>
</g>
<g>
	<rect x="225" y="56" fill="#EEEEEE" width="0.995" height="1"/>
</g>
<g>
	<rect x="225" y="54" fill="#EEEEEE" width="0.995" height="1"/>
</g>
<g>
	<rect x="225" y="52" fill="#EEEEEE" width="0.995" height="1"/>
</g>
<g>
	<rect x="225" y="50" fill="#EEEEEE" width="0.995" height="1"/>
</g>
<g>
	<rect x="225" y="48" fill="#EEEEEE" width="0.995" height="1"/>
</g>
<g>
	<rect x="225" y="46" fill="#EEEEEE" width="0.995" height="1"/>
</g>
<g>
	<rect x="225" y="44" fill="#EEEEEE" width="0.995" height="1"/>
</g>
<g>
	<rect x="225" y="42" fill="#EEEEEE" width="0.995" height="1"/>
</g>
<g>
	<rect x="225" y="40" fill="#EEEEEE" width="0.995" height="1"/>
</g>
<g>
	<rect x="225" y="38" fill="#EEEEEE" width="0.995" height="1"/>
</g>
<g>
	<rect x="225" y="36" fill="#EEEEEE" width="0.995" height="1"/>
</g>
<g>
	<rect x="225" y="34" fill="#EEEEEE" width="0.995" height="1"/>
</g>
<g>
	<rect x="225" y="32" fill="#EEEEEE" width="0.995" height="1"/>
</g>
<g>
	<rect x="225" y="30" fill="#EEEEEE" width="0.995" height="1"/>
</g>
<g>
	<rect x="225" y="28" fill="#EEEEEE" width="0.995" height="1"/>
</g>
<g>
	<rect x="225" y="26" fill="#EEEEEE" width="0.995" height="1"/>
</g>
<g>
	<rect x="225" y="24" fill="#EEEEEE" width="0.995" height="1"/>
</g>
<g>
	<rect x="225" y="22" fill="#EEEEEE" width="0.995" height="1"/>
</g>
<g>
	<rect x="225" y="20" fill="#EEEEEE" width="0.995" height="1"/>
</g>
<g>
	<rect x="225" y="18" fill="#EEEEEE" width="0.995" height="1"/>
</g>
<g>
	<rect x="225" y="16" fill="#EEEEEE" width="0.995" height="1"/>
</g>
<g>
	<rect x="225" y="14" fill="#EEEEEE" width="0.995" height="1"/>
</g>
<g>
	<rect x="179.041" y="86" fill="#EEEEEE" width="0.995" height="95"/>
</g>
<g>
	<rect x="179.041" y="84" fill="#EEEEEE" width="0.995" height="1"/>
</g>
<g>
	<rect x="179.041" y="82" fill="#EEEEEE" width="0.995" height="1"/>
</g>
<g>
	<rect x="179.041" y="80" fill="#EEEEEE" width="0.995" height="1"/>
</g>
<g>
	<rect x="179.041" y="78" fill="#EEEEEE" width="0.995" height="1"/>
</g>
<g>
	<rect x="179.041" y="76" fill="#EEEEEE" width="0.995" height="1"/>
</g>
<g>
	<rect x="179.041" y="74" fill="#EEEEEE" width="0.995" height="1"/>
</g>
<g>
	<rect x="179.041" y="72" fill="#EEEEEE" width="0.995" height="1"/>
</g>
<g>
	<rect x="179.041" y="70" fill="#EEEEEE" width="0.995" height="1"/>
</g>
<g>
	<rect x="179.041" y="68" fill="#EEEEEE" width="0.995" height="1"/>
</g>
<g>
	<rect x="179.041" y="66" fill="#EEEEEE" width="0.995" height="1"/>
</g>
<g>
	<rect x="179.041" y="64" fill="#EEEEEE" width="0.995" height="1"/>
</g>
<g>
	<rect x="179.041" y="62" fill="#EEEEEE" width="0.995" height="1"/>
</g>
<g>
	<rect x="179.041" y="60" fill="#EEEEEE" width="0.995" height="1"/>
</g>
<g>
	<rect x="179.041" y="58" fill="#EEEEEE" width="0.995" height="1"/>
</g>
<g>
	<rect x="179.041" y="56" fill="#EEEEEE" width="0.995" height="1"/>
</g>
<g>
	<rect x="179.041" y="54" fill="#EEEEEE" width="0.995" height="1"/>
</g>
<g>
	<rect x="179.041" y="52" fill="#EEEEEE" width="0.995" height="1"/>
</g>
<g>
	<rect x="179.041" y="50" fill="#EEEEEE" width="0.995" height="1"/>
</g>
<g>
	<rect x="179.041" y="48" fill="#EEEEEE" width="0.995" height="1"/>
</g>
<g>
	<rect x="179.041" y="46" fill="#EEEEEE" width="0.995" height="1"/>
</g>
<g>
	<rect x="179.041" y="44" fill="#EEEEEE" width="0.995" height="1"/>
</g>
<g>
	<rect x="179.041" y="42" fill="#EEEEEE" width="0.995" height="1"/>
</g>
<g>
	<rect x="179.041" y="40" fill="#EEEEEE" width="0.995" height="1"/>
</g>
<g>
	<rect x="179.041" y="38" fill="#EEEEEE" width="0.995" height="1"/>
</g>
<g>
	<rect x="179.041" y="36" fill="#EEEEEE" width="0.995" height="1"/>
</g>
<g>
	<rect x="179.041" y="34" fill="#EEEEEE" width="0.995" height="1"/>
</g>
<g>
	<rect x="179.041" y="32" fill="#EEEEEE" width="0.995" height="1"/>
</g>
<g>
	<rect x="179.041" y="30" fill="#EEEEEE" width="0.995" height="1"/>
</g>
<g>
	<rect x="179.041" y="28" fill="#EEEEEE" width="0.995" height="1"/>
</g>
<g>
	<rect x="179.041" y="26" fill="#EEEEEE" width="0.995" height="1"/>
</g>
<g>
	<rect x="225" y="12" fill="#EEEEEE" width="0.995" height="1"/>
</g>
<g>
	<rect x="179.041" y="24" fill="#EEEEEE" width="0.995" height="1"/>
</g>
<g>
	<rect x="133.098" y="92" fill="#EEEEEE" width="0.995" height="89"/>
</g>
<g>
	<rect x="133.098" y="88" fill="#EEEEEE" width="0.995" height="1"/>
</g>
<g>
	<rect x="133.098" y="90" fill="#EEEEEE" width="0.995" height="1"/>
</g>
<g>
	<rect x="133.098" y="86" fill="#EEEEEE" width="0.995" height="1"/>
</g>
<g>
	<rect x="133.098" y="84" fill="#EEEEEE" width="0.995" height="1"/>
</g>
<g>
	<rect x="133.098" y="82" fill="#EEEEEE" width="0.995" height="1"/>
</g>
<g>
	<rect x="133.098" y="80" fill="#EEEEEE" width="0.995" height="1"/>
</g>
<g>
	<rect x="133.098" y="78" fill="#EEEEEE" width="0.995" height="1"/>
</g>
<g>
	<rect x="133.098" y="76" fill="#EEEEEE" width="0.995" height="1"/>
</g>
<g>
	<rect x="133.098" y="74" fill="#EEEEEE" width="0.995" height="1"/>
</g>
<g>
	<rect x="133.098" y="72" fill="#EEEEEE" width="0.995" height="1"/>
</g>
<g>
	<rect x="133.098" y="70" fill="#EEEEEE" width="0.995" height="1"/>
</g>
<g>
	<rect x="133.098" y="68" fill="#EEEEEE" width="0.995" height="1"/>
</g>
<g>
	<rect x="133.098" y="66" fill="#EEEEEE" width="0.995" height="1"/>
</g>
<g>
	<rect x="133.098" y="64" fill="#EEEEEE" width="0.995" height="1"/>
</g>
<g>
	<rect x="133.098" y="62" fill="#EEEEEE" width="0.995" height="1"/>
</g>
<g>
	<rect x="133.098" y="60" fill="#EEEEEE" width="0.995" height="1"/>
</g>
<g>
	<rect x="133.098" y="58" fill="#EEEEEE" width="0.995" height="1"/>
</g>
<g>
	<rect x="133.098" y="56" fill="#EEEEEE" width="0.995" height="1"/>
</g>
<g>
	<rect x="133.098" y="54" fill="#EEEEEE" width="0.995" height="1"/>
</g>
<g>
	<rect x="133.098" y="52" fill="#EEEEEE" width="0.995" height="1"/>
</g>
<g>
	<rect x="133.098" y="50" fill="#EEEEEE" width="0.995" height="1"/>
</g>
<g>
	<rect x="133.098" y="48" fill="#EEEEEE" width="0.995" height="1"/>
</g>
<g>
	<rect x="133.098" y="46" fill="#EEEEEE" width="0.995" height="1"/>
</g>
<g>
	<rect x="133.098" y="44" fill="#EEEEEE" width="0.995" height="1"/>
</g>
<g>
	<rect x="133.098" y="42" fill="#EEEEEE" width="0.995" height="1"/>
</g>
<g>
	<rect x="133.098" y="40" fill="#EEEEEE" width="0.995" height="1"/>
</g>
<g>
	<rect x="133.098" y="38" fill="#EEEEEE" width="0.995" height="1"/>
</g>
<g>
	<rect x="133.098" y="36" fill="#EEEEEE" width="0.995" height="1"/>
</g>
<g>
	<rect x="133.098" y="34" fill="#EEEEEE" width="0.995" height="1"/>
</g>
<g>
	<rect x="133.098" y="32" fill="#EEEEEE" width="0.995" height="1"/>
</g>
<g>
	<rect x="133.098" y="30" fill="#EEEEEE" width="0.995" height="1"/>
</g>
<g>
	<rect x="133.098" y="28" fill="#EEEEEE" width="0.995" height="1"/>
</g>
<g>
	<rect x="133.098" y="26" fill="#EEEEEE" width="0.995" height="1"/>
</g>
<g>
	<rect x="133.098" y="24" fill="#EEEEEE" width="0.995" height="1"/>
</g>
<g>
	<rect x="133.098" y="22" fill="#EEEEEE" width="0.995" height="1"/>
</g>
<g>
	<rect x="133.098" y="20" fill="#EEEEEE" width="0.995" height="1"/>
</g>
<g>
	<rect x="133.098" y="18" fill="#EEEEEE" width="0.995" height="1"/>
</g>
<g>
	<rect x="133.098" y="16" fill="#EEEEEE" width="0.995" height="1"/>
</g>
<g>
	<rect x="133.098" y="14" fill="#EEEEEE" width="0.995" height="1"/>
</g>
<g>
	<rect x="133.098" y="12" fill="#EEEEEE" width="0.995" height="1"/>
</g>
<g>
	<rect x="133.098" y="10" fill="#EEEEEE" width="0.995" height="1"/>
</g>
<g>
	<rect x="133.098" y="8" fill="#EEEEEE" width="0.995" height="1"/>
</g>
<g>
	<rect x="133.098" y="6" fill="#EEEEEE" width="0.995" height="1"/>
</g>
<g>
	<rect x="87.141" y="102" fill="#EEEEEE" width="0.995" height="79"/>
</g>
<g>
	<rect x="87.141" y="94" fill="#EEEEEE" width="0.995" height="1"/>
</g>
<g>
	<rect x="39.16" y="134.752" fill="#EEEEEE" width="0.995" height="1"/>
</g>
<g>
	<rect x="37.16" y="134.752" fill="#EEEEEE" width="0.995" height="1"/>
</g>
<g>
	<rect x="35.16" y="134.752" fill="#EEEEEE" width="0.995" height="1"/>
</g>
<g>
	<rect x="33.16" y="134.752" fill="#EEEEEE" width="0.995" height="1"/>
</g>
<g>
	<rect x="31.16" y="134.752" fill="#EEEEEE" width="0.995" height="1"/>
</g>
<g>
	<rect x="29.16" y="134.752" fill="#EEEEEE" width="0.995" height="1"/>
</g>
<g>
	<rect x="27.16" y="134.752" fill="#EEEEEE" width="0.995" height="1"/>
</g>
<g>
	<rect x="25.16" y="134.752" fill="#EEEEEE" width="0.995" height="1"/>
</g>
<g>
	<rect x="23.16" y="134.752" fill="#EEEEEE" width="0.995" height="1"/>
</g>
<g>
	<rect x="21.16" y="134.752" fill="#EEEEEE" width="0.995" height="1"/>
</g>
<g>
	<rect x="19.16" y="134.752" fill="#EEEEEE" width="0.995" height="1"/>
</g>
<g>
	<rect x="17.16" y="134.752" fill="#EEEEEE" width="0.995" height="1"/>
</g>
<g>
	<rect x="87.141" y="92" fill="#EEEEEE" width="0.995" height="1"/>
</g>
<g>
	<rect x="87.141" y="98" fill="#EEEEEE" width="0.995" height="1"/>
</g>
<g>
	<rect x="87.141" y="100" fill="#EEEEEE" width="0.995" height="1"/>
</g>
<g>
	<rect x="87.141" y="96" fill="#EEEEEE" width="0.995" height="1"/>
</g>
<g>
	<rect x="87.141" y="90" fill="#EEEEEE" width="0.995" height="1"/>
</g>
<g>
	<rect x="87.141" y="88" fill="#EEEEEE" width="0.995" height="1"/>
</g>
<g>
	<rect x="87.141" y="86" fill="#EEEEEE" width="0.995" height="1"/>
</g>
<g>
	<rect x="87.141" y="84" fill="#EEEEEE" width="0.995" height="1"/>
</g>
<g>
	<rect x="87.141" y="82" fill="#EEEEEE" width="0.995" height="1"/>
</g>
<g>
	<rect x="87.141" y="80" fill="#EEEEEE" width="0.995" height="1"/>
</g>
<g>
	<rect x="87.141" y="78" fill="#EEEEEE" width="0.995" height="1"/>
</g>
<g>
	<rect x="87.141" y="76" fill="#EEEEEE" width="0.995" height="1"/>
</g>
<g>
	<rect x="87.141" y="74" fill="#EEEEEE" width="0.995" height="1"/>
</g>
<g>
	<rect x="87.141" y="72" fill="#EEEEEE" width="0.995" height="1"/>
</g>
<g>
	<rect x="87.141" y="70" fill="#EEEEEE" width="0.995" height="1"/>
</g>
<g>
	<rect x="87.141" y="68" fill="#EEEEEE" width="0.995" height="1"/>
</g>
<g>
	<rect x="87.141" y="66" fill="#EEEEEE" width="0.995" height="1"/>
</g>
<g>
	<rect x="87.141" y="64" fill="#EEEEEE" width="0.995" height="1"/>
</g>
<g>
	<rect x="87.141" y="62" fill="#EEEEEE" width="0.995" height="1"/>
</g>
<g>
	<rect x="87.141" y="60" fill="#EEEEEE" width="0.995" height="1"/>
</g>
<g>
	<rect x="87.141" y="58" fill="#EEEEEE" width="0.995" height="1"/>
</g>
<g>
	<rect x="87.141" y="56" fill="#EEEEEE" width="0.995" height="1"/>
</g>
<g>
	<rect x="87.141" y="54" fill="#EEEEEE" width="0.995" height="1"/>
</g>
<g>
	<rect x="87.141" y="52" fill="#EEEEEE" width="0.995" height="1"/>
</g>
<g>
	<rect x="87.141" y="50" fill="#EEEEEE" width="0.995" height="1"/>
</g>
<g>
	<rect x="87.141" y="48" fill="#EEEEEE" width="0.995" height="1"/>
</g>
<g>
	<rect x="87.141" y="46" fill="#EEEEEE" width="0.995" height="1"/>
</g>
<g>
	<rect x="87.141" y="44" fill="#EEEEEE" width="0.995" height="1"/>
</g>
<g>
	<rect x="87.141" y="42" fill="#EEEEEE" width="0.995" height="1"/>
</g>
<g>
	<rect x="87.141" y="40" fill="#EEEEEE" width="0.995" height="1"/>
</g>
<g>
	<rect x="87.141" y="38" fill="#EEEEEE" width="0.995" height="1"/>
</g>
<g>
	<rect x="87.141" y="36" fill="#EEEEEE" width="0.995" height="1"/>
</g>
<g>
	<rect x="87.141" y="34" fill="#EEEEEE" width="0.995" height="1"/>
</g>
<g>
	<rect x="87.141" y="32" fill="#EEEEEE" width="0.995" height="1"/>
</g>
<g>
	<rect x="87.141" y="30" fill="#EEEEEE" width="0.995" height="1"/>
</g>
<g>
	<rect x="87.141" y="28" fill="#EEEEEE" width="0.995" height="1"/>
</g>
<g>
	<rect x="87.141" y="26" fill="#EEEEEE" width="0.995" height="1"/>
</g>
<g>
	<rect x="43.16" y="132" fill="#EEEEEE" width="0.995" height="49"/>
</g>
<g>
	<rect x="43.16" y="82" fill="#EEEEEE" width="0.995" height="1"/>
</g>
<g>
	<rect x="43.16" y="80" fill="#EEEEEE" width="0.995" height="1"/>
</g>
<g>
	<rect x="43.16" y="78" fill="#EEEEEE" width="0.995" height="1"/>
</g>
<g>
	<rect x="43.16" y="76" fill="#EEEEEE" width="0.995" height="1"/>
</g>
<g>
	<rect x="43.16" y="74" fill="#EEEEEE" width="0.995" height="1"/>
</g>
<g>
	<rect x="43.16" y="72" fill="#EEEEEE" width="0.995" height="1"/>
</g>
<g>
	<rect x="43.16" y="100" fill="#EEEEEE" width="0.995" height="1"/>
</g>
<g>
	<rect x="43.16" y="98" fill="#EEEEEE" width="0.995" height="1"/>
</g>
<g>
	<rect x="43.16" y="96" fill="#EEEEEE" width="0.995" height="1"/>
</g>
<g>
	<rect x="43.16" y="94" fill="#EEEEEE" width="0.995" height="1"/>
</g>
<g>
	<rect x="43.16" y="108" fill="#EEEEEE" width="0.995" height="1"/>
</g>
<g>
	<rect x="43.16" y="106" fill="#EEEEEE" width="0.995" height="1"/>
</g>
<g>
	<rect x="43.16" y="104" fill="#EEEEEE" width="0.995" height="1"/>
</g>
<g>
	<rect x="43.16" y="114" fill="#EEEEEE" width="0.995" height="1"/>
</g>
<g>
	<rect x="43.16" y="112" fill="#EEEEEE" width="0.995" height="1"/>
</g>
<g>
	<rect x="43.16" y="110" fill="#EEEEEE" width="0.995" height="1"/>
</g>
<g>
	<rect x="43.16" y="102" fill="#EEEEEE" width="0.995" height="1"/>
</g>
<g>
	<rect x="43.16" y="116" fill="#EEEEEE" width="0.995" height="1"/>
</g>
<g>
	<rect x="43.16" y="124" fill="#EEEEEE" width="0.995" height="1"/>
</g>
<g>
	<rect x="43.16" y="122" fill="#EEEEEE" width="0.995" height="1"/>
</g>
<g>
	<rect x="43.16" y="120" fill="#EEEEEE" width="0.995" height="1"/>
</g>
<g>
	<rect x="43.16" y="130" fill="#EEEEEE" width="0.995" height="1"/>
</g>
<g>
	<rect x="43.16" y="128" fill="#EEEEEE" width="0.995" height="1"/>
</g>
<g>
	<rect x="43.16" y="126" fill="#EEEEEE" width="0.995" height="1"/>
</g>
<g>
	<rect x="43.16" y="118" fill="#EEEEEE" width="0.995" height="1"/>
</g>
<g>
	<rect x="43.16" y="92" fill="#EEEEEE" width="0.995" height="1"/>
</g>
<g>
	<rect x="43.16" y="90" fill="#EEEEEE" width="0.995" height="1"/>
</g>
<g>
	<rect x="43.16" y="88" fill="#EEEEEE" width="0.995" height="1"/>
</g>
<g>
	<rect x="43.16" y="86" fill="#EEEEEE" width="0.995" height="1"/>
</g>
<g>
	<rect x="43.16" y="84" fill="#EEEEEE" width="0.995" height="1"/>
</g>
<g>
	<rect x="41.16" y="134.755" fill="#EEEEEE" width="274.774" height="0.995"/>
</g>
<g>
	<rect x="35.16" y="90" fill="#EEEEEE" width="0.995" height="1"/>
</g>
<g>
	<rect x="33.16" y="90" fill="#EEEEEE" width="0.995" height="1"/>
</g>
<g>
	<rect x="31.16" y="90" fill="#EEEEEE" width="0.995" height="1"/>
</g>
<g>
	<rect x="29.16" y="90" fill="#EEEEEE" width="0.995" height="1"/>
</g>
<g>
	<rect x="27.16" y="90" fill="#EEEEEE" width="0.995" height="1"/>
</g>
<g>
	<rect x="25.16" y="90" fill="#EEEEEE" width="0.995" height="1"/>
</g>
<g>
	<rect x="23.16" y="90" fill="#EEEEEE" width="0.995" height="1"/>
</g>
<g>
	<rect x="21.16" y="90" fill="#EEEEEE" width="0.995" height="1"/>
</g>
<g>
	<rect x="19.16" y="90" fill="#EEEEEE" width="0.995" height="1"/>
</g>
<g>
	<rect x="17.16" y="90" fill="#EEEEEE" width="0.995" height="1"/>
</g>
<g>
	<rect x="15.165" y="90" fill="#EEEEEE" width="0.995" height="1"/>
</g>
<g>
	<rect x="13.165" y="90" fill="#EEEEEE" width="0.995" height="1"/>
</g>
<g>
	<rect x="11.165" y="90" fill="#EEEEEE" width="0.995" height="1"/>
</g>
<g>
	<rect x="9.165" y="90" fill="#EEEEEE" width="0.995" height="1"/>
</g>
<g>
	<rect x="7.165" y="90" fill="#EEEEEE" width="0.995" height="1"/>
</g>
<g>
	<rect x="5.165" y="90" fill="#EEEEEE" width="0.995" height="1"/>
</g>
<g>
	<rect x="83.15" y="90" fill="#EEEEEE" width="0.995" height="1"/>
</g>
<g>
	<rect x="85.15" y="90" fill="#EEEEEE" width="0.995" height="1"/>
</g>
<g>
	<rect x="81.15" y="90" fill="#EEEEEE" width="0.995" height="1"/>
</g>
<g>
	<rect x="79.15" y="90" fill="#EEEEEE" width="0.995" height="1"/>
</g>
<g>
	<rect x="77.15" y="90" fill="#EEEEEE" width="0.995" height="1"/>
</g>
<g>
	<rect x="75.15" y="90" fill="#EEEEEE" width="0.995" height="1"/>
</g>
<g>
	<rect x="73.15" y="90" fill="#EEEEEE" width="0.995" height="1"/>
</g>
<g>
	<rect x="71.15" y="90" fill="#EEEEEE" width="0.995" height="1"/>
</g>
<g>
	<rect x="69.15" y="90" fill="#EEEEEE" width="0.995" height="1"/>
</g>
<g>
	<rect x="67.15" y="90" fill="#EEEEEE" width="0.995" height="1"/>
</g>
<g>
	<rect x="65.15" y="90" fill="#EEEEEE" width="0.995" height="1"/>
</g>
<g>
	<rect x="63.16" y="90" fill="#EEEEEE" width="0.995" height="1"/>
</g>
<g>
	<rect x="61.16" y="90" fill="#EEEEEE" width="0.995" height="1"/>
</g>
<g>
	<rect x="59.16" y="90" fill="#EEEEEE" width="0.995" height="1"/>
</g>
<g>
	<rect x="117.098" y="90" fill="#EEEEEE" width="0.995" height="1"/>
</g>
<g>
	<rect x="119.098" y="90" fill="#EEEEEE" width="0.995" height="1"/>
</g>
<g>
	<rect x="115.098" y="90" fill="#EEEEEE" width="0.995" height="1"/>
</g>
<g>
	<rect x="113.098" y="90" fill="#EEEEEE" width="0.995" height="1"/>
</g>
<g>
	<rect x="111.098" y="90" fill="#EEEEEE" width="0.995" height="1"/>
</g>
<g>
	<rect x="109.098" y="90" fill="#EEEEEE" width="0.995" height="1"/>
</g>
<g>
	<rect x="107.098" y="90" fill="#EEEEEE" width="0.995" height="1"/>
</g>
<g>
	<rect x="105.098" y="90" fill="#EEEEEE" width="0.995" height="1"/>
</g>
<g>
	<rect x="103.098" y="90" fill="#EEEEEE" width="0.995" height="1"/>
</g>
<g>
	<rect x="101.098" y="90" fill="#EEEEEE" width="0.995" height="1"/>
</g>
<g>
	<rect x="99.098" y="90" fill="#EEEEEE" width="0.995" height="1"/>
</g>
<g>
	<rect x="97.107" y="90" fill="#EEEEEE" width="0.995" height="1"/>
</g>
<g>
	<rect x="95.107" y="90" fill="#EEEEEE" width="0.995" height="1"/>
</g>
<g>
	<rect x="93.107" y="90" fill="#EEEEEE" width="0.995" height="1"/>
</g>
<g>
	<rect x="91.107" y="90" fill="#EEEEEE" width="0.995" height="1"/>
</g>
<g>
	<rect x="89.107" y="90" fill="#EEEEEE" width="0.995" height="1"/>
</g>
<g>
	<rect x="135.098" y="90" fill="#EEEEEE" width="0.995" height="1"/>
</g>
<g>
	<rect x="143.098" y="90" fill="#EEEEEE" width="0.995" height="1"/>
</g>
<g>
	<rect x="145.098" y="90" fill="#EEEEEE" width="0.995" height="1"/>
</g>
<g>
	<rect x="141.098" y="90" fill="#EEEEEE" width="0.995" height="1"/>
</g>
<g>
	<rect x="139.098" y="90" fill="#EEEEEE" width="0.995" height="1"/>
</g>
<g>
	<rect x="137.098" y="90" fill="#EEEEEE" width="0.995" height="1"/>
</g>
<g>
	<rect x="153.098" y="90" fill="#EEEEEE" width="0.995" height="1"/>
</g>
<g>
	<rect x="155.098" y="90" fill="#EEEEEE" width="0.995" height="1"/>
</g>
<g>
	<rect x="151.098" y="90" fill="#EEEEEE" width="0.995" height="1"/>
</g>
<g>
	<rect x="149.098" y="90" fill="#EEEEEE" width="0.995" height="1"/>
</g>
<g>
	<rect x="147.098" y="90" fill="#EEEEEE" width="0.995" height="1"/>
</g>
<g>
	<rect x="163.098" y="90" fill="#EEEEEE" width="0.995" height="1"/>
</g>
<g>
	<rect x="165.098" y="90" fill="#EEEEEE" width="0.995" height="1"/>
</g>
<g>
	<rect x="161.098" y="90" fill="#EEEEEE" width="0.995" height="1"/>
</g>
<g>
	<rect x="159.098" y="90" fill="#EEEEEE" width="0.995" height="1"/>
</g>
<g>
	<rect x="157.098" y="90" fill="#EEEEEE" width="0.995" height="1"/>
</g>
<g>
	<rect x="173.088" y="90" fill="#EEEEEE" width="0.995" height="1"/>
</g>
<g>
	<rect x="171.088" y="90" fill="#EEEEEE" width="0.995" height="1"/>
</g>
<g>
	<rect x="169.088" y="90" fill="#EEEEEE" width="0.995" height="1"/>
</g>
<g>
	<rect x="167.088" y="90" fill="#EEEEEE" width="0.995" height="1"/>
</g>
<g>
	<rect x="175.088" y="90" fill="#EEEEEE" width="140.847" height="1"/>
</g>
<g>
	<rect x="131.098" y="90" fill="#EEEEEE" width="0.995" height="1"/>
</g>
<g>
	<rect x="129.098" y="90" fill="#EEEEEE" width="0.995" height="1"/>
</g>
<g>
	<rect x="127.098" y="90" fill="#EEEEEE" width="0.995" height="1"/>
</g>
<g>
	<rect x="125.107" y="90" fill="#EEEEEE" width="0.995" height="1"/>
</g>
<g>
	<rect x="123.107" y="90" fill="#EEEEEE" width="0.995" height="1"/>
</g>
<g>
	<rect x="121.107" y="90" fill="#EEEEEE" width="0.995" height="1"/>
</g>
<g>
	<rect x="57.16" y="90" fill="#EEEEEE" width="0.995" height="1"/>
</g>
<g>
	<rect x="55.16" y="90" fill="#EEEEEE" width="0.995" height="1"/>
</g>
<g>
	<rect x="53.16" y="90" fill="#EEEEEE" width="0.995" height="1"/>
</g>
<g>
	<rect x="51.16" y="90" fill="#EEEEEE" width="0.995" height="1"/>
</g>
<g>
	<rect x="49.098" y="90" fill="#EEEEEE" width="0.995" height="1"/>
</g>
<g>
	<rect x="47.098" y="90" fill="#EEEEEE" width="0.995" height="1"/>
</g>
<g>
	<rect x="45.098" y="90" fill="#EEEEEE" width="0.995" height="1"/>
</g>
<g>
	<rect x="37.16" y="90" fill="#EEEEEE" width="0.995" height="1"/>
</g>
<g>
	<rect x="39.16" y="90" fill="#EEEEEE" width="0.995" height="1"/>
</g>
<g>
	<rect x="41.16" y="90" fill="#EEEEEE" width="0.995" height="1"/>
</g>
<g>
	<rect x="312.939" y="44" fill="#EEEEEE" width="0.995" height="1"/>
</g>
<g>
	<rect x="310.939" y="44" fill="#EEEEEE" width="0.995" height="1"/>
</g>
<g>
	<rect x="278.977" y="44" fill="#EEEEEE" width="0.995" height="1"/>
</g>
<g>
	<rect x="308.955" y="44" fill="#EEEEEE" width="0.995" height="1"/>
</g>
<g>
	<rect x="306.965" y="44" fill="#EEEEEE" width="0.995" height="1"/>
</g>
<g>
	<rect x="304.965" y="44" fill="#EEEEEE" width="0.995" height="1"/>
</g>
<g>
	<rect x="302.965" y="44" fill="#EEEEEE" width="0.995" height="1"/>
</g>
<g>
	<rect x="300.965" y="44" fill="#EEEEEE" width="0.995" height="1"/>
</g>
<g>
	<rect x="298.965" y="44" fill="#EEEEEE" width="0.995" height="1"/>
</g>
<g>
	<rect x="296.965" y="44" fill="#EEEEEE" width="0.995" height="1"/>
</g>
<g>
	<rect x="288.957" y="44" fill="#EEEEEE" width="0.995" height="1"/>
</g>
<g>
	<rect x="294.977" y="44" fill="#EEEEEE" width="0.995" height="1"/>
</g>
<g>
	<rect x="292.977" y="44" fill="#EEEEEE" width="0.995" height="1"/>
</g>
<g>
	<rect x="290.977" y="44" fill="#EEEEEE" width="0.995" height="1"/>
</g>
<g>
	<rect x="286.977" y="44" fill="#EEEEEE" width="0.995" height="1"/>
</g>
<g>
	<rect x="284.977" y="44" fill="#EEEEEE" width="0.995" height="1"/>
</g>
<g>
	<rect x="282.977" y="44" fill="#EEEEEE" width="0.995" height="1"/>
</g>
<g>
	<rect x="280.977" y="44" fill="#EEEEEE" width="0.995" height="1"/>
</g>
<g>
	<rect x="276.977" y="44" fill="#EEEEEE" width="0.995" height="1"/>
</g>
<g>
	<rect x="274.977" y="44" fill="#EEEEEE" width="0.995" height="1"/>
</g>
<g>
	<rect x="260.957" y="44" fill="#EEEEEE" width="0.995" height="1"/>
</g>
<g>
	<rect x="270.938" y="44" fill="#EEEEEE" width="0.995" height="1"/>
</g>
<g>
	<rect x="272.957" y="44" fill="#EEEEEE" width="0.995" height="1"/>
</g>
<g>
	<rect x="268.957" y="44" fill="#EEEEEE" width="0.995" height="1"/>
</g>
<g>
	<rect x="266.957" y="44" fill="#EEEEEE" width="0.995" height="1"/>
</g>
<g>
	<rect x="264.957" y="44" fill="#EEEEEE" width="0.995" height="1"/>
</g>
<g>
	<rect x="262.957" y="44" fill="#EEEEEE" width="0.995" height="1"/>
</g>
<g>
	<rect x="258.957" y="44" fill="#EEEEEE" width="0.995" height="1"/>
</g>
<g>
	<rect x="256.957" y="44" fill="#EEEEEE" width="0.995" height="1"/>
</g>
<g>
	<rect x="254.973" y="44" fill="#EEEEEE" width="0.995" height="1"/>
</g>
<g>
	<rect x="252.982" y="44" fill="#EEEEEE" width="0.995" height="1"/>
</g>
<g>
	<rect x="250.982" y="44" fill="#EEEEEE" width="0.995" height="1"/>
</g>
<g>
	<rect x="248.982" y="44" fill="#EEEEEE" width="0.995" height="1"/>
</g>
<g>
	<rect x="246.982" y="44" fill="#EEEEEE" width="0.995" height="1"/>
</g>
<g>
	<rect x="244.982" y="44" fill="#EEEEEE" width="0.995" height="1"/>
</g>
<g>
	<rect x="242.982" y="44" fill="#EEEEEE" width="0.995" height="1"/>
</g>
<g>
	<rect x="234.975" y="44" fill="#EEEEEE" width="0.995" height="1"/>
</g>
<g>
	<rect x="240.994" y="44" fill="#EEEEEE" width="0.995" height="1"/>
</g>
<g>
	<rect x="238.994" y="44" fill="#EEEEEE" width="0.995" height="1"/>
</g>
<g>
	<rect x="236.994" y="44" fill="#EEEEEE" width="0.995" height="1"/>
</g>
<g>
	<rect x="232.994" y="44" fill="#EEEEEE" width="0.995" height="1"/>
</g>
<g>
	<rect x="230.994" y="44" fill="#EEEEEE" width="0.995" height="1"/>
</g>
<g>
	<rect x="228.994" y="44" fill="#EEEEEE" width="0.995" height="1"/>
</g>
<g>
	<rect x="226.994" y="44" fill="#EEEEEE" width="0.995" height="1"/>
</g>
<g>
	<rect x="222.994" y="44" fill="#EEEEEE" width="0.995" height="1"/>
</g>
<g>
	<rect x="220.994" y="44" fill="#EEEEEE" width="0.995" height="1"/>
</g>
<g>
	<rect x="183.047" y="44" fill="#EEEEEE" width="0.995" height="1"/>
</g>
<g>
	<rect x="219.004" y="44" fill="#EEEEEE" width="0.995" height="1"/>
</g>
<g>
	<rect x="217.004" y="44" fill="#EEEEEE" width="0.995" height="1"/>
</g>
<g>
	<rect x="215.004" y="44" fill="#EEEEEE" width="0.995" height="1"/>
</g>
<g>
	<rect x="213.02" y="44" fill="#EEEEEE" width="0.995" height="1"/>
</g>
<g>
	<rect x="211.029" y="44" fill="#EEEEEE" width="0.995" height="1"/>
</g>
<g>
	<rect x="209.029" y="44" fill="#EEEEEE" width="0.995" height="1"/>
</g>
<g>
	<rect x="207.029" y="44" fill="#EEEEEE" width="0.995" height="1"/>
</g>
<g>
	<rect x="205.029" y="44" fill="#EEEEEE" width="0.995" height="1"/>
</g>
<g>
	<rect x="203.029" y="44" fill="#EEEEEE" width="0.995" height="1"/>
</g>
<g>
	<rect x="201.029" y="44" fill="#EEEEEE" width="0.995" height="1"/>
</g>
<g>
	<rect x="193.021" y="44" fill="#EEEEEE" width="0.995" height="1"/>
</g>
<g>
	<rect x="199.041" y="44" fill="#EEEEEE" width="0.995" height="1"/>
</g>
<g>
	<rect x="197.041" y="44" fill="#EEEEEE" width="0.995" height="1"/>
</g>
<g>
	<rect x="195.041" y="44" fill="#EEEEEE" width="0.995" height="1"/>
</g>
<g>
	<rect x="191.041" y="44" fill="#EEEEEE" width="0.995" height="1"/>
</g>
<g>
	<rect x="189.041" y="44" fill="#EEEEEE" width="0.995" height="1"/>
</g>
<g>
	<rect x="187.041" y="44" fill="#EEEEEE" width="0.995" height="1"/>
</g>
<g>
	<rect x="185.041" y="44" fill="#EEEEEE" width="0.995" height="1"/>
</g>
<g>
	<rect x="181.041" y="44" fill="#EEEEEE" width="0.995" height="1"/>
</g>
<g>
	<rect x="173.057" y="44" fill="#EEEEEE" width="0.995" height="1"/>
</g>
<g>
	<rect x="127.098" y="44" fill="#EEEEEE" width="0.995" height="1"/>
</g>
<g>
	<rect x="177.051" y="44" fill="#EEEEEE" width="0.995" height="1"/>
</g>
<g>
	<rect x="175.051" y="44" fill="#EEEEEE" width="0.995" height="1"/>
</g>
<g>
	<rect x="171.051" y="44" fill="#EEEEEE" width="0.995" height="1"/>
</g>
<g>
	<rect x="169.051" y="44" fill="#EEEEEE" width="0.995" height="1"/>
</g>
<g>
	<rect x="131.104" y="44" fill="#EEEEEE" width="0.995" height="1"/>
</g>
<g>
	<rect x="167.061" y="44" fill="#EEEEEE" width="0.995" height="1"/>
</g>
<g>
	<rect x="165.061" y="44" fill="#EEEEEE" width="0.995" height="1"/>
</g>
<g>
	<rect x="163.061" y="44" fill="#EEEEEE" width="0.995" height="1"/>
</g>
<g>
	<rect x="161.076" y="44" fill="#EEEEEE" width="0.995" height="1"/>
</g>
<g>
	<rect x="159.086" y="44" fill="#EEEEEE" width="0.995" height="1"/>
</g>
<g>
	<rect x="157.086" y="44" fill="#EEEEEE" width="0.995" height="1"/>
</g>
<g>
	<rect x="155.086" y="44" fill="#EEEEEE" width="0.995" height="1"/>
</g>
<g>
	<rect x="153.086" y="44" fill="#EEEEEE" width="0.995" height="1"/>
</g>
<g>
	<rect x="151.086" y="44" fill="#EEEEEE" width="0.995" height="1"/>
</g>
<g>
	<rect x="149.086" y="44" fill="#EEEEEE" width="0.995" height="1"/>
</g>
<g>
	<rect x="141.078" y="44" fill="#EEEEEE" width="0.995" height="1"/>
</g>
<g>
	<rect x="147.098" y="44" fill="#EEEEEE" width="0.995" height="1"/>
</g>
<g>
	<rect x="145.098" y="44" fill="#EEEEEE" width="0.995" height="1"/>
</g>
<g>
	<rect x="143.098" y="44" fill="#EEEEEE" width="0.995" height="1"/>
</g>
<g>
	<rect x="139.098" y="44" fill="#EEEEEE" width="0.995" height="1"/>
</g>
<g>
	<rect x="137.098" y="44" fill="#EEEEEE" width="0.995" height="1"/>
</g>
<g>
	<rect x="135.098" y="44" fill="#EEEEEE" width="0.995" height="1"/>
</g>
<g>
	<rect x="133.098" y="44" fill="#EEEEEE" width="0.995" height="1"/>
</g>
<g>
	<rect x="129.098" y="44" fill="#EEEEEE" width="0.995" height="1"/>
</g>
<g>
	<rect x="103.121" y="44.001" fill="#EEEEEE" width="0.995" height="1"/>
</g>
<g>
	<rect x="107.127" y="44" fill="#EEEEEE" width="0.995" height="1"/>
</g>
<g>
	<rect x="125.109" y="44.001" fill="#EEEEEE" width="0.995" height="1"/>
</g>
<g>
	<rect x="117.102" y="44.001" fill="#EEEEEE" width="0.995" height="1"/>
</g>
<g>
	<rect x="123.121" y="44.001" fill="#EEEEEE" width="0.995" height="1"/>
</g>
<g>
	<rect x="121.121" y="44.001" fill="#EEEEEE" width="0.995" height="1"/>
</g>
<g>
	<rect x="119.121" y="44.001" fill="#EEEEEE" width="0.995" height="1"/>
</g>
<g>
	<rect x="115.121" y="44.001" fill="#EEEEEE" width="0.995" height="1"/>
</g>
<g>
	<rect x="113.121" y="44.001" fill="#EEEEEE" width="0.995" height="1"/>
</g>
<g>
	<rect x="111.121" y="44.001" fill="#EEEEEE" width="0.995" height="1"/>
</g>
<g>
	<rect x="109.121" y="44.001" fill="#EEEEEE" width="0.995" height="1"/>
</g>
<g>
	<rect x="105.121" y="44.001" fill="#EEEEEE" width="0.995" height="1"/>
</g>
<g>
	<rect x="97.137" y="44" fill="#EEEEEE" width="0.995" height="1"/>
</g>
<g>
	<rect x="101.131" y="44.001" fill="#EEEEEE" width="0.995" height="1"/>
</g>
<g>
	<rect x="99.131" y="44.001" fill="#EEEEEE" width="0.995" height="1"/>
</g>
<g>
	<rect x="95.131" y="44.001" fill="#EEEEEE" width="0.995" height="1"/>
</g>
<g>
	<rect x="93.131" y="44.001" fill="#EEEEEE" width="0.995" height="1"/>
</g>
<g>
	<rect x="91.141" y="44.001" fill="#EEEEEE" width="0.995" height="1"/>
</g>
<g>
	<rect x="89.141" y="44.001" fill="#EEEEEE" width="0.995" height="1"/>
</g>
<g>
	<rect x="85.156" y="44.001" fill="#EEEEEE" width="0.995" height="1"/>
</g>
<g>
	<rect x="83.166" y="44.001" fill="#EEEEEE" width="0.995" height="1"/>
</g>
<g>
	<rect x="81.166" y="44.001" fill="#EEEEEE" width="0.995" height="1"/>
</g>
<g>
	<rect x="79.166" y="44.001" fill="#EEEEEE" width="0.995" height="1"/>
</g>
<g>
	<rect x="77.166" y="44.001" fill="#EEEEEE" width="0.995" height="1"/>
</g>
<g>
	<rect x="75.166" y="44.001" fill="#EEEEEE" width="0.995" height="1"/>
</g>
<g>
</g>
<g>
</g>
<g>
</g>
<g>
</g>
<g>
</g>
<g>
</g>
</svg>
