<?xml version="1.0" encoding="utf-8"?>
<!-- Generator: Adobe Illustrator 16.0.0, SVG Export Plug-In . SVG Version: 6.00 Build 0)  -->
<!DOCTYPE svg PUBLIC "-//W3C//DTD SVG 1.1//EN" "http://www.w3.org/Graphics/SVG/1.1/DTD/svg11.dtd">
<svg version="1.1" id="Capa_1" xmlns="http://www.w3.org/2000/svg" xmlns:xlink="http://www.w3.org/1999/xlink" x="0px" y="0px"
	 width="225.127px" height="135px" viewBox="0 0 225.127 135" enable-background="new 0 0 225.127 135" xml:space="preserve">
<g>
	<rect x="224.139" y="0.127" fill="#EEEEEE" width="0.995" height="67.75"/>
</g>
<g>
	<rect x="224.139" y="68.877" fill="#EEEEEE" width="0.995" height="1"/>
</g>
<g>
	<rect x="224.139" y="70.877" fill="#EEEEEE" width="0.995" height="1"/>
</g>
<g>
	<rect x="224.139" y="72.877" fill="#EEEEEE" width="0.995" height="1"/>
</g>
<g>
	<rect x="224.139" y="74.877" fill="#EEEEEE" width="0.995" height="1"/>
</g>
<g>
	<rect x="224.139" y="76.877" fill="#EEEEEE" width="0.995" height="1"/>
</g>
<g>
	<rect x="224.139" y="78.877" fill="#EEEEEE" width="0.995" height="1"/>
</g>
<g>
	<rect x="224.139" y="80.877" fill="#EEEEEE" width="0.995" height="1"/>
</g>
<g>
	<rect x="224.139" y="82.877" fill="#EEEEEE" width="0.995" height="1"/>
</g>
<g>
	<rect x="224.139" y="84.877" fill="#EEEEEE" width="0.995" height="1"/>
</g>
<g>
	<rect x="224.139" y="86.877" fill="#EEEEEE" width="0.995" height="1"/>
</g>
<g>
	<rect x="224.139" y="88.877" fill="#EEEEEE" width="0.995" height="1"/>
</g>
<g>
	<rect x="224.139" y="90.877" fill="#EEEEEE" width="0.995" height="1"/>
</g>
<g>
	<rect x="224.139" y="92.877" fill="#EEEEEE" width="0.995" height="1"/>
</g>
<g>
	<rect x="224.139" y="94.876" fill="#EEEEEE" width="0.995" height="1"/>
</g>
<g>
	<rect x="224.139" y="96.876" fill="#EEEEEE" width="0.995" height="1"/>
</g>
<g>
	<rect x="224.139" y="98.876" fill="#EEEEEE" width="0.995" height="1"/>
</g>
<g>
	<rect x="224.139" y="100.876" fill="#EEEEEE" width="0.995" height="1"/>
</g>
<g>
	<rect x="224.139" y="102.876" fill="#EEEEEE" width="0.995" height="1"/>
</g>
<g>
	<rect x="224.139" y="104.876" fill="#EEEEEE" width="0.995" height="1"/>
</g>
<g>
	<rect x="224.139" y="106.876" fill="#EEEEEE" width="0.995" height="1"/>
</g>
<g>
	<rect x="224.139" y="108.876" fill="#EEEEEE" width="0.995" height="1"/>
</g>
<g>
	<rect x="224.139" y="110.876" fill="#EEEEEE" width="0.995" height="1"/>
</g>
<g>
	<rect x="224.139" y="112.876" fill="#EEEEEE" width="0.995" height="1"/>
</g>
<g>
	<rect x="224.139" y="114.876" fill="#EEEEEE" width="0.995" height="1"/>
</g>
<g>
	<rect x="224.139" y="116.876" fill="#EEEEEE" width="0.995" height="1"/>
</g>
<g>
	<rect x="224.139" y="118.876" fill="#EEEEEE" width="0.995" height="1"/>
</g>
<g>
	<rect x="224.139" y="120.876" fill="#EEEEEE" width="0.995" height="1"/>
</g>
<g>
	<rect x="178.18" y="0.125" fill="#EEEEEE" width="0.995" height="49.752"/>
</g>
<g>
	<rect x="178.18" y="50.877" fill="#EEEEEE" width="0.995" height="1"/>
</g>
<g>
	<rect x="178.18" y="52.877" fill="#EEEEEE" width="0.995" height="1"/>
</g>
<g>
	<rect x="178.18" y="54.877" fill="#EEEEEE" width="0.995" height="1"/>
</g>
<g>
	<rect x="178.18" y="56.877" fill="#EEEEEE" width="0.995" height="1"/>
</g>
<g>
	<rect x="178.18" y="58.877" fill="#EEEEEE" width="0.995" height="1"/>
</g>
<g>
	<rect x="178.18" y="60.877" fill="#EEEEEE" width="0.995" height="1"/>
</g>
<g>
	<rect x="178.18" y="62.877" fill="#EEEEEE" width="0.995" height="1"/>
</g>
<g>
	<rect x="178.18" y="64.877" fill="#EEEEEE" width="0.995" height="1"/>
</g>
<g>
	<rect x="178.18" y="66.877" fill="#EEEEEE" width="0.995" height="1"/>
</g>
<g>
	<rect x="178.18" y="68.877" fill="#EEEEEE" width="0.995" height="1"/>
</g>
<g>
	<rect x="178.18" y="70.877" fill="#EEEEEE" width="0.995" height="1"/>
</g>
<g>
	<rect x="178.18" y="72.876" fill="#EEEEEE" width="0.995" height="1"/>
</g>
<g>
	<rect x="178.18" y="74.876" fill="#EEEEEE" width="0.995" height="1"/>
</g>
<g>
	<rect x="178.18" y="76.876" fill="#EEEEEE" width="0.995" height="1"/>
</g>
<g>
	<rect x="178.18" y="78.876" fill="#EEEEEE" width="0.995" height="1"/>
</g>
<g>
	<rect x="178.18" y="80.876" fill="#EEEEEE" width="0.995" height="1"/>
</g>
<g>
	<rect x="178.18" y="82.876" fill="#EEEEEE" width="0.995" height="1"/>
</g>
<g>
	<rect x="178.18" y="84.876" fill="#EEEEEE" width="0.995" height="1"/>
</g>
<g>
	<rect x="178.18" y="86.876" fill="#EEEEEE" width="0.995" height="1"/>
</g>
<g>
	<rect x="178.18" y="88.876" fill="#EEEEEE" width="0.995" height="1"/>
</g>
<g>
	<rect x="178.18" y="90.876" fill="#EEEEEE" width="0.995" height="1"/>
</g>
<g>
	<rect x="178.18" y="92.876" fill="#EEEEEE" width="0.995" height="1"/>
</g>
<g>
	<rect x="178.18" y="94.876" fill="#EEEEEE" width="0.995" height="1"/>
</g>
<g>
	<rect x="178.18" y="96.876" fill="#EEEEEE" width="0.995" height="1"/>
</g>
<g>
	<rect x="178.18" y="98.876" fill="#EEEEEE" width="0.995" height="1"/>
</g>
<g>
	<rect x="178.18" y="100.876" fill="#EEEEEE" width="0.995" height="1"/>
</g>
<g>
	<rect x="178.18" y="102.876" fill="#EEEEEE" width="0.995" height="1"/>
</g>
<g>
	<rect x="178.18" y="104.876" fill="#EEEEEE" width="0.995" height="1"/>
</g>
<g>
	<rect x="178.18" y="106.876" fill="#EEEEEE" width="0.995" height="1"/>
</g>
<g>
	<rect x="178.18" y="108.876" fill="#EEEEEE" width="0.995" height="1"/>
</g>
<g>
	<rect x="224.139" y="122.876" fill="#EEEEEE" width="0.995" height="1"/>
</g>
<g>
	<rect x="178.18" y="110.876" fill="#EEEEEE" width="0.995" height="1"/>
</g>
<g>
	<rect x="132.236" y="0.126" fill="#EEEEEE" width="0.995" height="51.75"/>
</g>
<g>
	<rect x="132.236" y="52.877" fill="#EEEEEE" width="0.995" height="1"/>
</g>
<g>
	<rect x="132.236" y="54.877" fill="#EEEEEE" width="0.995" height="1"/>
</g>
<g>
	<rect x="132.236" y="56.877" fill="#EEEEEE" width="0.995" height="1"/>
</g>
<g>
	<rect x="132.236" y="58.877" fill="#EEEEEE" width="0.995" height="1"/>
</g>
<g>
	<rect x="132.236" y="60.877" fill="#EEEEEE" width="0.995" height="1"/>
</g>
<g>
	<rect x="132.236" y="62.877" fill="#EEEEEE" width="0.995" height="1"/>
</g>
<g>
	<rect x="132.236" y="64.877" fill="#EEEEEE" width="0.995" height="1"/>
</g>
<g>
	<rect x="132.236" y="66.876" fill="#EEEEEE" width="0.995" height="1"/>
</g>
<g>
	<rect x="132.236" y="68.876" fill="#EEEEEE" width="0.995" height="1"/>
</g>
<g>
	<rect x="132.236" y="70.876" fill="#EEEEEE" width="0.995" height="1"/>
</g>
<g>
	<rect x="132.236" y="72.876" fill="#EEEEEE" width="0.995" height="1"/>
</g>
<g>
	<rect x="132.236" y="74.876" fill="#EEEEEE" width="0.995" height="1"/>
</g>
<g>
	<rect x="132.236" y="76.876" fill="#EEEEEE" width="0.995" height="1"/>
</g>
<g>
	<rect x="132.236" y="78.876" fill="#EEEEEE" width="0.995" height="1"/>
</g>
<g>
	<rect x="132.236" y="80.876" fill="#EEEEEE" width="0.995" height="1"/>
</g>
<g>
	<rect x="132.236" y="82.876" fill="#EEEEEE" width="0.995" height="1"/>
</g>
<g>
	<rect x="132.236" y="84.876" fill="#EEEEEE" width="0.995" height="1"/>
</g>
<g>
	<rect x="132.236" y="86.876" fill="#EEEEEE" width="0.995" height="1"/>
</g>
<g>
	<rect x="132.236" y="88.876" fill="#EEEEEE" width="0.995" height="1"/>
</g>
<g>
	<rect x="132.236" y="90.876" fill="#EEEEEE" width="0.995" height="1"/>
</g>
<g>
	<rect x="132.236" y="92.876" fill="#EEEEEE" width="0.995" height="1"/>
</g>
<g>
	<rect x="132.236" y="94.876" fill="#EEEEEE" width="0.995" height="1"/>
</g>
<g>
	<rect x="132.236" y="96.876" fill="#EEEEEE" width="0.995" height="1"/>
</g>
<g>
	<rect x="132.236" y="98.876" fill="#EEEEEE" width="0.995" height="1"/>
</g>
<g>
	<rect x="132.236" y="100.876" fill="#EEEEEE" width="0.995" height="1"/>
</g>
<g>
	<rect x="132.236" y="102.876" fill="#EEEEEE" width="0.995" height="1"/>
</g>
<g>
	<rect x="132.236" y="104.876" fill="#EEEEEE" width="0.995" height="1"/>
</g>
<g>
	<rect x="132.236" y="106.876" fill="#EEEEEE" width="0.995" height="1"/>
</g>
<g>
	<rect x="132.236" y="108.876" fill="#EEEEEE" width="0.995" height="1"/>
</g>
<g>
	<rect x="132.236" y="110.876" fill="#EEEEEE" width="0.995" height="1"/>
</g>
<g>
	<rect x="132.236" y="112.876" fill="#EEEEEE" width="0.995" height="1"/>
</g>
<g>
	<rect x="132.236" y="114.876" fill="#EEEEEE" width="0.995" height="1"/>
</g>
<g>
	<rect x="132.236" y="116.876" fill="#EEEEEE" width="0.995" height="1"/>
</g>
<g>
	<rect x="132.236" y="118.876" fill="#EEEEEE" width="0.995" height="1"/>
</g>
<g>
	<rect x="132.236" y="120.876" fill="#EEEEEE" width="0.995" height="1"/>
</g>
<g>
	<rect x="132.236" y="122.876" fill="#EEEEEE" width="0.995" height="1"/>
</g>
<g>
	<rect x="132.236" y="124.877" fill="#EEEEEE" width="0.995" height="1"/>
</g>
<g>
	<rect x="132.236" y="126.877" fill="#EEEEEE" width="0.995" height="1"/>
</g>
<g>
	<rect x="132.236" y="128.877" fill="#EEEEEE" width="0.995" height="1"/>
</g>
<g>
	<rect x="86.279" y="0.124" fill="#EEEEEE" width="0.995" height="33.752"/>
</g>
<g>
	<rect x="86.279" y="40.877" fill="#EEEEEE" width="0.995" height="1"/>
</g>
<g>
	<rect x="86.279" y="42.877" fill="#EEEEEE" width="0.995" height="1"/>
</g>
<g>
	<rect x="86.279" y="36.877" fill="#EEEEEE" width="0.995" height="1"/>
</g>
<g>
	<rect x="86.279" y="34.877" fill="#EEEEEE" width="0.995" height="1"/>
</g>
<g>
	<rect x="86.279" y="38.877" fill="#EEEEEE" width="0.995" height="1"/>
</g>
<g>
	<rect x="86.279" y="44.877" fill="#EEEEEE" width="0.995" height="1"/>
</g>
<g>
	<rect x="86.279" y="46.877" fill="#EEEEEE" width="0.995" height="1"/>
</g>
<g>
	<rect x="86.279" y="48.877" fill="#EEEEEE" width="0.995" height="1"/>
</g>
<g>
	<rect x="86.279" y="50.877" fill="#EEEEEE" width="0.995" height="1"/>
</g>
<g>
	<rect x="86.279" y="52.877" fill="#EEEEEE" width="0.995" height="1"/>
</g>
<g>
	<rect x="86.279" y="54.877" fill="#EEEEEE" width="0.995" height="1"/>
</g>
<g>
	<rect x="86.279" y="56.877" fill="#EEEEEE" width="0.995" height="1"/>
</g>
<g>
	<rect x="86.279" y="58.877" fill="#EEEEEE" width="0.995" height="1"/>
</g>
<g>
	<rect x="86.279" y="60.877" fill="#EEEEEE" width="0.995" height="1"/>
</g>
<g>
	<rect x="86.279" y="62.877" fill="#EEEEEE" width="0.995" height="1"/>
</g>
<g>
	<rect x="86.279" y="64.877" fill="#EEEEEE" width="0.995" height="1"/>
</g>
<g>
	<rect x="86.279" y="66.877" fill="#EEEEEE" width="0.995" height="1"/>
</g>
<g>
	<rect x="86.279" y="68.877" fill="#EEEEEE" width="0.995" height="1"/>
</g>
<g>
	<rect x="86.279" y="70.877" fill="#EEEEEE" width="0.995" height="1"/>
</g>
<g>
	<rect x="86.279" y="72.876" fill="#EEEEEE" width="0.995" height="1"/>
</g>
<g>
	<rect x="86.279" y="74.876" fill="#EEEEEE" width="0.995" height="1"/>
</g>
<g>
	<rect x="86.279" y="76.876" fill="#EEEEEE" width="0.995" height="1"/>
</g>
<g>
	<rect x="86.279" y="78.876" fill="#EEEEEE" width="0.995" height="1"/>
</g>
<g>
	<rect x="86.279" y="80.876" fill="#EEEEEE" width="0.995" height="1"/>
</g>
<g>
	<rect x="86.279" y="82.876" fill="#EEEEEE" width="0.995" height="1"/>
</g>
<g>
	<rect x="86.279" y="84.876" fill="#EEEEEE" width="0.995" height="1"/>
</g>
<g>
	<rect x="86.279" y="86.876" fill="#EEEEEE" width="0.995" height="1"/>
</g>
<g>
	<rect x="86.279" y="88.876" fill="#EEEEEE" width="0.995" height="1"/>
</g>
<g>
	<rect x="86.279" y="90.876" fill="#EEEEEE" width="0.995" height="1"/>
</g>
<g>
	<rect x="86.279" y="92.876" fill="#EEEEEE" width="0.995" height="1"/>
</g>
<g>
	<rect x="86.279" y="94.876" fill="#EEEEEE" width="0.995" height="1"/>
</g>
<g>
	<rect x="86.279" y="96.876" fill="#EEEEEE" width="0.995" height="1"/>
</g>
<g>
	<rect x="86.279" y="98.876" fill="#EEEEEE" width="0.995" height="1"/>
</g>
<g>
	<rect x="86.279" y="100.876" fill="#EEEEEE" width="0.995" height="1"/>
</g>
<g>
	<rect x="86.279" y="102.876" fill="#EEEEEE" width="0.995" height="1"/>
</g>
<g>
	<rect x="86.279" y="104.876" fill="#EEEEEE" width="0.995" height="1"/>
</g>
<g>
	<rect x="86.279" y="106.876" fill="#EEEEEE" width="0.995" height="1"/>
</g>
<g>
	<rect x="86.279" y="108.876" fill="#EEEEEE" width="0.995" height="1"/>
</g>
<g>
	<rect x="42.299" y="0.125" fill="#EEEEEE" width="0.995" height="13.753"/>
</g>
<g>
	<rect x="42.299" y="52.877" fill="#EEEEEE" width="0.995" height="1"/>
</g>
<g>
	<rect x="42.299" y="54.877" fill="#EEEEEE" width="0.995" height="1"/>
</g>
<g>
	<rect x="42.299" y="56.877" fill="#EEEEEE" width="0.995" height="1"/>
</g>
<g>
	<rect x="42.299" y="58.877" fill="#EEEEEE" width="0.995" height="1"/>
</g>
<g>
	<rect x="42.299" y="60.877" fill="#EEEEEE" width="0.995" height="1"/>
</g>
<g>
	<rect x="42.299" y="62.877" fill="#EEEEEE" width="0.995" height="1"/>
</g>
<g>
	<rect x="42.299" y="34.877" fill="#EEEEEE" width="0.995" height="1"/>
</g>
<g>
	<rect x="42.299" y="36.877" fill="#EEEEEE" width="0.995" height="1"/>
</g>
<g>
	<rect x="42.299" y="38.877" fill="#EEEEEE" width="0.995" height="1"/>
</g>
<g>
	<rect x="42.299" y="40.877" fill="#EEEEEE" width="0.995" height="1"/>
</g>
<g>
	<rect x="42.299" y="26.877" fill="#EEEEEE" width="0.995" height="1"/>
</g>
<g>
	<rect x="42.299" y="28.877" fill="#EEEEEE" width="0.995" height="1"/>
</g>
<g>
	<rect x="42.299" y="30.877" fill="#EEEEEE" width="0.995" height="1"/>
</g>
<g>
	<rect x="42.299" y="20.877" fill="#EEEEEE" width="0.995" height="1"/>
</g>
<g>
	<rect x="42.299" y="22.877" fill="#EEEEEE" width="0.995" height="1"/>
</g>
<g>
	<rect x="42.299" y="24.877" fill="#EEEEEE" width="0.995" height="1"/>
</g>
<g>
	<rect x="42.299" y="32.877" fill="#EEEEEE" width="0.995" height="1"/>
</g>
<g>
	<rect x="42.299" y="18.877" fill="#EEEEEE" width="0.995" height="1"/>
</g>
<g>
	<rect x="42.299" y="14.877" fill="#EEEEEE" width="0.995" height="1"/>
</g>
<g>
	<rect x="42.299" y="16.877" fill="#EEEEEE" width="0.995" height="1"/>
</g>
<g>
	<rect x="42.299" y="42.877" fill="#EEEEEE" width="0.995" height="1"/>
</g>
<g>
	<rect x="42.299" y="44.877" fill="#EEEEEE" width="0.995" height="1"/>
</g>
<g>
	<rect x="42.299" y="46.877" fill="#EEEEEE" width="0.995" height="1"/>
</g>
<g>
	<rect x="42.299" y="48.877" fill="#EEEEEE" width="0.995" height="1"/>
</g>
<g>
	<rect x="42.299" y="50.877" fill="#EEEEEE" width="0.995" height="1"/>
</g>
<g>
	<rect x="34.299" y="44.877" fill="#EEEEEE" width="0.995" height="1"/>
</g>
<g>
	<rect x="32.299" y="44.877" fill="#EEEEEE" width="0.995" height="1"/>
</g>
<g>
	<rect x="30.299" y="44.877" fill="#EEEEEE" width="0.995" height="1"/>
</g>
<g>
	<rect x="28.299" y="44.877" fill="#EEEEEE" width="0.995" height="1"/>
</g>
<g>
	<rect x="26.299" y="44.877" fill="#EEEEEE" width="0.995" height="1"/>
</g>
<g>
	<rect x="24.299" y="44.877" fill="#EEEEEE" width="0.995" height="1"/>
</g>
<g>
	<rect x="22.299" y="44.877" fill="#EEEEEE" width="0.995" height="1"/>
</g>
<g>
	<rect x="20.299" y="44.877" fill="#EEEEEE" width="0.995" height="1"/>
</g>
<g>
	<rect x="18.299" y="44.877" fill="#EEEEEE" width="0.995" height="1"/>
</g>
<g>
	<rect x="16.299" y="44.877" fill="#EEEEEE" width="0.995" height="1"/>
</g>
<g>
	<rect x="14.304" y="44.877" fill="#EEEEEE" width="0.995" height="1"/>
</g>
<g>
	<rect x="12.304" y="44.877" fill="#EEEEEE" width="0.995" height="1"/>
</g>
<g>
	<rect x="10.304" y="44.877" fill="#EEEEEE" width="0.995" height="1"/>
</g>
<g>
	<rect x="8.304" y="44.877" fill="#EEEEEE" width="0.995" height="1"/>
</g>
<g>
	<rect x="6.304" y="44.877" fill="#EEEEEE" width="0.995" height="1"/>
</g>
<g>
	<rect x="4.304" y="44.877" fill="#EEEEEE" width="0.995" height="1"/>
</g>
<g>
	<rect x="82.289" y="44.877" fill="#EEEEEE" width="0.995" height="1"/>
</g>
<g>
	<rect x="84.289" y="44.877" fill="#EEEEEE" width="0.995" height="1"/>
</g>
<g>
	<rect x="80.289" y="44.877" fill="#EEEEEE" width="0.995" height="1"/>
</g>
<g>
	<rect x="78.289" y="44.877" fill="#EEEEEE" width="0.995" height="1"/>
</g>
<g>
	<rect x="76.289" y="44.877" fill="#EEEEEE" width="0.995" height="1"/>
</g>
<g>
	<rect x="74.289" y="44.877" fill="#EEEEEE" width="0.995" height="1"/>
</g>
<g>
	<rect x="72.289" y="44.877" fill="#EEEEEE" width="0.995" height="1"/>
</g>
<g>
	<rect x="70.289" y="44.877" fill="#EEEEEE" width="0.995" height="1"/>
</g>
<g>
	<rect x="68.289" y="44.877" fill="#EEEEEE" width="0.995" height="1"/>
</g>
<g>
	<rect x="66.289" y="44.877" fill="#EEEEEE" width="0.995" height="1"/>
</g>
<g>
	<rect x="64.289" y="44.877" fill="#EEEEEE" width="0.995" height="1"/>
</g>
<g>
	<rect x="62.299" y="44.877" fill="#EEEEEE" width="0.995" height="1"/>
</g>
<g>
	<rect x="60.299" y="44.877" fill="#EEEEEE" width="0.995" height="1"/>
</g>
<g>
	<rect x="58.299" y="44.877" fill="#EEEEEE" width="0.995" height="1"/>
</g>
<g>
	<rect x="116.236" y="44.877" fill="#EEEEEE" width="0.995" height="1"/>
</g>
<g>
	<rect x="118.236" y="44.877" fill="#EEEEEE" width="0.995" height="1"/>
</g>
<g>
	<rect x="114.236" y="44.877" fill="#EEEEEE" width="0.995" height="1"/>
</g>
<g>
	<rect x="112.236" y="44.877" fill="#EEEEEE" width="0.995" height="1"/>
</g>
<g>
	<rect x="110.236" y="44.877" fill="#EEEEEE" width="0.995" height="1"/>
</g>
<g>
	<rect x="108.236" y="44.877" fill="#EEEEEE" width="0.995" height="1"/>
</g>
<g>
	<rect x="106.236" y="44.877" fill="#EEEEEE" width="0.995" height="1"/>
</g>
<g>
	<rect x="104.236" y="44.877" fill="#EEEEEE" width="0.995" height="1"/>
</g>
<g>
	<rect x="102.236" y="44.877" fill="#EEEEEE" width="0.995" height="1"/>
</g>
<g>
	<rect x="100.236" y="44.877" fill="#EEEEEE" width="0.995" height="1"/>
</g>
<g>
	<rect x="98.236" y="44.877" fill="#EEEEEE" width="0.995" height="1"/>
</g>
<g>
	<rect x="96.246" y="44.877" fill="#EEEEEE" width="0.995" height="1"/>
</g>
<g>
	<rect x="94.246" y="44.877" fill="#EEEEEE" width="0.995" height="1"/>
</g>
<g>
	<rect x="92.246" y="44.877" fill="#EEEEEE" width="0.995" height="1"/>
</g>
<g>
	<rect x="90.246" y="44.877" fill="#EEEEEE" width="0.995" height="1"/>
</g>
<g>
	<rect x="88.246" y="44.877" fill="#EEEEEE" width="0.995" height="1"/>
</g>
<g>
	<rect x="132.236" y="44.877" fill="#EEEEEE" width="92.897" height="1"/>
</g>
<g>
	<rect x="130.236" y="44.877" fill="#EEEEEE" width="0.995" height="1"/>
</g>
<g>
	<rect x="128.236" y="44.877" fill="#EEEEEE" width="0.995" height="1"/>
</g>
<g>
	<rect x="126.236" y="44.877" fill="#EEEEEE" width="0.995" height="1"/>
</g>
<g>
	<rect x="124.246" y="44.877" fill="#EEEEEE" width="0.995" height="1"/>
</g>
<g>
	<rect x="122.246" y="44.877" fill="#EEEEEE" width="0.995" height="1"/>
</g>
<g>
	<rect x="120.246" y="44.877" fill="#EEEEEE" width="0.995" height="1"/>
</g>
<g>
	<rect x="56.299" y="44.877" fill="#EEEEEE" width="0.995" height="1"/>
</g>
<g>
	<rect x="54.299" y="44.877" fill="#EEEEEE" width="0.995" height="1"/>
</g>
<g>
	<rect x="52.299" y="44.877" fill="#EEEEEE" width="0.995" height="1"/>
</g>
<g>
	<rect x="50.299" y="44.877" fill="#EEEEEE" width="0.995" height="1"/>
</g>
<g>
	<rect x="48.236" y="44.877" fill="#EEEEEE" width="0.995" height="1"/>
</g>
<g>
	<rect x="46.236" y="44.877" fill="#EEEEEE" width="0.995" height="1"/>
</g>
<g>
	<rect x="44.236" y="44.877" fill="#EEEEEE" width="0.995" height="1"/>
</g>
<g>
	<rect x="36.299" y="44.877" fill="#EEEEEE" width="0.995" height="1"/>
</g>
<g>
	<rect x="38.299" y="44.877" fill="#EEEEEE" width="0.995" height="1"/>
</g>
<g>
	<rect x="40.299" y="44.877" fill="#EEEEEE" width="0.995" height="1"/>
</g>
<g>
	<rect x="222.133" y="90.876" fill="#EEEEEE" width="0.995" height="1"/>
</g>
<g>
	<rect x="220.133" y="90.876" fill="#EEEEEE" width="0.995" height="1"/>
</g>
<g>
	<rect x="182.186" y="90.877" fill="#EEEEEE" width="0.995" height="1"/>
</g>
<g>
	<rect x="218.143" y="90.876" fill="#EEEEEE" width="0.995" height="1"/>
</g>
<g>
	<rect x="216.143" y="90.876" fill="#EEEEEE" width="0.995" height="1"/>
</g>
<g>
	<rect x="214.143" y="90.876" fill="#EEEEEE" width="0.995" height="1"/>
</g>
<g>
	<rect x="212.158" y="90.876" fill="#EEEEEE" width="0.995" height="1"/>
</g>
<g>
	<rect x="210.168" y="90.876" fill="#EEEEEE" width="0.995" height="1"/>
</g>
<g>
	<rect x="208.168" y="90.876" fill="#EEEEEE" width="0.995" height="1"/>
</g>
<g>
	<rect x="206.168" y="90.876" fill="#EEEEEE" width="0.995" height="1"/>
</g>
<g>
	<rect x="204.168" y="90.876" fill="#EEEEEE" width="0.995" height="1"/>
</g>
<g>
	<rect x="202.168" y="90.876" fill="#EEEEEE" width="0.995" height="1"/>
</g>
<g>
	<rect x="200.168" y="90.876" fill="#EEEEEE" width="0.995" height="1"/>
</g>
<g>
	<rect x="192.16" y="90.876" fill="#EEEEEE" width="0.995" height="1"/>
</g>
<g>
	<rect x="198.18" y="90.876" fill="#EEEEEE" width="0.995" height="1"/>
</g>
<g>
	<rect x="196.18" y="90.876" fill="#EEEEEE" width="0.995" height="1"/>
</g>
<g>
	<rect x="194.18" y="90.876" fill="#EEEEEE" width="0.995" height="1"/>
</g>
<g>
	<rect x="190.18" y="90.876" fill="#EEEEEE" width="0.995" height="1"/>
</g>
<g>
	<rect x="188.18" y="90.876" fill="#EEEEEE" width="0.995" height="1"/>
</g>
<g>
	<rect x="186.18" y="90.876" fill="#EEEEEE" width="0.995" height="1"/>
</g>
<g>
	<rect x="184.18" y="90.876" fill="#EEEEEE" width="0.995" height="1"/>
</g>
<g>
	<rect x="180.18" y="90.876" fill="#EEEEEE" width="0.995" height="1"/>
</g>
<g>
	<rect x="172.195" y="90.877" fill="#EEEEEE" width="0.995" height="1"/>
</g>
<g>
	<rect x="126.236" y="90.876" fill="#EEEEEE" width="0.995" height="1"/>
</g>
<g>
	<rect x="176.189" y="90.876" fill="#EEEEEE" width="0.995" height="1"/>
</g>
<g>
	<rect x="174.189" y="90.876" fill="#EEEEEE" width="0.995" height="1"/>
</g>
<g>
	<rect x="170.189" y="90.876" fill="#EEEEEE" width="0.995" height="1"/>
</g>
<g>
	<rect x="168.189" y="90.876" fill="#EEEEEE" width="0.995" height="1"/>
</g>
<g>
	<rect x="130.242" y="90.877" fill="#EEEEEE" width="0.995" height="1"/>
</g>
<g>
	<rect x="166.199" y="90.876" fill="#EEEEEE" width="0.995" height="1"/>
</g>
<g>
	<rect x="164.199" y="90.876" fill="#EEEEEE" width="0.995" height="1"/>
</g>
<g>
	<rect x="162.199" y="90.876" fill="#EEEEEE" width="0.995" height="1"/>
</g>
<g>
	<rect x="160.215" y="90.876" fill="#EEEEEE" width="0.995" height="1"/>
</g>
<g>
	<rect x="158.225" y="90.876" fill="#EEEEEE" width="0.995" height="1"/>
</g>
<g>
	<rect x="156.225" y="90.876" fill="#EEEEEE" width="0.995" height="1"/>
</g>
<g>
	<rect x="154.225" y="90.876" fill="#EEEEEE" width="0.995" height="1"/>
</g>
<g>
	<rect x="152.225" y="90.876" fill="#EEEEEE" width="0.995" height="1"/>
</g>
<g>
	<rect x="150.225" y="90.876" fill="#EEEEEE" width="0.995" height="1"/>
</g>
<g>
	<rect x="148.225" y="90.876" fill="#EEEEEE" width="0.995" height="1"/>
</g>
<g>
	<rect x="140.217" y="90.876" fill="#EEEEEE" width="0.995" height="1"/>
</g>
<g>
	<rect x="146.236" y="90.876" fill="#EEEEEE" width="0.995" height="1"/>
</g>
<g>
	<rect x="144.236" y="90.876" fill="#EEEEEE" width="0.995" height="1"/>
</g>
<g>
	<rect x="142.236" y="90.876" fill="#EEEEEE" width="0.995" height="1"/>
</g>
<g>
	<rect x="138.236" y="90.876" fill="#EEEEEE" width="0.995" height="1"/>
</g>
<g>
	<rect x="136.236" y="90.876" fill="#EEEEEE" width="0.995" height="1"/>
</g>
<g>
	<rect x="134.236" y="90.876" fill="#EEEEEE" width="0.995" height="1"/>
</g>
<g>
	<rect x="132.236" y="90.876" fill="#EEEEEE" width="0.995" height="1"/>
</g>
<g>
	<rect x="128.236" y="90.876" fill="#EEEEEE" width="0.995" height="1"/>
</g>
<g>
	<rect x="102.26" y="90.876" fill="#EEEEEE" width="0.995" height="1"/>
</g>
<g>
	<rect x="106.266" y="90.876" fill="#EEEEEE" width="0.995" height="1"/>
</g>
<g>
	<rect x="124.248" y="90.876" fill="#EEEEEE" width="0.995" height="1"/>
</g>
<g>
	<rect x="116.24" y="90.876" fill="#EEEEEE" width="0.995" height="1"/>
</g>
<g>
	<rect x="122.26" y="90.876" fill="#EEEEEE" width="0.995" height="1"/>
</g>
<g>
	<rect x="120.26" y="90.876" fill="#EEEEEE" width="0.995" height="1"/>
</g>
<g>
	<rect x="118.26" y="90.876" fill="#EEEEEE" width="0.995" height="1"/>
</g>
<g>
	<rect x="114.26" y="90.876" fill="#EEEEEE" width="0.995" height="1"/>
</g>
<g>
	<rect x="112.26" y="90.876" fill="#EEEEEE" width="0.995" height="1"/>
</g>
<g>
	<rect x="110.26" y="90.876" fill="#EEEEEE" width="0.995" height="1"/>
</g>
<g>
	<rect x="108.26" y="90.876" fill="#EEEEEE" width="0.995" height="1"/>
</g>
<g>
	<rect x="104.26" y="90.876" fill="#EEEEEE" width="0.995" height="1"/>
</g>
<g>
	<rect x="96.275" y="90.876" fill="#EEEEEE" width="0.995" height="1"/>
</g>
<g>
	<rect x="100.27" y="90.876" fill="#EEEEEE" width="0.995" height="1"/>
</g>
<g>
	<rect x="98.27" y="90.876" fill="#EEEEEE" width="0.995" height="1"/>
</g>
<g>
	<rect x="94.27" y="90.876" fill="#EEEEEE" width="0.995" height="1"/>
</g>
<g>
	<rect x="92.27" y="90.876" fill="#EEEEEE" width="0.995" height="1"/>
</g>
<g>
	<rect x="90.279" y="90.876" fill="#EEEEEE" width="0.995" height="1"/>
</g>
<g>
	<rect x="88.279" y="90.876" fill="#EEEEEE" width="0.995" height="1"/>
</g>
<g>
	<rect x="84.295" y="90.876" fill="#EEEEEE" width="0.995" height="1"/>
</g>
<g>
	<rect x="82.305" y="90.876" fill="#EEEEEE" width="0.995" height="1"/>
</g>
<g>
	<rect x="80.305" y="90.876" fill="#EEEEEE" width="0.995" height="1"/>
</g>
<g>
	<rect x="78.305" y="90.876" fill="#EEEEEE" width="0.995" height="1"/>
</g>
<g>
	<rect x="76.305" y="90.876" fill="#EEEEEE" width="0.995" height="1"/>
</g>
<g>
	<rect x="74.305" y="90.876" fill="#EEEEEE" width="0.995" height="1"/>
</g>
<g>
	<rect x="72.295" y="90.876" fill="#EEEEEE" width="0.995" height="1"/>
</g>
<g>
	<rect x="70.305" y="90.876" fill="#EEEEEE" width="0.995" height="1"/>
</g>
<g>
	<rect x="68.305" y="90.876" fill="#EEEEEE" width="0.995" height="1"/>
</g>
<g>
	<rect x="66.305" y="90.876" fill="#EEEEEE" width="0.995" height="1"/>
</g>
<g>
	<rect x="64.305" y="90.876" fill="#EEEEEE" width="0.995" height="1"/>
</g>
<g>
	<rect x="62.305" y="90.876" fill="#EEEEEE" width="0.995" height="1"/>
</g>
<g>
</g>
<g>
</g>
<g>
</g>
<g>
</g>
<g>
</g>
<g>
</g>
</svg>
