<?xml version="1.0" standalone="no"?>
<!DOCTYPE svg PUBLIC "-//W3C//DTD SVG 1.1//EN" "http://www.w3.org/Graphics/SVG/1.1/DTD/svg11.dtd">
<svg xmlns="http://www.w3.org/2000/svg">
<metadata>Generated by Fontastic.me</metadata>
<defs>
<font id="sistemas-universitarios" horiz-adv-x="512">
<font-face font-family="sistemas-universitarios" units-per-em="512" ascent="480" descent="-32"/>
<missing-glyph horiz-adv-x="512" />

<glyph glyph-name="paperclip" unicode="&#97;" d="M119 0c-26 0-51 10-71 29-38 39-38 102 0 140l160 160c13 14 31 21 50 21 19 0 37-7 50-21 27-27 27-72 0-100l-127-127c-5-5-13-5-18 0-5 5-5 13 0 18l127 127c18 18 18 47 0 64-8 9-20 14-32 14-12 0-23-5-32-14l-160-159c-29-29-29-76 0-105 29-29 76-29 105 0l267 267c39 39 39 104 0 143-19 19-45 30-72 30-27 0-52-11-72-30l-249-249c-5-5-13-5-18 0-5 5-5 13 0 18l250 249c24 24 55 37 89 37 34 0 66-13 90-37 49-49 49-130 0-179l-267-267c-20-19-45-29-70-29z"/>
<glyph glyph-name="abc" unicode="&#98;" d="M98 106l20 58 23-58z m143 127l0-216c0-7-5-13-12-13l-216 0c-7 0-13 6-13 13l0 216c0 7 6 13 13 13l216 0c7 0 12-6 12-13z m-52-180l-60 153c-2 5-7 8-12 8-5 0-10-4-12-9l-53-152c-2-7 2-14 8-16 2-1 3-1 4-1 6 0 11 3 12 8l13 37 62 0 14-37c3-7 10-10 17-7 6 2 9 10 7 16z m182 442l0-216c0-7-6-13-13-13l-216 0c-7 0-13 6-13 13l0 216c0 7 6 13 13 13l216 0c7 0 13-6 13-13z m-64-60c0 24-19 43-43 43l-28 0c-24 0-43-19-43-43l0-96c0-24 19-43 43-43l28 0c24 0 43 19 43 43l0 0c0 7-5 13-12 13-7 0-13-6-13-13l0 0c0-10-8-18-18-18l-28 0c-10 0-18 8-18 18l0 96c0 10 8 18 18 18l28 0c10 0 18-8 18-18l0-7c0-7 6-13 13-13 7 0 12 6 12 13z m94-284l0 17c0 9-8 16-17 16l-27 0c0-15-1-32-1-49l28 0c9 0 17 7 17 16z m8-41l-53 0c0-20 0-38 0-49l53 0c10 0 17 7 17 16l0 17c0 9-7 16-17 16z m103 123l0-216c0-7-6-13-13-13l-216 0c-7 0-12 6-12 13l0 216c0 7 5 13 12 13l216 0c7 0 13-6 13-13z m-60-139c0 18-13 34-30 39 3 6 4 12 4 18l0 17c0 23-19 41-42 41l-40 0c-7 0-13-5-13-12-1-150 0-151 2-155 2-4 6-6 11-6l65 0c24 0 43 18 43 41l0 17z"/>
<glyph glyph-name="alarm" unicode="&#99;" d="M493 423c-3 21-12 40-28 55l11 14c4 5 3 13-3 18-6 4-13 2-18-3l-10-14c-14 8-30 13-47 13-31 0-59-14-78-39-2-3-3-6-2-9 0-4 2-7 5-9l58-43-10-14c-33 23-72 36-115 36-43 0-83-14-115-37l-11 14 59 44c3 2 5 5 5 9 1 3 0 6-2 9-19 25-47 39-78 39-17 0-33-5-47-13l-10 14c-4 5-12 7-18 3-6-5-7-12-3-18l10-14c-15-15-24-34-27-55-4-26 3-51 18-72 3-3 6-5 10-5 3 0 6 1 8 2l55 42 11-14c-41-37-67-91-67-150 0-63 30-120 76-157l-20-52c-3-6 1-14 7-16 2-1 3-1 5-1 5 0 10 3 11 8l18 46c31-18 67-29 105-29 38 0 74 11 105 29l18-46c1-5 6-8 11-8 2 0 3 0 5 1 6 2 10 10 7 16l-20 52c46 37 76 94 76 157 0 60-26 113-67 150l10 15 56-43c2-1 5-2 8-2 4 0 7 2 10 5 15 21 22 46 18 72z m-238-47c83 0 150-67 150-150 0-82-67-150-150-150-82 0-150 68-150 150 0 83 68 150 150 150z m-12-150l0 104c0 7 5 13 12 13 7 0 13-6 13-13l0-91 62 0c7 0 13-6 13-13 0-7-6-12-13-12l-75 0c-7 0-12 5-12 12z"/>
<glyph glyph-name="apple" unicode="&#100;" d="M476 24l-6 0 0 95 6 0c6 0 12 6 12 12 0 7-6 13-12 13l-110 0c25 19 45 48 55 84 10 35 9 72-4 103-13 32-36 54-66 63-8 2-16 3-24 3-16 0-33-4-48-12 4 15 12 35 28 54 5 5 4 13-1 17-5 4-13 4-17-1-8-10-15-20-20-29l-11 10c2 13 2 43-24 62-13 9-30 14-49 14-13 0-23-3-24-3-6-1-9-7-9-13 0-1 4-41 33-62 16-12 34-15 46-15 4 0 7 0 9 0l19-17c-3-8-5-15-6-21-18 10-37 16-56 16-8 0-17-1-25-3-29-9-52-31-65-63-13-31-14-68-4-103 10-36 30-65 54-84l-61 0c-40 0-72-33-72-72 0-40 32-72 72-72l380 0c6 0 12 5 12 12 0 7-6 12-12 12z m-380 0c-26 0-47 22-47 48 0 26 21 47 47 47l349 0 0-95z"/>
<glyph glyph-name="astronomy" unicode="&#101;" d="M488 149c-9 18-21 36-34 55 2 11 3 22 3 34 0 91-74 166-166 166-11 0-22-1-33-4-53 37-102 58-135 58-16 0-29-4-38-14-22-21-18-62 10-117 9-18 21-37 34-56-3-11-4-22-4-33 0-92 75-166 166-166 12 0 23 1 34 3 53-36 101-58 135-58 0 0 0 0 0 0 16 0 29 5 38 14 22 22 18 62-10 118z m-370 189c-22 42-27 76-15 88 4 4 11 7 20 7 25 0 62-16 103-43-39-16-71-48-87-87-8 12-15 24-21 35z m362-289c-4-4-11-6-20-6-25 0-62 15-104 42 40 17 71 48 88 88 8-12 15-24 21-36 21-42 27-76 15-88z m-391 4c0-25-20-44-45-44-24 0-44 19-44 44 0 24 20 44 44 44 25 0 45-20 45-44z m326 418c0 18 14 32 32 32 18 0 33-14 33-32 0-18-15-33-33-33-18 0-32 15-32 33z"/>
<glyph glyph-name="atom" unicode="&#102;" d="M436 256c4 4 8 8 12 13 37 40 50 76 36 103-7 15-27 33-78 33-19 0-40-2-63-7-3 12-7 24-11 35-19 51-46 79-76 79-30 0-57-28-76-79-4-11-8-23-11-35-23 5-44 7-63 7-51 0-71-18-78-33-14-27-1-63 36-103 4-5 8-9 12-13-4-4-8-8-12-13-37-40-50-76-36-103 7-15 27-33 78-33 19 0 40 2 63 7 3-12 7-24 11-35 19-51 46-79 76-79 30 0 57 28 76 79 4 11 8 23 11 35 23-5 44-7 63-7 0 0 0 0 0 0 51 0 71 18 78 33 14 27 1 63-36 103-4 5-8 9-12 13z m-30 127c31 0 51-8 58-21 9-18-3-46-32-78-4-4-8-9-13-13-18 16-39 32-62 47-2 20-5 39-9 58 21 4 41 7 58 7z m-113-199c-12-6-25-12-37-17-12 5-25 11-37 17-14 7-29 15-42 23-1 16-2 32-2 49 0 17 1 33 2 49 13 8 28 16 42 23 13 6 25 12 37 17 12-5 25-11 37-17 14-7 29-15 42-23 1-16 2-32 2-49 0-17-1-33-2-49-13-8-28-16-42-23z m39-4c-1-14-3-26-6-38-13 3-27 8-41 13 6 3 12 6 18 9 10 5 20 10 29 16z m-105-25c-14-5-28-10-41-13-3 12-5 24-6 38 9-6 19-11 29-16 6-3 12-6 18-9z m-74 67c-16 11-31 23-44 34 13 11 28 23 44 34 0-12-1-23-1-34 0-11 1-22 1-34z m27 110c1 14 3 26 6 38 13-3 27-8 41-13-6-3-12-6-18-9-10-5-20-10-29-16z m105 25c14 5 28 10 41 13 3-12 5-24 6-38-9 6-19 11-29 16-6 3-12 6-18 9z m74-67c16-11 31-23 44-34-13-11-28-23-44-34 0 12 1 23 1 34 0 11-1 22-1 34z m-103 199c24 0 49-36 65-97-21-5-43-13-65-22-22 9-44 17-65 22 16 61 41 97 65 97z m-176-205c-29 32-41 60-32 78 7 13 27 21 58 21 17 0 37-3 58-7-4-19-7-38-9-58-23-15-44-31-62-47-5 4-9 9-13 13z m26-155c-31 0-51 8-58 21-9 18 3 46 32 78 4 4 8 9 13 13 18-16 39-32 62-47 2-20 5-39 9-58-21-4-41-7-58-7z m150-106c-24 0-49 36-65 97 21 5 43 13 65 22 22-9 44-17 65-22-16-61-41-97-65-97z m208 127c-7-13-27-21-58-21 0 0 0 0 0 0-17 0-37 3-58 7 4 19 7 38 9 58 23 15 44 31 62 47 5-4 9-9 13-13 29-32 41-60 32-78z m-158 106c0-27-23-50-50-50-27 0-49 23-49 50 0 27 22 49 49 49 27 0 50-22 50-49z"/>
<glyph glyph-name="badge" unicode="&#103;" d="M234 366c0 17 10 31 22 31 12 0 22-14 22-31 0-17-10-32-22-32-12 0-22 15-22 32z m192 93l0-447c0-7-5-12-12-12l-316 0c-7 0-12 5-12 12l0 447c0 6 5 12 12 12l27 0 0 29c0 7 6 12 13 12 6 0 12-5 12-12l0-29 212 0 0 29c0 7 6 12 12 12 7 0 13-5 13-12l0-29 27 0c7 0 12-6 12-12z m-249-209c0-6 5-12 12-12l134 0c7 0 12 6 12 12l0 50c0 21-17 39-38 39 4 8 6 17 6 27 0 30-21 55-47 55-26 0-47-25-47-55 0-10 2-19 6-27-21 0-38-18-38-39z m192-180c0 7-6 12-12 12l-202 0c-6 0-12-5-12-12 0-7 6-12 12-12l202 0c6 0 12 5 12 12z m-191 42l156 0c6 0 12 5 12 12 0 7-6 12-12 12l-156 0c-6 0-12-5-12-12 0-7 6-12 12-12z m205 66c0 7-6 12-13 12l-228 0c-7 0-13-5-13-12 0-7 6-12 13-12l228 0c7 0 13 5 13 12z"/>
<glyph glyph-name="bag" unicode="&#105;" d="M385 181l0-93c0-8-7-14-14-14l-230 0c-7 0-14 6-14 14l0 93c0 8 7 14 14 14l230 0c7 0 14-6 14-14z m123-1l0-94c0-20-17-36-37-36l-21 0c-3-28-26-50-55-50l-278 0c-29 0-52 22-55 50l-21 0c-20 0-37 16-37 36l0 94c0 20 17 37 37 37l21 0 0 164c0 30 25 54 55 54l65 0 0 12c0 36 29 65 65 65l18 0c36 0 65-29 65-65l0-12 65 0c30 0 55-24 55-54l0-164 21 0c20 0 37-17 37-37z m-303 255l102 0 0 12c0 23-19 41-42 41l-18 0c-23 0-42-18-42-41l0-12z m204-254c0 21-17 38-38 38l-230 0c-21 0-38-17-38-38l0-93c0-21 17-38 38-38l230 0c21 0 38 17 38 38l0 93z m0 174c0 23-19 42-42 42l-222 0c-23 0-42-19-42-42l0-40c0-7 6-12 12-12 7 0 12 5 12 12l0 40c0 10 8 18 18 18l222 0c10 0 18-8 18-18l0-35c0-6 5-12 12-12 6 0 12 6 12 12z"/>
<glyph glyph-name="balance" unicode="&#107;" d="M509 262l-75 169c0 0 0 0 0 0l0 0c0 0-1 1-1 1 0 1 0 1 0 1-1 0-1 1-1 1 0 0 0 0-1 0 0 1 0 1-1 1 0 0 0 1 0 1-1 0-1 0-2 1 0 0 0 0 0 0-1 0-1 0-2 0 0 0 0 0 0 0-1 0-2 1-2 1l-134 0c-2 7-6 13-12 17l0 17c0 6-5 11-11 11l-22 0c-6 0-11-5-11-11l0-17c-6-5-10-11-12-17l-134 0c0 0-1-1-2-1 0 0 0 0 0 0-1 0-1 0-2 0 0 0 0 0 0 0-1-1-1-1-2-1 0 0 0-1 0-1-1 0-1 0-2-1 0 0 0 0 0 0 0 0-1-1-1-1 0 0 0 0 0-1-1 0-1-1-1-1l0 0c0 0 0 0 0 0l-76-169c-1-2-2-4-2-7 0-48 40-88 88-88 49 0 88 40 88 88 0 3 0 5-2 7l-68 153 116 0c2-7 6-13 12-17l0-286-101 0c-4 0-8-2-10-6l-32-60c-1-4-1-8 1-12 2-3 6-5 10-5l308 0c0 0 0 0 0 0 7 0 12 5 12 11 0 3-1 5-2 6l-31 60c-2 4-6 6-10 6l-101 0 0 286c5 4 10 10 12 17l116 0-69-155c-1 0-1 0-1 0 0 0 0 0 0-1 0 0 0-1 0-1 0 0 0 0 0-1 0 0 0-1 0-2 0 0 0 0 0 0 0-48 39-88 88-88 48 0 88 40 88 88 0 3-1 5-3 7z m-362 5l-118 0 59 131z m122 159c0-7-6-13-13-13-7 0-13 6-13 13 0 8 6 14 13 14 7 0 13-6 13-14z m95-159l60 131 59-131z"/>
<glyph glyph-name="basketball" unicode="&#108;" d="M478 512l-40 0c-7 0-13-6-13-14l0-274-391 0c-8 0-14-6-14-14l0-32c0-8 6-14 14-14l8 0 48-154c2-6 7-10 13-10 1 0 2 0 4 1 7 2 11 9 9 17l-10 30 33 0 4-36c1-7 7-12 14-12 0 0 1 0 1 0 8 1 13 8 12 15l-4 33 47 0-4-33c-1-7 5-14 12-15 1 0 1 0 2 0 6 0 12 5 13 12l4 36 33 0-9-30c-3-8 1-15 9-17 1-1 2-1 4-1 5 0 11 4 12 10l48 154 7 0c8 0 14 6 14 14l0 19 67 0 0-43c0-8 6-14 13-14l40 0c8 0 14 6 14 14l0 344c0 8-6 14-14 14z m-252-348l-3-30-67 0-3 30z m-100 0l3-30-49 0-10 30z m-38-57l44 0 4-32-38 0z m71 0l61 0-4-32-53 0z m88 0l44 0-10-32-38 0z m53 27l-50 0 4 30 55 0z"/>
<glyph glyph-name="writing" unicode="&#110;" d="M423 75l0-18c0-7-6-12-12-12l-269 0c0 0-1 0-2 0l-59 9c-6 1-10 6-10 12 0 6 4 11 10 12l59 9c1 0 2 0 2 0 0 0 0 0 0 0l269 0c6 0 12-5 12-12z m-179 65l-232 0c-7 0-12 6-12 12l0 303c0 7 5 12 12 12l232 0z m-197 261c0-7 5-12 12-12l132 0c7 0 12 5 12 12 0 7-5 12-12 12l-132 0c-7 0-12-5-12-12z m156-108c0 7-5 12-12 12l-132 0c-7 0-12-5-12-12 0-7 5-12 12-12l132 0c7 0 12 5 12 12z m0 54c0 7-5 12-12 12l-132 0c-7 0-12-5-12-12 0-7 5-12 12-12l132 0c7 0 12 5 12 12z m297 120l-232 0 0-327 232 0c7 0 12 6 12 12l0 303c0 7-5 12-12 12z"/>
<glyph glyph-name="whistle" unicode="&#111;" d="M472 181c15 24 24 53 24 83 1 80-60 148-140 158-4 0-8-1-10-3-3-3-5-6-5-10l0-12-80 0 0 13c0 8-6 13-13 13l-235 0c-7 0-13-5-13-13l0-74c0-7 6-13 13-13l108 0c33 0 59-26 59-59l0-2c2-83 68-151 151-155 3 0 5 0 7 0 0 0 0 0 0 0 30 0 58 8 81 23 3-23 23-41 46-41 26 0 47 21 47 46 0 24-17 43-40 46z m-7-67c-11 0-20 10-20 21 0 12 9 21 20 21 12 0 21-9 21-21 0-11-9-21-21-21z"/>
<glyph glyph-name="test-tube" unicode="&#114;" d="M500 115l-12 0 0 326c0 7-5 12-12 12-6 0-11-5-11-12l0-107-29 0 0 14 0 0c7 0 12 5 12 11 0 7-5 12-12 12l-1 0 0 31c0 6-5 11-11 11l-61 0c-6 0-12-5-12-11l0-31-1 0c-6 0-11-5-11-12 0-6 5-11 11-11l1 0 0-14-51 0c0 0-1 0-1 0l0 14 1 0c6 0 11 5 11 11 0 7-5 12-11 12l-1 0 0 31c0 6-5 11-12 11l-61 0c-6 0-11-5-11-11l0-31-1 0c-7 0-12-5-12-12 0-6 5-11 12-11l0 0 0-14-51 0c0 0 0 0 0 0l0 14 0 0c7 0 12 5 12 11 0 7-5 12-12 12l-1 0 0 31c0 6-5 11-11 11l-61 0c-7 0-12-5-12-11l0-31-1 0c-6 0-11-5-11-12 0-6 5-11 11-11l1 0 0-14-32 0 0 107c0 7-5 12-11 12-7 0-12-5-12-12l0-118c0 0 0 0 0 0 0 0 0 0 0 0l0-208-11 0c-7 0-12-5-12-11l0-33c0-7 5-12 12-12l488 0c7 0 12 5 12 12l0 33c0 6-5 11-12 11z m-87 233l0-40-39 0 0 40z m-137 0l0-40-38 0 0 40z m-137 0l0-40-38 0 0 40z m-93-233l0 196 32 0 0-118c0-20 16-36 35-36l14 0c20 0 36 16 36 36l0 118c0 0 0 0 0 0l51 0 0-118c0-20 16-36 36-36l14 0c19 0 35 16 35 36l0 118c0 0 1 0 1 0l51 0 0-118c0-20 16-36 35-36l14 0c20 0 36 16 36 36l0 118 29 0 0-196-419 0z"/>
<glyph glyph-name="time-1" unicode="&#115;" d="M440 450c7 0 12 6 12 13l0 36c0 7-5 13-12 13l-368 0c-7 0-12-6-12-13l0-36c0-7 5-13 12-13l37 0 112-193-113-195-36 0c-7 0-12-6-12-13l0-36c0-7 5-13 12-13l368 0c7 0 12 6 12 13l0 36c0 7-5 13-12 13l-39 0-113 195 112 193z m-198-209l0-73-43 0z m68-73l-43 0 0 73z m-12 157l-87 0-72 125 231 0z"/>
<glyph glyph-name="hanoi" unicode="&#119;" d="M500 53l-232 0 0 9 135 0c23 0 41 19 41 41 0 23-18 41-41 41l-135 0 0 9 104 0c22 0 41 18 41 41 0 22-19 40-41 40l-104 0 0 9 71 0c23 0 41 19 41 41 0 23-18 41-41 41l-71 0 0 9 40 0c23 0 41 18 41 41 0 22-18 40-41 40l-40 0 0 11c15 6 26 20 26 37l0 5c0 21-17 38-38 38-21 0-38-17-38-38l0-5c0-17 11-31 26-37l0-11-40 0c-23 0-41-18-41-40 0-23 18-41 41-41l40 0 0-9-71 0c-23 0-41-18-41-41 0-22 18-41 41-41l71 0 0-9-104 0c-22 0-41-18-41-40 0-23 19-41 41-41l104 0 0-9-135 0c-23 0-41-18-41-41 0-22 18-41 41-41l135 0 0-9-232 0c-7 0-12-5-12-12l0-23c0-7 5-12 12-12l488 0c7 0 12 5 12 12l0 23c0 7-5 12-12 12z"/>
<glyph glyph-name="transport" unicode="&#120;" d="M142 174c0-17-14-32-32-32-17 0-31 15-31 32 0 17 14 31 31 31 18 0 32-14 32-31z m275 31c-17 0-31-14-31-31 0-17 14-32 31-32 18 0 32 15 32 32 0 17-14 31-32 31z m64 84l-102 14-33 49c-7 11-20 18-33 18l-175 0c-18 0-34-11-40-28l-16-45-52-6c-18-2-32-19-30-37l7-81c1-6 6-11 12-11l38 0c-1 4-1 8-1 12 0 30 24 54 54 54 30 0 55-24 55-54 0-4-1-8-1-12l200 0c-1 4-1 8-1 12 0 30 24 54 54 54 30 0 55-24 55-54 0-3 0-6-1-8l25 1c6 0 10 5 11 11l5 73c1 19-12 36-31 38z"/>
<glyph glyph-name="transport-1" unicode="&#121;" d="M448 392l-317 0c-17 0-31-13-32-29l-6-72-61-5c-6-1-10-6-10-12l0-65-10 0c-7 0-12-5-12-12l0-33c0-7 5-12 12-12l43 0c5-17 21-30 39-30 19 0 35 13 40 30l230 0c6-18 22-32 42-32 20 0 37 14 42 32l52 0c7 0 12 5 12 12l0 163c0 36-29 65-64 65z m27-67l0-27-77 0 0 56 49 0c15 0 28-13 28-29z m-252 29l23 0 0-178-23 0z m46 0l23 0 0-178-23 0z m106-56l-58 0 0 56 58 0z m-234 56l56 0 0-56-66 0 2 45c0 6 3 11 8 11z m-47-209c-10 0-18 9-18 19 0 10 8 18 18 18 10 0 19-8 19-18 0-10-9-19-19-19z m312-1c-11 0-20 9-20 20 0 11 9 20 20 20 11 0 20-9 20-20 0-11-9-20-20-20z"/>
<glyph glyph-name="tribune" unicode="&#122;" d="M358 331l0-331-204 0 0 331z m114 73c-2 3-6 5-10 5l-84 0c-1 14-6 35-24 62 2 4 4 9 4 14 0 15-12 27-27 27-15 0-28-12-28-27 0-15 13-27 28-27 0 0 1 0 2 0 15-22 19-39 20-49l-84 0 0 30c8 4 14 13 14 24 0 15-12 27-27 27-15 0-27-12-27-27 0-11 6-20 14-24l0-30-84 0c1 10 5 27 20 49 1 0 1 0 2 0 15 0 27 12 27 27 0 15-12 27-27 27-15 0-28-12-28-27 0-6 2-10 5-15-18-26-23-48-24-61l-84 0c-4 0-8-2-10-5-3-3-4-7-3-11l29-135c1-6 6-10 12-10l51 0 0 95c0 7 5 13 12 13l230 0c7 0 12-6 12-13l0-95 51 0c6 0 11 4 12 10l29 135c1 4 0 8-3 11z"/>
<glyph glyph-name="uniforms" unicode="&#65;" d="M460 264c-1 1-35 32-43 76-8 45 12 132 12 133 1 6-3 13-9 15l-104 24c-6 1-12-2-14-8l-46-128-46 128c-2 6-8 9-14 8l-104-24c-6-2-10-9-9-15 0-1 20-88 12-133-8-43-42-75-43-76-2-2-4-5-4-9l0-193c0-4 3-8 7-11l91-49c2-1 4-2 6-2 2 0 4 0 5 1l99 48 99-48c1-1 3-1 5-1 2 0 4 1 6 2l91 49c4 3 7 7 7 11l0 193c0 4-2 7-4 9z m-87 74l0-40c0-10-4-18-12-25l-22-18-22 18c-8 7-12 15-12 25l0 40 34 8z"/>
<glyph glyph-name="usb" unicode="&#66;" d="M498 377l-56-57c-3-2-6-4-9-4-3 0-6 2-8 4l-105 105c-5 4-5 12 0 17l57 56c8 9 20 14 33 14 12 0 24-5 32-14l56-56c18-18 18-47 0-65z m-108-84l-67-67 4-4c4-5 4-12 0-17l-183-182-9-9c-8-9-20-14-33-14-12 0-24 5-32 14l-56 56c-19 18-19 47 0 65l42 43c0 0 0 0 0 0l149 149c5 4 12 4 17 0l4-5 67 67c5 5 13 5 17 0l80-79c5-5 5-13 0-17z m-271-262l-88 88 0-1c-4-4-7-10-7-16 0-5 3-11 7-15l56-56c4-4 10-7 15-7 6 0 12 3 16 7z m245 270l-62 62-58-58 62-62z"/>
<glyph glyph-name="video-camera" unicode="&#68;" d="M184 338c0-34-28-62-62-62-34 0-61 28-61 62 0 4 0 8 1 12 4-4 10-6 17-6 15 0 28 12 28 28 0 9-5 17-11 22 8 3 17 6 26 6 34 0 62-28 62-62z m280 70l-188 0c-7 0-12-5-12-12l0-177c0-6 5-12 12-12l188 0c27 0 48 22 48 48l0 105c0 27-21 48-48 48z m-219-26l0-252c0-52-42-94-94-94l-57 0c-52 0-94 42-94 94l0 252c0 52 42 94 94 94l57 0c52 0 94-42 94-94z m-95-219c0 16-12 28-28 28-15 0-28-12-28-28 0-15 13-28 28-28 16 0 28 13 28 28z m58 175c0 47-38 86-86 86-47 0-86-39-86-86 0-48 39-86 86-86 48 0 86 38 86 86z"/>
<glyph glyph-name="tube-lab" unicode="&#69;" d="M512 392c0 4-1 7-4 9l-107 107c-2 3-5 4-9 4-3 0-7-1-9-4l-65-65-13 13c-6 5-14 5-19 0-5-5-5-14 0-19l12-12-101-101-171-171c-35-35-35-92 0-127 17-17 40-26 64-26 24 0 46 9 63 26l171 171 101 101 12-12c3-2 6-4 10-4 3 0 6 2 9 4 5 5 5 14 0 19l-13 13 65 65c3 2 4 6 4 9z m-197-167l-90 90 92 92 90-90z"/>
<glyph glyph-name="telescopes" unicode="&#70;" d="M290 273c-8-4-17-7-26-7-12 0-22 4-31 10l-96-259c-2-7 1-14 7-16 2-1 3-1 5-1 5 0 9 3 11 8l54 145 36 0 0-141c0-6 5-12 12-12 7 0 12 6 12 12l0 141 29 0 47-144c2-6 7-9 12-9 1 0 2 0 4 1 6 2 10 9 8 15z m-40-95l-27 0 27 72z m24 0l0 63 21-63z m211 226c-1-3-4-6-7-7l-161-81c0 1 0 2 0 3 0 30-24 53-53 53-30 0-53-23-53-53 0-8 1-15 5-22l-106-53c-2-1-4-1-5-1-5 0-9 2-12 6l-5 10-43-22c-2-1-4-1-6-1-4 0-9 3-11 7-3 6-1 14 6 17l43 21-5 10c-1 3-1 7 0 10 1 3 3 5 6 7l132 66-6 14c-2 3-2 6-1 9 1 3 3 6 6 8l212 106c7 3 14 0 17-6l46-91c1-3 2-7 1-10z m-193-85c0-15-13-28-28-28-16 0-29 13-29 28 0 16 13 29 29 29 15 0 28-13 28-29z"/>
<glyph glyph-name="tablet" unicode="&#71;" d="M435 512l-358 0c-13 0-24-11-24-25l0-462c0-14 11-25 24-25l358 0c13 0 24 11 24 25l0 462c0 14-11 25-24 25z m-16-46l0-376-326 0 0 376z m-163-434c-9 0-15 7-15 15 0 9 6 16 15 16 9 0 15-7 15-16 0-8-6-15-15-15z m-135 301l0 93c0 7 6 13 12 13l247 0c6 0 12-6 12-13l0-93c0-7-6-12-12-12l-247 0c-6 0-12 5-12 12z m0-47c0 7 6 13 12 13l233 0c6 0 12-6 12-13 0-6-6-12-12-12l-233 0c-6 0-12 6-12 12z m0-54c0 7 6 12 12 12l163 0c7 0 12-5 12-12 0-7-5-12-12-12l-163 0c-6 0-12 5-12 12z m0-54c0 6 6 12 12 12l207 0c7 0 12-6 12-12 0-7-5-13-12-13l-207 0c-6 0-12 6-12 13z m0-55c0 7 6 12 12 12l207 0c7 0 12-5 12-12 0-7-5-12-12-12l-207 0c-6 0-12 5-12 12z"/>
<glyph glyph-name="tablet-video" unicode="&#72;" d="M435 512l-358 0c-13 0-24-11-24-25l0-462c0-14 11-25 24-25l358 0c13 0 24 11 24 25l0 462c0 14-11 25-24 25z m-16-46l0-376-326 0 0 376z m-163-434c-9 0-15 7-15 15 0 9 6 16 15 16 9 0 15-7 15-16 0-8-6-15-15-15z m0 350c-57 0-103-46-103-102 0-57 46-103 103-103 57 0 103 46 103 103 0 56-46 102-103 102z m42-113l-58-34c-2-1-4-2-6-2-3 0-5 1-7 2-3 2-6 6-6 11l0 67c0 5 3 9 6 11 4 2 9 2 13 0l58-34c4-2 6-6 6-10 0-5-2-9-6-11z"/>
<glyph glyph-name="swimming-pool" unicode="&#74;" d="M4 245c-5 5-5 12-1 18 4 5 12 5 17 1l41-36c18-16 47-16 65 0l27 23c12 11 27 17 42 18l24 30-132 71c-9 5-14 15-11 25 2 10 11 17 21 17 3 0 6-1 9-2l164-70c2 0 3-1 4-3l48-50 43-41 4 3c27 23 70 23 97 0l42-34c5-5 6-12 1-17-4-6-12-6-17-2l-42 34c0 0 0 0 0 1-18 15-47 15-65 0l-12-11c-1-1-4-3-7-6l-6-6c-6-4-11-8-17-11-3-1-5-2-8-3-8-3-16-4-24-4 0 0 0 0 0 0-11 0-23 3-34 8-4 2-7 5-11 7-6 4-11 9-17 15l-14 12c-9 7-16 10-22 11-3 1-7 2-10 2-2 0-3 0-4 0-11-1-22-5-30-12l-27-23c-27-24-70-24-97 0z m462-86c-27 23-70 23-97 0l-26-22c-18-16-47-16-65 0l-28 24c-27 24-70 24-97 0l-27-23c-18-16-47-16-65 0l-41 36c-5 4-13 4-17-1-4-6-4-13 1-18l41-35c27-24 70-24 97 0l27 23c18 16 47 16 65 0l28-25c14-12 31-18 49-18 18 0 35 6 49 18l25 22c18 16 47 16 65 0 0 0 0 0 0 0l42-34c5-4 13-4 17 1 5 6 4 13-1 18z m-111 139c30 0 54 24 54 54 0 30-24 54-54 54-30 0-54-24-54-54 0-30 24-54 54-54z"/>
<glyph glyph-name="study" unicode="&#76;" d="M512 262c0-6-5-11-12-11l-38 0 0-202c0-7-5-12-12-12l-135 0c-6 0-12 5-12 12l0 202-84 0c-6 0-11 5-11 11 0 3 1 5 2 7l-36 31c0 0-1 0-1 1 0 0-1 0-2 0 0 0-2 0-3-2 0 0 0 0 0 0l-29-76c-1-3-1-7 1-9 2-3 5-5 8-5l53 0c17 0 32-12 35-29l19-115c1-8-1-16-6-21-5-6-12-9-20-9-13 0-23 9-25 21l-17 87c-1 6-6 10-11 10l-35 0 0-104c0-7-5-12-11-12l-100 0c-6 0-12 5-12 12l0 107-18 139c-1 6 4 12 10 13 7 1 12-4 13-10l16-124 20 0c-1 4-2 8-2 13 0 4 0 7 2 11l49 139c4 14 15 24 28 29-13 12-22 29-22 48 0 35 28 63 63 63 34 0 62-28 62-63 0-26-17-49-41-58l45-39 62-5c1 0 2 0 3-1 9-3 16-13 16-23 0-5-2-10-5-14l33 0c-4 2-7 6-7 11 0 6 5 11 11 11l84 0 22 82c2 6 8 9 14 8 6-2 10-8 8-15l-24-89c-1-4-4-7-7-8l47 0c7 0 12-5 12-12z"/>
<glyph glyph-name="violin" unicode="&#77;" d="M99 243l-55-55c-2-2-6-4-9-4-3 0-6 2-8 4l-10 10c-5 4-5 12 0 17l55 55c3 2 6 3 9 3 1 0 3 0 4 0l236 235c4 5 12 5 17 0 4-4 4-12 0-17l-236-235c0-2 1-3 1-4 0-3-2-7-4-9z m396 99c-2-2-6-4-9-4-3 0-6 2-8 4l-8 8-4-5 8-7c4-5 4-12 0-17-3-3-6-4-9-4-3 0-6 1-8 4l-6 6-5-6c-3-2-6-4-9-4 0 0 0 0-1 0-1 0-3 0-5 1l-76-76c23-34 22-79-5-106l-7-7c-4-4-10-5-14-3-7 4-15 5-22 5-11 0-22-3-29-11-12-12-14-32-6-50 2-5 2-10-2-14l-26-25c0-1 0-1 0-1 1-2 1-5 1-8-1-3-3-6-5-7-1-1-22-15-52-15 0 0 0 0 0 0-5 0-10 0-15 1-38 6-59 31-60 32-3 4-3 10 0 15-27 35-27 83 2 112l25 26c4 3 9 4 14 2 7-3 15-5 22-5 11 0 21 4 28 11 13 13 15 32 6 51-2 4-1 10 3 13l7 8c14 14 33 21 54 21 19 0 37-5 53-16l75 76c-1 2-1 4-1 6 0 3 2 6 4 9l6 5-6 6c-5 4-5 12 0 17 5 4 12 4 17 0l7-8 5 4-8 8c-5 4-5 12 0 17 5 5 12 5 17 0l9-9 6 4c4 5 12 4 16 0l16-16c4-4 5-12 1-16l-5-6 9-9c5-5 5-12 0-17z m-318-317c3-1 7-1 11-1 10 0 18 2 25 4-8 7-20 16-34 18-3 0-5 0-7 0-12 0-22-4-29-7 7-6 19-12 34-14z"/>
<glyph glyph-name="storage" unicode="&#78;" d="M460 428l-80 80c-3 3-6 4-9 4l-310 0c-7 0-13-6-13-13l0-146c0-7 6-13 13-13l17 0 0-36-17 0c-7 0-13-6-13-13l0-278c0-7 6-13 13-13l390 0c7 0 13 6 13 13l0 406c0 3-1 6-4 9z m-64-185l0-169-280 0 0 169z m-74 239l42 0 0-67-42 0z m-61 0l42 0 0-67-42 0z m-61 0l42 0 0-67-42 0z m-61 0l42 0 0-67-42 0z m-60 0l41 0 0-67-41 0z m68-290c0 7 6 13 13 13l183 0c7 0 13-6 13-13 0-7-6-13-13-13l-183 0c-7 0-13 6-13 13z m0-65c0 7 6 12 13 12l131 0c7 0 12-5 12-12 0-7-5-13-12-13l-131 0c-7 0-13 6-13 13z"/>
<glyph glyph-name="stats" unicode="&#79;" d="M500 96l-47 0 0 286c0 6-5 12-12 12l-87 0c-6 0-12-6-12-12l0-286-30 0 0 332c0 7-6 12-12 12l-88 0c-6 0-11-5-11-12l0-332-27 0 0 187c0 6-6 11-12 11l-88 0c-6 0-11-5-11-11l0-187-51 0c-7 0-12-6-12-12 0-7 5-12 12-12l488 0c7 0 12 5 12 12 0 6-5 12-12 12z m-134 274l64 0 0-34-64 0z m-78 46l0-32-64 0 0 32z m-138-145l0-28-64 0 0 28z"/>
<glyph glyph-name="stars" unicode="&#80;" d="M511 314c-1 5-5 8-9 9l-163 23-72 147c-2 4-6 7-11 7-5 0-9-3-11-7l-72-147-163-23c-4-1-8-4-9-9-2-4-1-9 3-12l117-114-28-162c0-4 1-9 5-12 4-2 9-3 13-1l145 77 145-77c2-1 4-1 6-1 2 0 5 1 7 2 4 3 5 8 5 12l-28 162 117 114c4 3 5 8 3 12z"/>
<glyph glyph-name="sign" unicode="&#81;" d="M493 26l-52 0-22 87-9 35c0 0 0 0 0 0l-28 111-30 117c0 0 0 0 0 0l-31 126c-2 6-7 10-13 10l-104 0c-6 0-11-4-13-10l-34-136-27-107c0 0 0 0 0 0l-28-111-31-122-52 0c-7 0-13-6-13-13 0-7 6-13 13-13l474 0c7 0 13 6 13 13 0 7-6 13-13 13z m-395 0l27 106 262 0 27-106z m61 243l23 91 148 0 23-91z"/>
<glyph glyph-name="smartphone" unicode="&#86;" d="M363 512l-214 0c-25 0-46-21-46-46l0-420c0-25 21-46 46-46l214 0c25 0 46 21 46 46l0 420c0 25-21 46-46 46z m-107-487c-12 0-22 10-22 22 0 12 10 22 22 22 12 0 22-10 22-22 0-12-10-22-22-22z m121 65l-242 0 0 368 242 0z m-195 213c-17 1-32 16-32 34l0 21c0 19 16 34 35 34l113 0c19 0 35-15 35-34l0-21c0-19-16-34-35-34l-63 0-32-31c-2-3-5-4-8-4-2 0-4 0-5 1-5 2-8 6-8 11z m180-90l0-23c0-18-14-33-32-34l0-23c0-4-3-9-8-11-1 0-3-1-4-1-3 0-7 2-9 4l-31 31-64 0c-19 0-35 15-35 34l0 23c0 19 16 35 35 35l114 0c19 0 34-16 34-35z"/>
<glyph glyph-name="user-1" unicode="&#87;" d="M256 223c35 0 118 43 118 145 0 79-10 144-118 144-108 0-118-65-118-144 0-102 83-145 118-145z m-101 169c9 16 27 34 65 34 0 0 23-56 137-31 0-9 0-18 0-27 0-50-22-81-40-98-24-22-49-30-61-30-12 0-37 8-61 30-18 17-40 48-40 98 0 8 0 16 0 24z m321-317c-6 38-19 86-44 103-17 12-76 44-102 57l0 1c-3 1-6 1-9-1-13-11-28-18-43-21-3-1-5-3-6-5l-16-42-16 42c-1 2-3 4-6 5-15 3-30 10-43 21-3 2-6 2-9 1-25-14-85-46-102-58-29-19-42-89-44-103 0-1 0-3 1-4 1-3 27-71 219-71 192 0 218 68 219 71 1 1 1 3 1 4z m-89 23l-37-12-38 12 0 20 75 0z"/>
<glyph glyph-name="speech" unicode="&#88;" d="M450 26l-116 0 48 307c1 4 0 7-3 10-2 3-6 5-10 5l-21 0 0 34c0 23-20 41-45 41l-9 0c7 9 11 21 11 34 0 30-22 55-49 55-27 0-49-25-49-55 0-13 4-25 11-34l-9 0c-25 0-45-18-45-41l0-34-24 0c-4 0-7-2-10-5-2-3-3-6-3-10l51-307-116 0c-7 0-12-6-12-13 0-7 5-13 12-13l388 0c7 0 12 6 12 13 0 7-5 13-12 13z m-230 268l72 0c7 0 12-6 12-13 0-7-5-13-12-13l-72 0c-7 0-12 6-12 13 0 7 5 13 12 13z m88-72l-104 0c-7 0-13 6-13 13 0 7 6 13 13 13l104 0c7 0 13-6 13-13 0-7-6-13-13-13z"/>
<glyph glyph-name="speech-bubble" unicode="&#89;" d="M435 445l-233 0c-43 0-77-34-77-77l0-10 134 0c53 0 97-44 97-97l0-47 37-37c3-4 7-5 12-5 9 0 17 7 17 17l0 31 13 0c43 0 77 34 77 76l0 72c0 43-34 77-77 77z m-176-112l-187 0c-6 0-12-1-18-3-31-7-54-36-54-69l0-80c0-13 3-25 9-35 1-2 2-4 3-6 3-3 6-7 9-10 13-13 31-21 51-21l29 0 0-28c0-1 0-2 0-2 0 0 0-1 0-1 0 0 0-1 1-1 0 0 0-1 0-1 0 0 0-1 0-1 0 0 0-1 0-1 1 0 1-1 1-1 0 0 0 0 0 0 1-1 1-1 1-2 1 0 1 0 1 0 0 0 0-1 1-1 0 0 0 0 0 0 1 0 1-1 1-1 1 0 1 0 1 0 0 0 1-1 1-1 0 0 0 0 0 0 1 0 2 0 2-1 0 0 0 0 0 0 1 0 1 0 2 0 0 0 0 0 0 0 1 0 1 0 2 0 0 0 0 0 0 0 1 0 1 0 2 0 0 0 0 0 0 0 1 0 1 0 2 1 0 0 0 0 0 0 1 0 1 0 2 0 0 0 0 0 0 0 0 1 1 1 1 1 1 1 1 1 1 1 0 0 1 1 1 1l38 38 97 0c40 0 72 32 72 72l0 80c0 40-32 72-72 72z"/>
<glyph glyph-name="baseball" unicode="&#48;" d="M512 449c-1-18-8-35-22-47l-432-377 1-2c6-5 6-14 0-19-2-3-6-4-9-4-4 0-7 1-10 4l-24 24-12 12c-5 6-5 14 0 19 5 6 14 6 19 0l2-1 376 432c13 14 31 22 50 22 17 0 32-6 44-17 11-12 17-28 17-46z m-143-279c-37 0-67-30-67-67 0-37 30-67 67-67 37 0 67 30 67 67 0 37-30 67-67 67z"/>
<glyph glyph-name="basketball-1" unicode="&#50;" d="M0 270c4 64 31 122 73 165 23-20 74-73 78-165z m418 184c-41 34-92 55-148 58l0-242 62 0c5 100 58 159 86 184z m-57-212c4-92 55-145 78-165 42 43 69 101 73 165z m-210 0l-151 0c4-64 31-122 73-165 23 20 73 73 78 165z m29 28l62 0 0 242c-56-3-107-24-148-58 29-24 82-83 86-184z m181 0l151 0c-4 64-31 122-73 165-23-20-73-73-78-165z m-29-28l-62 0 0-242c56 3 107 24 148 58-29 24-82 83-86 184z m-90 0l-62 0c-5-100-58-159-86-184 41-34 92-55 148-58z"/>
<glyph glyph-name="tennis" unicode="&#51;" d="M512 256c0-68-27-130-71-176-39 32-98 95-98 179 0 84 58 143 97 174 45-46 72-108 72-177z m-343-3c0 84-59 147-98 179-44-46-71-108-71-176 0-69 27-131 72-177 39 31 97 90 97 174z m144 6c0 94 61 160 105 195-44 36-101 58-162 58-62 0-119-22-163-59 44-37 106-106 106-200 0-94-61-160-105-195 44-36 101-58 162-58 62 0 119 22 163 59-44 37-106 106-106 200z"/>
<glyph glyph-name="buy" unicode="&#52;" d="M380 364c-2-5-6-9-12-9-1 0-2 0-3 0l-98 28c-7 2-10 9-9 15 2 7 9 10 15 9l98-28c7-2 11-9 9-15z m-174-298c-18 0-33-15-33-33 0-18 15-33 33-33 18 0 33 15 33 33 0 18-15 33-33 33z m200 0c-18 0-33-15-33-33 0-18 15-33 33-33 18 0 33 15 33 33 0 18-15 33-33 33z m77 268l-32-174c-1-6-6-10-12-10l-262 0 6-32c2-8 9-14 17-14l222 0c7 0 13-5 13-12 0-7-6-12-13-12l-222 0c-19 0-36 14-40 33l-10 46-66 267-43 0c-7 0-13 5-13 12 0 7 6 12 13 12l53 0c5 0 10-4 12-9l22-92 74 0 33 119c0 0 0 0 0 0l10 35c2 7 9 10 15 9l178-50c6-2 10-9 8-15-2-6-6-9-12-9-1 0-2 0-3 0l-3 1-3-11 3-1c6-2 10-9 8-15l-18-64 53 0c4 0 7-1 10-4 2-3 3-7 2-10z m-218 151l-3-12 139-39 4 12z m-32-136l155-1 7 27c1 3 1 7-1 9-1 3-4 5-7 6l-120 34c-3 1-6 0-9-1-3-2-5-5-6-8z"/>
<glyph glyph-name="rugby-1" unicode="&#53;" d="M336 506c29 4 57 6 81 6 13 0 26-1 39-1 29-2 53-26 55-55 2-31 2-73-5-120z m-330-330c-7-47-7-89-5-120 2-29 26-53 55-55 13-1 26-1 39-1 0 0 0 0 0 0 24 0 52 2 81 6z m494 126c-14-63-43-132-98-191-1 0-1 0-1-1-59-55-127-84-191-98l-198 198c14 63 43 132 98 191 1 0 1 0 1 1 59 55 127 84 191 98z m-138-1l-20 20 15 16c6 6 6 15 0 20-5 6-14 6-20 0l-16-15-20 20c-6 6-15 6-20 0-6-6-6-15 0-20l20-21-23-23-21 20c-5 6-14 6-20 0-5-5-5-14 0-20l21-20-24-24-20 21c-6 5-15 5-20 0-6-6-6-15 0-20l20-21-23-23-21 20c-5 6-14 6-20 0-6-5-6-14 0-20l20-20-15-16c-6-6-6-15 0-20 2-3 6-5 10-5 3 0 7 2 10 5l16 15 20-20c3-3 7-4 10-4 4 0 8 1 10 4 6 6 6 15 0 20l-20 21 23 23 21-20c2-3 6-5 10-5 3 0 7 2 10 5 5 5 5 14 0 20l-21 20 24 24 20-21c3-3 7-4 10-4 4 0 8 1 10 4 6 6 6 15 0 20l-20 21 23 23 21-20c3-3 6-4 10-4 4 0 7 1 10 4 6 5 6 14 0 20z"/>
<glyph glyph-name="rugby" unicode="&#54;" d="M454 415c-42 43-102 65-179 65-78 0-139-22-180-65-58-60-55-140-55-144 0-6 6-12 12-12l92 0-13-70-108 0c-6 0-12-5-12-12l-11-132c0-3 1-6 3-9 3-3 6-4 9-4l75 0c24 0 45 17 49 41l16 91 43 0c24-51 76-86 136-86 58 0 109 33 134 82l32-7c1 0 2-1 3-1 2 0 5 1 7 3 3 2 5 6 5 10l0 99c0 6 1 89-58 151z m-111-168c0-18-15-33-33-33-18 0-33 15-33 33 0 18 15 33 33 33 18 0 33-15 33-33z m-216-83l-7-37-89 0 3 37z m-40-107l-61 0 3 45 87 0-4-25c-2-12-13-20-25-20z m69 132l13 70 14 0c-2-9-3-20-3-30 0-14 2-28 5-40z"/>
<glyph glyph-name="seat" unicode="&#55;" d="M481 356l-102 0 0 118c0 21-17 38-38 38l-170 0c-21 0-38-17-38-38l0-118-102 0c-6 0-11-6-11-12l0-27c0-6 5-11 11-11l13 0c1-13 4-34 13-51 9-18 25-32 37-42l0-16c0-17 14-32 31-32l-38-151c-2-6 2-12 8-14 1 0 2 0 3 0 5 0 10 3 11 9l18 72 258 0 18-72c1-6 6-9 11-9 1 0 2 0 3 0 6 2 10 8 8 14l-38 151c17 0 31 15 31 32l0 29c0 6-5 11-11 11l-302 0c-1 0-2 0-3 0-9 7-19 17-25 29-6 12-9 29-10 40l66 0 0-25c0-7 5-12 11-12l224 0c6 0 11 5 11 12l0 25 102 0c6 0 11 5 11 11l0 27c0 6-5 12-11 12z m-332-191l214 0 16-61-246 0z"/>
<glyph glyph-name="scrolls" unicode="&#56;" d="M512 409c0 4-1 7-4 9l-90 90c-2 3-5 4-9 4-3 0-6-2-8-4l-151-170-10 10c-2 3-5 4-9 4-3 0-6-1-8-4l-59-59c-5-4-5-12 0-17l10-10-170-151c-2-2-4-5-4-8 0-4 1-7 4-9l90-90c2-3 5-4 8-4 0 0 1 0 1 0 3 0 6 2 8 4l138 155 40-86c2-4 7-7 11-7 2 0 4 1 5 1l59 28c3 1 5 4 6 7 2 3 1 6 0 9l-35 74 90-41c2-1 3-1 5-1 2 0 3 0 4 0 3 1 6 4 7 7l28 58c1 3 1 7 0 10-1 3-3 5-6 7l-100 46 145 130c2 2 4 5 4 8z m-281-87l91-91-41-41-91 91z m112-210l-37-17-31 66c2 0 4-1 6-1 3 0 6 1 8 4l20 20z m98 96l-17-37-87 41 11 11c5 4 5 12 0 17l-10 10 5 4z"/>
<glyph glyph-name="ring" unicode="&#57;" d="M503 351l0-63c0-122-85-224-199-251l0-24c0-7-5-13-13-13l-156 0c-7 0-13 6-13 13l0 84c28-13 59-19 91-19 33 0 63 6 91 19l0-33c100 26 173 117 173 224-14 5-25 18-25 34l0 7c0 19 17 35 36 35l2 0c7 0 13-5 13-13z m-86-43c0-113-91-204-204-204-112 0-204 91-204 204 0 112 92 204 204 204 113 0 204-92 204-204z m-204-31c17 0 31 14 31 31 0 17-14 30-31 30-17 0-31-13-31-30 0-17 14-31 31-31z"/>
<glyph glyph-name="book" unicode="&#33;" d="M155 292l7-20-15 0z m96 14l0-10 13-1 0 0 0 0 0 0c5 0 10 5 10 10l0 6c0 2-1 4-2 5-2 2-4 2-6 2l-15 0z m194 123l0-415c0-8-6-14-14-14l-350 0c-8 0-14 6-14 14l0 484c0 8 6 14 14 14l350 0c8 0 14-6 14-14 0-7-6-13-14-13l-15 0 0-42 15 0c8 0 14-6 14-14z m-351 14l295 0 0 42-295 0z m114-214l-40 105c-2 5-7 9-13 9 0 0 0 0 0 0-6 0-11-3-13-9l-41-105c-2-7 1-15 8-17 2-1 3-1 5-1 5 0 11 3 13 8l10 26 36 0 10-25c2-7 10-11 17-8 7 3 11 10 8 17z m100 27c0 11-4 21-11 28-1 0-1 1-2 1 4 6 6 13 6 20l0 6c0 9-3 18-10 24-6 7-15 11-24 11l-30 0c0 0 0 0 0 0 0 0 0 0 0 0-3 0-7-2-9-4 0 0 0 0 0 0-1-1-1-2-2-2 0-1 0-1 0-1-1 0-1-1-1-2 0 0 0 0 0-1-1 0-1-1-1-1 0-1 0-2 0-3l0-50 0 0c0 0 0 0 0 0l-1-57c0-8 7-14 14-14l31 0c0 0 0 0 1 0 21 0 39 18 39 39z m40-5l0 55c0 4 2 7 4 8 4 3 9 4 14 4l0 0c10 0 18-6 18-12 0-8 6-14 14-14 0 0 0 0 0 0 7 0 13 6 13 14 0 22-20 40-45 40l0 0c0 0 0 0-1 0-11 0-22-4-30-11-9-8-15-18-15-29l0-55c0-22 20-40 45-40l1 0c0 0 0 0 0 0 12 0 23 4 31 11 9 7 14 18 14 29l0 3c0 8-6 14-13 14 0 0 0 0 0 0-8 0-14-6-14-14l0-3c0-4-3-7-4-8-4-3-9-5-14-5 0 0 0 0 0 0l-1 0c-9 0-17 6-17 13z m-79 17l-18 0 0-30 17 0 1 0c6 0 12 6 12 12l0 6c0 4-1 6-4 9-2 2-5 3-8 3z"/>
<glyph glyph-name="screen" unicode="&#34;" d="M473 492l-434 0c-22 0-39-18-39-39l0-307c0-22 17-39 39-39l155 0-22-62-52 0c-7 0-13-5-13-12 0-7 6-13 13-13l272 0c7 0 13 6 13 13 0 7-6 12-13 12l-52 0-22 62 155 0c22 0 39 17 39 39l0 307c0 21-17 39-39 39z m0-360l-434 0c-8 0-14 6-14 14l0 26 462 0 0-26c0-8-6-14-14-14z"/>
<glyph glyph-name="cut" unicode="&#35;" d="M366 173c-5 0-10-1-15-2l-43 66 66 75c38 43 53 102 40 158l-8 33c-1 4-5 8-10 9-4 1-9-1-12-5l-127-193-126 193c-3 4-8 6-12 5-5-1-9-5-10-9l-8-33c-13-56 2-115 40-158l66-75-43-66c-6 1-12 2-18 2-47 0-86-39-86-87 0-47 39-86 86-86 48 0 87 39 87 86 0 19-6 36-16 49l40 46 39-44c-11-14-17-32-17-51 0-47 39-86 87-86 47 0 86 39 86 86 0 48-39 87-86 87z m0-126c-22 0-40 18-40 39 0 22 18 40 40 40 21 0 39-18 39-40 0-21-18-39-39-39z m-220 0c-21 0-39 18-39 39 0 22 18 40 39 40 22 0 40-18 40-40 0-21-18-39-40-39z"/>
<glyph glyph-name="quaver" unicode="&#36;" d="M503 222c0 7-5 12-12 12l-64 0c-1 1-1 3-2 4-12 20-33 35-58 37 0 2 0 3 0 5 0 6 0 12 0 20 0 9 0 19 1 31l123 0c7 0 12 5 12 12 0 7-5 12-12 12l-112 0c22 17 42 32 54 48 23 31 27 77 8 98-6 7-22 20-50 3-35-22-45-85-47-143-3-2-5-4-8-6l-201 0 0 14 64 20c6 2 10 8 8 15-2 7-9 10-15 8l-73-22c-5-2-9-6-9-12l0-23-89 0c-7 0-12-5-12-12 0-7 5-12 12-12l89 0 0-97-89 0c-7 0-12-5-12-12 0-7 5-13 12-13l89 0 0-26c-8 4-18 7-29 7-30 0-55-20-55-44 0-13 8-25 19-33l-24 0c-7 0-12-6-12-12 0-7 5-13 12-13l241 0c-6-5-9-13-9-22 0-1 0-2 0-3 0-9 1-35 19-51 9-8 21-12 34-12 5 0 10 0 16 1 33 7 47 42 52 87l117 0c7 0 12 6 12 13 0 6-5 12-12 12l-115 0c0 5 0 10 0 15 10 4 19 9 28 15 26 19 34 44 31 66l56 0c7 0 12 6 12 13z m-99 260c5 4 9 5 13 5 2 0 4-1 6-2 8-10 8-44-10-67-9-12-25-25-43-39 3 45 12 90 34 103z m-7-248l-27 0c0 6-1 11-1 16 11-2 20-8 28-16z m-46-86c-15-2-30 2-44 10-20 11-33 29-37 51l27 0c1-14 7-24 7-25 3-6 11-8 17-5 6 3 8 11 5 17 0 0-3 6-5 13l26 0c2-18 3-40 4-61z m-9 152c0-8 0-14 0-20 0-2 0-5 0-7-3-2-7-3-11-5-16-8-27-19-32-34l-30 0c4 37 37 68 74 95-1-10-1-20-1-29z m2-53c0-4 1-8 1-13l-18 0c3 5 8 9 15 12 1 0 1 1 2 1z m-209 84l170 0c-32-27-58-58-61-96 0 0 0-1 0-1l-109 0z m182-305c-12-2-22-1-28 5-2 1-3 2-4 4 16 1 30 14 30 31 0 9-4 17-10 22l44 0c-3-33-12-58-32-62z m-200 87c11 8 18 20 18 33l0 63 110 0c4-31 22-57 50-73 17-10 37-14 56-13 0-3 0-7 0-10l-234 0z m273 50c-5-3-10-6-14-8-1 18-2 37-4 54l38 0c3-15-1-32-20-46z"/>
<glyph glyph-name="puzzle" unicode="&#37;" d="M426 342c-14 0-28-3-40-9l0 103c0 7-6 13-13 13l-115 0c-4 0-8-2-11-6-2-4-2-9 0-13 4-8 7-18 7-27 0-34-28-61-61-61-33 0-60 27-60 61 0 9 2 19 6 27 2 4 2 9 0 13-3 4-7 6-11 6l-115 0c-7 0-13-6-13-13l0-360c0-7 6-13 13-13l360 0c7 0 13 6 13 13l0 103c12-6 26-9 40-9 47 0 86 38 86 86 0 48-39 86-86 86z"/>
<glyph glyph-name="note" unicode="&#39;" d="M505 508c-4 5-12 5-17 1 0 0-6-5-39-31-34-26-77-68-79-70l-85-84-99 98c-5 6-13 6-18 0l-9-8c-24-24-24-63 0-87l7-6-94-119c-8 7-17 10-28 10-12 0-23-5-32-13l-5-6c-6-5-6-13 0-18l170-171c3-3 6-4 10-4 3 0 6 1 9 4l6 6c8 8 13 20 13 32 0 10-4 20-10 28l118 93 7-6c12-12 27-18 43-18 17 0 32 6 44 18l8 8c3 3 4 6 4 9 0 4-1 7-4 9l-104 105 85 85c2 2 43 44 69 79 26 33 31 38 31 39 5 5 4 12-1 17z"/>
<glyph glyph-name="school" unicode="&#40;" d="M487 123l0-68c0-7-5-12-12-12l-438 0c-7 0-12 5-12 12l0 68c0 6 5 12 12 12l438 0c7 0 12-6 12-12z m19 226l-245 119c-3 1-7 1-10 0l-245-119c-4-2-7-7-6-13 1-5 6-9 11-9l42 0 0-159c0-6 5-11 12-11l66 0c6 0 11 5 11 11l0 159 69 0 0-159c0-6 6-11 12-11l66 0c6 0 12 5 12 11l0 159 69 0 0-159c0-6 5-11 11-11l66 0c7 0 12 5 12 11l0 159 42 0c5 0 10 4 11 9 1 6-2 11-6 13z"/>
<glyph glyph-name="schemes" unicode="&#41;" d="M485 152l-34 0 0 15c0 31-25 55-55 55l-128 0 0 63 83 0c26 0 47 21 47 47l0 72c0 26-21 47-47 47l-190 0c-26 0-47-21-47-47l0-72c0-26 21-47 47-47l83 0 0-63-128 0c-30 0-55-24-55-55l0-15-34 0c-15 0-27-12-27-27l0-37c0-15 12-27 27-27l92 0c15 0 27 12 27 27l0 37c0 15-12 27-27 27l-34 0 0 15c0 18 14 32 31 32l128 0 0-47-34 0c-15 0-27-12-27-27l0-37c0-15 12-27 27-27l92 0c15 0 27 12 27 27l0 37c0 15-12 27-27 27l-34 0 0 47 128 0c17 0 31-14 31-32l0-15-34 0c-15 0-27-12-27-27l0-37c0-15 12-27 27-27l92 0c15 0 27 12 27 27l0 37c0 15-12 27-27 27z"/>
<glyph glyph-name="ruler" unicode="&#42;" d="M504 425c-5 2-11 2-15-2l-467-398c-4-4-5-10-4-15 2-5 8-9 13-9l467 0c8 0 14 6 14 14l0 398c0 5-3 10-8 12z m-271-339l197 168 0-168z m-172 38c0 0 1 0 1 0 3 0 6 1 9 3l331 277c3 2 5 6 5 9 0 4-1 8-3 10l-38 45c-5 6-13 7-19 2l-20-17c-36 37-85 58-137 58-44 0-88-16-122-44-39-33-63-79-67-129-4-46 8-91 35-128l-20-17c-6-5-7-14-2-19l37-45c3-3 6-5 10-5z m44 143c-12 19-17 41-15 63 2 27 15 51 36 68 18 15 41 24 64 24 26 0 50-10 68-27z"/>
<glyph glyph-name="projector" unicode="&#43;" d="M139 230c-25 0-46-21-46-46 0-25 21-45 46-45 24 0 45 20 45 45 0 25-21 46-45 46z m-2-61c-8 0-15 7-15 15 0 9 7 16 15 16 9 0 16-7 16-16 0-8-7-15-16-15z m331 112l-199 0 0 74c26 6 45 28 45 56 0 7-6 13-13 13l-90 0c-7 0-13-6-13-13 0-28 19-50 45-56l0-74-199 0c-24 0-44-20-44-45l0-104c0-24 20-44 44-44l424 0c24 0 44 20 44 44l0 104c0 25-20 45-44 45z m-329-168c-40 0-72 32-72 71 0 40 32 72 72 72 39 0 71-32 71-72 0-39-32-71-71-71z m216 56c-8 0-15 7-15 15 0 9 7 16 15 16 9 0 16-7 16-16 0-8-7-15-16-15z m69 0c-9 0-16 7-16 15 0 9 7 16 16 16 8 0 15-7 15-16 0-8-7-15-15-15z"/>
<glyph glyph-name="print" unicode="&#46;" d="M444 293l-2 0c0 0 0 0 0 0l0 113c0 7-6 12-12 12l-33 0 0 32c0 7-6 13-13 13l-256 0c-7 0-13-6-13-13l0-32-34 0c-7 0-13-5-13-12l0-113c0 0 0 0 0 0l0 0c-38 0-68-30-68-68l0-163c0-7 5-13 12-13l488 0c7 0 12 6 12 13l0 163c0 38-30 68-68 68z m-304 145l232 0 0-132-232 0z m279-364l-326 0 0 34 326 0z m0 58l-326 0 0 34 326 0z"/>
<glyph glyph-name="presentation" unicode="&#47;" d="M447 45l-168 261c-3 5-2 12 3 16l1 0c1 1 4 2 6 2 3 0 7-2 9-5l173-258c2-2 2-5 2-8-1-3-3-6-5-7l-6-4c-2-1-4-2-6-2-4 0-7 2-9 5z m60 454l0-39c0-7-6-13-13-13l-13 0 0-330c0-5-3-10-8-12l-100 150 14 0c7 0 13 6 13 13 0 7-6 13-13 13l-32 0-35 52c-7 11-19 17-31 17-8 0-15-2-21-6l0 0c-17-12-22-35-11-52l7-11-144 0c-7 0-13-6-13-13 0-7 6-13 13-13l161 0 97-151-109 0 0-30c15-5 25-19 25-36 0-21-17-38-38-38-21 0-38 17-38 38 0 17 10 31 25 36l0 30-199 0c-7 0-13 6-13 13l0 330-13 0c-7 0-13 6-13 13l0 39c0 7 6 13 13 13l476 0c7 0 13-6 13-13z m-263-461c0-6 5-12 12-12 7 0 12 6 12 12 0 7-5 12-12 12-7 0-12-5-12-12z m156 337c0 8-6 13-13 13l-267 0c-7 0-13-5-13-13 0-7 6-13 13-13l267 0c7 0 13 6 13 13z m81 111l-450 0 0-13 450 0z"/>
<glyph glyph-name="rule" unicode="&#58;" d="M113 211l64 64 28-28-64-65z m109 54l64 65-27 27-65-64z m81 83l64 65-27 26-64-64z m-243-248l64 65-29 29-64-65z m448 327l-46 47-420-428 43-42c2-3 5-4 8-4 4 0 7 1 9 4l406 406c5 5 5 13 0 17z m-465-345l-30 30-9-10c-3-2-4-5-4-9 0-3 1-6 4-8l21-21z m341 348l60 61-17 17c-2 3-5 4-8 4-4 0-7-1-9-4l-52-51z"/>
<glyph glyph-name="poster" unicode="&#60;" d="M498 363l-63 0-171 133c-5 3-11 3-16 0l-171-133-63 0c-8 0-14-6-14-13l0-323c0-7 6-13 14-13l484 0c8 0 14 6 14 13l0 323c0 7-6 13-14 13z m-242 105l135-105-270 0z m213-401c0-7-6-13-13-13l-400 0c-7 0-13 6-13 13l0 240c0 7 6 14 13 14l400 0c7 0 13-7 13-14z m-399 14l372 0 0 212-372 0z m296 37l-220 0c-8 0-14 6-14 13 0 8 6 14 14 14l220 0c8 0 14-6 14-14 0-7-6-13-14-13z m-194 80c0 7 6 13 13 13l142 0c7 0 13-6 13-13 0-8-6-14-13-14l-142 0c-7 0-13 6-13 14z m-36 66l240 0c7 0 13-7 13-14 0-8-6-14-13-14l-240 0c-7 0-13 6-13 14 0 7 6 14 13 14z"/>
<glyph glyph-name="podium" unicode="&#61;" d="M83 266l9 0 0-55-9 0z m323-48l-9 0 0-56 9 0z m106 60l0-178c0-7-6-13-12-13l-488 0c-6 0-12 6-12 13l0 228c0 7 6 13 12 13l150 0 0 71c0 7 6 13 13 13l162 0c7 0 13-6 13-13l0-122 150 0c6 0 12-5 12-12z m-395-67l0 55 10 0c7 0 13 6 13 13 0 7-6 12-13 12l-79 0c-6 0-12-5-12-12 0-7 6-13 12-13l10 0 0-55-10 0c-6 0-12-6-12-13 0-6 6-12 12-12l79 0c7 0 13 6 13 12 0 7-6 13-13 13z m151 83l0 55 7 0c7 0 12 6 12 13 0 6-5 12-12 12l-38 0c-7 0-12-6-12-12 0-7 5-13 12-13l7 0 0-55-7 0c-7 0-12-6-12-13 0-7 5-12 12-12l38 0c7 0 12 5 12 12 0 7-5 13-12 13z m197-132l0 56 2 0c7 0 13 6 13 12 0 7-6 13-13 13l-97 0c-7 0-13-6-13-13 0-6 6-12 13-12l2 0 0-56-2 0c-7 0-13-5-13-12 0-7 6-12 13-12l97 0c7 0 13 5 13 12 0 7-6 12-13 12z m-34 0l9 0 0 56-9 0z"/>
<glyph glyph-name="important-document" unicode="&#63;" d="M45 307c-26 57-32 99-32 101 0 3 1 5 3 7 2 2 5 3 8 2 2-1 43-15 91-40 0 0 0 0 0 0 3-1 5-2 8-4 0 0 0 0 1 0 2-1 4-3 6-4 1 0 1 0 1 0 11-6 21-12 32-19 0 0 0 0 0 0 3-2 6-4 10-7 1-1 3-3 3-5l2-18 3-22 8 14c1 2 2 3 4 3 0 1 1 1 1 1 1 0 1 0 2 0 0 0 0 0 0 0 0 0 1 0 1 0 1 0 1 0 1 0 0 0 1 0 1 0 0 0 0-1 0-1 1 0 1 0 2 0 0 0 0 0 0 0 0 0 0 0 0 0 1-2 3-3 4-4 1 0 1 0 2-1 1-1 2-2 3-3 1 0 1 0 1 0 1-1 3-2 4-3 0 0 1-1 1-1 1-1 2-2 3-2 0-1 1-1 1-1 1-1 2-2 3-3 1 0 1-1 2-1 0-1 1-1 2-2 0 0 1-1 1-1 1-1 2-2 3-3 0 0 1-1 1-1 1-1 1-1 2-2 0 0 1-1 2-1 0-1 1-2 2-2 0-1 1-1 1-2 1 0 1-1 1-1 1-1 2-3 3-4 1 0 1 0 1 0 5-6 10-13 14-20 1-1 2-3 3-5 0 0 0 0 0 0 1-2 2-3 3-5 1 0 1-1 1-1 1-1 2-3 3-5 0 0 0 0 0-1 1-1 2-3 3-4 0-1 0-1 0-1 1-2 2-3 3-5 0 0 0 0 0-1 1-1 2-3 2-4 1-1 1-1 1-1 1-2 1-3 2-5 0 0 0 0 0 0 1-2 2-3 2-5 1 0 1 0 1 0 0-2 1-4 2-5l0 0c4-11 8-21 10-30 0 0 0 0 0 0 1-2 1-4 2-5 0 0 0 0 0 0 2-9 3-16 4-22 0 0 0 0 0 0 0-2 1-3 1-4 0 0 0 0 0 0 0-5 1-9 1-12 0 0 0 0 0 0 0-1 0-2 0-2 0 0 0-1 0-1 0 0 0-1 0-1 0 0 0 0 0-1 0 0 0 0 0-1 0 0 0 0 0 0 0-1 0-1 0-1 0-1 0-1 0-1l17-17 15-17c2-1 3-3 3-5 0-2-1-4-3-6 0 0 0 0 0 0-2-1-4-2-5-2-2 0-3 0-5 1 0 1-1 1-1 1l-33 35c-3 0-7-1-12-1-10 0-26 2-45 7-2 1-4 1-6 2-5 2-11 4-17 7-5 1-9 4-14 6-1 1-3 1-4 2-2 1-4 2-5 3-3 1-6 3-9 5-2 1-4 3-6 4-6 3-12 7-18 12 0 0-1 1-1 1-1 2-2 4-2 6 0 2 1 4 3 5 0 1 1 1 1 1l6 3 6 3-34 0c0 0-1 0-1 0-2 1-3 1-4 2-2 2-4 4-6 5-1 2-2 3-4 5 0 0 0 0-1 0-3 4-6 7-9 10 0 0 0 0 0 0-21 23-38 48-53 80-1 2-1 4 0 6 1 2 2 4 4 5l6 2-14 3c-3 1-5 2-6 5z m454 193c0-7-6-13-12-13-30 0-54-27-54-60l0-22 0-317c0-49-40-88-88-88l-286 0c-7 0-13 5-13 12 0 7 6 13 13 13 26 0 47 22 49 51l0 96c1-2 2-3 3-4 5-4 11-7 17-8 3-6 6-11 12-15 61-45 113-52 138-52 1 0 1 0 2 0l25-27c6-6 15-10 24-10 8 0 16 4 22 9 13 13 14 33 1 46l-26 27c0 11-2 27-8 46l57 0c7 0 12 6 12 13 0 6-5 12-12 12l-65 0c-5 13-12 28-20 43l85 0c7 0 12 6 12 12 0 7-5 13-12 13l-100 0c-11 16-23 29-41 43l141 0c7 0 12 6 12 12 0 7-5 13-12 13l-175 0c-2 7-7 14-14 19-26 18-54 33-78 45l0 18c0 47 35 85 78 85l301 0c6 0 12-6 12-12z m-112-100c0 7-5 13-12 13l-212 0c-7 0-12-6-12-13 0-6 5-12 12-12l212 0c7 0 12 6 12 12z"/>
<glyph glyph-name="notebook-1" unicode="&#64;" d="M482 437c0 15-12 28-27 28l-17 0 0 35c0 7-5 12-12 12l-342 0c-7 0-12-5-12-12l0-41-30 0c-7 0-12-5-12-12 0-7 5-12 12-12l30 0 0-40-30 0c-7 0-12-5-12-12 0-6 5-12 12-12l30 0 0-39-30 0c-7 0-12-6-12-12 0-7 5-12 12-12l30 0 0-40-30 0c-7 0-12-5-12-12 0-7 5-12 12-12l30 0 0-40-30 0c-7 0-12-5-12-12 0-6 5-12 12-12l30 0 0-39-30 0c-7 0-12-6-12-12 0-7 5-12 12-12l30 0 0-40-30 0c-7 0-12-5-12-12 0-7 5-12 12-12l30 0 0-41c0-7 5-12 12-12l342 0c7 0 12 5 12 12l0 63 17 0c15 0 27 12 27 27l0 91c0 6-1 11-4 16 3 4 4 9 4 15l0 91c0 6-1 11-4 16 3 4 4 9 4 15l0 91z m-121-48l0-94c0-7-6-13-13-13l-173 0c-7 0-13 6-13 13l0 94c0 8 6 14 13 14l173 0c7 0 13-6 13-14z m97-287c0-2-1-3-3-3l-17 0 0 98 17 0c2 0 3-2 3-4z m0 244c0-2-1-3-3-3l-17 0 0 97 17 0c2 0 3-1 3-3z m-113 18c0-7-5-12-12-12l-143 0c-6 0-12 5-12 12 0 7 6 12 12 12l143 0c7 0 12-5 12-12z m0-43c0-7-5-12-12-12l-143 0c-6 0-12 5-12 12 0 6 6 12 12 12l143 0c7 0 12-6 12-12z"/>
<glyph glyph-name="notes" unicode="&#91;" d="M329 453l0-60-146 0 0 60 23 0c0 3-1 6-1 8 0 28 23 51 51 51 28 0 51-23 51-51 0-2-1-5-1-8z m91-43l0-398c0-7-5-12-12-12l-304 0c-7 0-12 5-12 12l0 398c0 7 5 12 12 12l56 0 0-41c0-7 5-12 12-12l168 0c7 0 12 5 12 12l0 41 56 0c7 0 12-5 12-12z m-53-336c0 7-5 12-11 12l-200 0c-6 0-11-5-11-12 0-6 5-11 11-11l200 0c6 0 11 5 11 11z m0 73c0 7-5 12-11 12l-200 0c-6 0-11-5-11-12 0-6 5-12 11-12l200 0c6 0 11 6 11 12z m0 73c0 7-5 12-11 12l-200 0c-6 0-11-5-11-12 0-6 5-12 11-12l200 0c6 0 11 6 11 12z m0 73c0 7-5 12-11 12l-200 0c-6 0-11-5-11-12 0-7 5-12 11-12l200 0c6 0 11 5 11 12z"/>
<glyph glyph-name="audio-book-1" unicode="&#94;" d="M500 437l-12 0 0 11c0 7-5 13-12 13l-440 0c-7 0-12-6-12-13l0-11-12 0c-6 0-12-6-12-13l0-344c0-7 6-12 12-12l197 0 0-4c0-7 5-13 12-13l70 0c7 0 12 6 12 13l0 4 197 0c6 0 12 5 12 12l0 344c0 7-6 13-12 13z m-451-1l195 0 0-36c0-7 5-13 12-13 7 0 12 6 12 13l0 36 195 0 0-319-195 0 0 36c0 6-5 12-12 12-7 0-12-6-12-12l0-36-195 0z m192-91l0-134c0-8-10-14-17-9l-41 28c-1 1-4 2-6 2l-46 0c-6 0-11 5-11 11l0 70c0 6 5 11 11 11l46 0c2 0 5 1 6 2l41 28c7 5 17 0 17-9z m65-67c0 34-24 52-25 52-5 4-6 12-2 17 4 6 11 7 17 3 1-1 35-25 35-72 0-47-34-71-35-72-2-2-5-2-7-2-4 0-8 1-10 5-4 5-3 13 2 17 1 1 25 18 25 52z m19 108c4 5 12 7 18 3 2-2 53-39 53-111 0-72-51-109-53-111-3-1-5-2-8-2-3 0-7 2-10 5-4 6-2 14 3 18 2 1 43 31 43 90 0 59-42 90-43 90-5 4-7 12-3 18z"/>
<glyph glyph-name="pencil-1" unicode="&#95;" d="M497 390l-107 107c-10 10-22 15-36 15-13 0-26-5-35-15l-54-54c-1 0-2-1-2-2-1-1-2-2-3-2l-236-237c0 0 0 0 0 0-1 0-1-1-2-1 0-1 0-1 0-1-1-1-1-1-1-2 0 0 0 0 0 0-1-1-1-2-1-2 0 0 0-1 0-1 0 0 0 0 0-1l-12-110-8-69c0-4 1-8 4-11 2-3 6-4 9-4 1 0 1 0 2 0l179 20c1 0 1 0 1 0 0 0 1 0 1 0 0 0 1 0 2 1 0 0 0 0 0 0 1 0 1 0 2 1 0 0 0 0 1 0 0 1 1 1 1 1 0 1 0 1 0 1l237 236c0 1 1 2 2 3 1 0 2 1 2 2l54 54c10 9 15 22 15 35 0 14-5 26-15 36z m-410-355l-52 52 8 77 38-38c0 0 0 0 0 0l45-45c0 0 0 0 0 0l38-38z m48 75l-25 25 222 223 26-26z m343 228l-44-45-141 141 45 45c4 4 10 6 16 6 6 0 12-2 17-6l107-108c5-5 7-11 7-17 0-6-2-12-7-16z"/>
<glyph glyph-name="open-book" unicode="&#96;" d="M508 433c-3 2-6 3-10 2l-27-5c-2 1-4 2-6 2-2 1-55 8-101 8-1 0-3 0-4 0l0 5c0 4-2 7-5 9-3 3-6 4-10 3l-45-11c-6-1-9-6-9-11l0-9c-16-8-28-18-35-25-10 11-30 26-58 34-12 4-28 5-50 5-46 0-99-7-101-8-2 0-4-1-6-2l-27 5c-4 1-7 0-10-2-2-3-4-6-4-9l0-304c0-6 4-11 10-12l202-36 0-5c0-7 5-12 12-12l60 0c7 0 12 5 12 12l0 4 206 37c6 1 10 6 10 12l0 304c0 3-2 6-4 9z m-217-34l0-131c0-5 3-10 8-11 1-1 2-1 3-1 5 0 8 3 11 6l13 24 13-15c3-4 8-5 13-4 5 2 8 6 8 11l0 139c1 0 3 0 4 0 33 0 70-4 88-7l0-263c-19 3-55 7-89 7-20 0-36-1-48-4-22-5-37-11-47-16l0 245c3 4 11 12 23 20z m-99 13c29-8 47-26 52-33l0-245c-10 5-25 11-47 16-12 3-28 4-48 4-34 0-70-4-89-7l0 263c18 3 55 7 88 7 19 0 34-2 44-5z"/>
<glyph glyph-name="pen" unicode="&#126;" d="M441 504c13 5 25 8 34 8 12 0 21-3 27-10 13-13 12-35 3-61z m-236-126c2 0 5 1 8 2l145 98 9-14c-39-26-84-63-130-106l121-121c48 51 105 120 134 176l-74 75c-2 1-3 3-3 5-8-4-16-9-24-14l-17 26c-2 3-5 6-9 6-4 1-7 0-11-2l-157-105c-7-4-8-13-4-20 3-4 7-6 12-6z m11-40c-3-4-7-7-11-11-61-61-113-124-147-177-32-50-43-86-36-108l-18-18c-5-5-5-14 0-20 3-3 7-4 10-4 4 0 7 1 10 4l18 18c5-1 9-2 15-2 51 0 160 74 270 185 4 4 7 7 11 11z"/>
<glyph glyph-name="origami" unicode="&#92;" d="M494 81l-187 424c0 0 0 0 0 0 0 1 0 1-1 2 0 0 0 0 0 0 0 1 0 1-1 1 0 0 0 1 0 1 0 0-1 0-1 1 0 0 0 0-1 0 0 0 0 0 0 0 0 0 0 0-1 1 0 0 0 0 0 0-1 0-1 0-2 0 0 0 0 1 0 1 0 0-1 0-1 0 0 0-1 0-1 0 0 0-1 0-1 0 0 0 0 0-1 0 0 0-1 0-1 0 0 0 0 0 0 0-1 0-1 0-1 0 0 0-1-1-1-1 0 0 0 0-1 0 0 0 0 0 0 0l-30-13c-4-2-8-2-12 0l-30 13c0 0 0 0-1 0 0 0 0 0 0 0 0 0-1 1-1 1 0 0 0 0-1 0 0 0 0 0 0 0 0 0-1 0-1 0-1 0-1 0-1 0 0 0-1 0-1 0 0 0-1 0-1 0 0 0-1 0-1 0 0 0 0-1 0-1-1 0-1 0-2 0 0 0 0 0 0 0-1-1-1-1-1-1 0 0 0 0 0 0-1 0-1 0-1 0 0-1-1-1-1-1 0 0 0 0 0-1-1 0-1 0-1-1 0 0 0 0-1 0 0-1 0-1 0-2 0 0 0 0 0 0l-187-424c-2-5-1-11 3-14 2-2 5-2 8-2l180 0 37-60c0 0 0 0 0 0 1 0 1 0 1 0 0-1 0-1 1-1 0-1 0-1 0-1 0 0 1-1 1-1 1 0 1 0 1 0 0 0 1-1 1-1 0 0 1 0 1 0 0 0 1-1 1-1 1 0 1 0 1 0 1 0 1 0 2 0 1 0 1 0 2 0 0 0 0 0 0 0 1 0 2 1 2 1 0 0 1 0 1 0 0 0 1 1 1 1 0 0 0 0 0 0 1 0 1 1 2 1 0 0 0 0 0 1 1 0 1 0 1 1 0 0 0 0 0 0 1 0 1 0 1 0l37 60 181 0c0 0 0 0 0 0 6 0 11 5 11 11 0 2 0 4-1 5z m-212-6l-7-13c-2-3-8-2-8 2l0 407c0 3 2 5 4 6l9 4c3 1 5-1 5-4l0-392c0-4-1-7-3-10z m-50 406l9-4c2-1 4-3 4-6l0-407c0-4-6-5-8-2l-7 13c-2 3-4 6-4 10l0 392c0 3 3 5 6 4z"/>
<glyph glyph-name="pens" unicode="&#57344;" d="M151 480c9 20 20 30 33 30 13 0 25-10 34-30z m-18-61c-6-34-10-75-12-118l127 0c-2 50-7 96-15 132-2 8-4 16-6 23l-84 0c0 0 0 0-1 0-1-4-2-9-4-14l-20 4c-3 1-6 0-9-2-3-1-4-4-5-7l-26-134c-2-6 2-12 9-14 1 0 1 0 2 0 6 0 11 4 12 10l24 122z m-12-141c0-4 0-7 0-10 0-62 5-121 15-165 10-41 22-66 37-74l0-17c0-7 5-12 11-12 7 0 12 5 12 12l0 17c15 8 27 33 37 74 10 44 15 103 15 165 0 3 0 6 0 10z m314-156c0 0 0 0 0 0 0-1 0-2-1-2 0 0 0-1 0-1 0 0 0-1 0-1l0-1c0 0 0 0 0 0l-44-109c0 0 0-1-1-1 0 0 0 0 0 0 0-1 0-1 0-1-1 0-1-1-1-1 0 0 0 0 0 0 0-1-1-1-1-1 0 0 0 0-1-1 0 0 0 0 0 0-1 0-1 0-1-1 0 0-1 0-1 0 0 0-1 0-1-1 0 0 0 0 0 0-1 0-1 0-2 0 0 0 0 0 0 0-1 0-1 0-1 0-1 0-1 0-1 0 0 0 0 0 0 0-5 0-9 3-11 7l-19 47c0 0 0 0 0 0l-25 62c0 0 0 0 0 0l0 1c0 0 0 1 0 1 0 0 0 1 0 1 0 0-1 1-1 2 0 0 0 0 0 0l0 378c0 7 6 12 12 12l32 0 0-378 24 0 0 378 32 0c6 0 12-5 12-12l0-378z"/>
<glyph glyph-name="lock" unicode="&#57345;" d="M372 135c-7 0-13 5-13 12 0 7 6 13 13 13l31 0c-3 39-22 75-51 99l0 160c0 51-42 93-93 93l-6 0c-52 0-93-42-93-93l0-160c-29-24-48-60-51-99l34 0c7 0 13-6 13-13 0-7-6-12-13-12l-34 0c6-72 63-129 135-135l0 31c0 7 5 12 12 12 7 0 12-5 12-12l0-31c72 6 129 63 135 135z m-188 284c0 38 31 68 69 68l6 0c38 0 68-30 68-68l0-142c-17 9-37 16-59 17l0-27c0-7-5-13-12-13-7 0-12 6-12 13l0 27c-22-1-42-8-60-18l0 143z m72-344c-41 0-74 33-74 74 0 40 33 74 74 74 16 0 30-5 42-13l10 9c4 5 12 5 17 0 5-5 5-12 0-17l-9-10c9-12 14-27 14-43 0-41-33-74-74-74z m49 74c0-28-22-50-49-50-27 0-49 22-49 50 0 27 22 49 49 49 27 0 49-22 49-49z"/>
<glyph glyph-name="paint-brush" unicode="&#57347;" d="M272 215l-64 63 122 102 44-44z m207 274c0 3-1 5-1 7-2-2-3-4-5-7-11-14-24-23-40-24-2 0-4 0-7 0-8 0-16 1-22 2-6 1-11 2-16 2-6 0-13-2-24-10-19-15-20-46-20-58l50-49c1 0 3 0 4 0 14 0 40 3 64 27 27 27 23 73 17 110z m-24-448c0-1-1-1-2-2-14-14-33-22-53-22-21 0-40 8-55 23l-54 54c-10 10-23 16-37 16-14 0-26-6-36-16l-15-14c-15-15-34-23-54-23 0 0 0 0 0 0-9 0-17 1-24 4 35 32 76 73 123 119l9 9c1 1 1 2 2 2l4-4c3-2 6-4 9-4 1 0 1 0 1 0 3 1 7 2 9 5l117 138c13 0 38 3 62 20 69-104 69-230-6-305z m6 152c0 7-2 13-7 18-5 5-12 8-19 8-7 0-13-3-18-8-10-10-10-27 0-37 5-5 11-7 18-7 7 0 14 2 19 7 5 5 7 12 7 19z m-408-63c-70 105-72 234 4 310 36 36 88 56 145 56 44 0 90-12 132-34-13-20-15-46-15-59l-137-115c-3-2-5-5-5-9 0-3 1-7 4-9l4-5c0 0-1-1-2-2-7-7-15-15-23-23-42-42-78-78-107-110z m155 280c0-7 2-14 7-19 5-5 12-8 19-8 7 0 13 3 18 8 5 5 8 12 8 19 0 7-3 13-8 18-5 5-11 8-18 8-7 0-14-3-19-8-5-5-7-11-7-18z m-141-53c0-8 4-16 10-22 6-6 14-10 22-10 8 0 16 4 22 10 6 6 10 14 10 22 0 9-4 17-10 23-6 6-14 9-22 9-8 0-16-3-22-9-6-6-10-14-10-23z m163-159l9 9c1 1 2 2 2 2l-38 38c-1 0-1-1-2-2-8-7-15-15-23-23-44-43-94-93-128-134-50-60-40-72-40-72 0 0 2 0 2 0 9 0 31 7 89 58 41 36 88 83 129 124z"/>
<glyph glyph-name="personal-computer" unicode="&#57348;" d="M503 152l-331 0c-5 0-9 4-9 9l0 208c0 5 4 9 9 9l331 0c5 0 9-4 9-9l0-208c0-5-4-9-9-9z m-92-66l-33 0 0 41-81 0 0-41-34 0c-6 0-12-5-12-12 0-7 6-13 12-13l148 0c7 0 13 6 13 13 0 7-6 12-13 12z m-210 317l-29 0c-2 0-4 0-6-1-1 1-2 1-3 1l-125 0c-7 0-13-6-13-13 0-7 6-12 13-12l101 0c-1-3-2-6-2-9l0-24-99 0c-7 0-13-5-13-12 0-7 6-13 13-13l99 0 0-32-99 0c-7 0-13-6-13-13 0-7 6-12 13-12l99 0 0-102c0-19 16-34 35-34l29 0 0-53c0-7-6-13-13-13l-175 0c-7 0-13 6-13 13l0 364c0 7 6 13 13 13l175 0c7 0 13-6 13-13z m-120-249c0-10 9-19 20-19 10 0 19 9 19 19 0 11-9 20-19 20-11 0-20-9-20-20z"/>
<glyph glyph-name="photo-camera" unicode="&#57350;" d="M144 375l0-281c0-24-21-45-45-45l-54 0c-25 0-45 21-45 45l0 281c0 25 20 45 45 45l54 0c24 0 45-20 45-45z m184-49c-51 0-92-41-92-91 0-51 41-92 92-92 50 0 91 41 91 92 0 50-41 91-91 91z m184 16l0-214c0-34-27-61-61-61l-287 0c4 8 6 18 6 27l0 281c0 10-2 19-6 27l72 0 0 12c0 27 22 49 49 49l86 0c27 0 48-22 48-49l0-12 32 0c34 0 61-27 61-60z m-67-107c0 65-52 117-117 117-65 0-118-52-118-117 0-65 53-118 118-118 65 0 117 53 117 118z"/>
<glyph glyph-name="paint" unicode="&#57351;" d="M477 505c-2 5-8 8-13 7-6-1-10-5-10-11 0 0-5-42-31-44-3-1-6-1-9-1-7 0-13 1-19 2-5 1-9 2-14 2-12 0-22-4-34-14-24-20-27-53-27-69l-126-105c-2-3-4-6-4-9 0-4 1-7 4-9l3-4c0 0-1-1-1-1-43-43-91-97-126-141-19-24-33-44-42-59-10-17-18-34-7-44 2-2 6-5 12-5 36 0 169 117 231 180 1 1 1 1 2 2l3-4c3-2 6-4 9-4 0 0 0 0 1 0 3 1 6 2 8 5l107 127c16 0 47 4 74 32 57 56 11 162 9 167z m-200-300l-57 57 111 92 39-39z"/>
<glyph glyph-name="piano" unicode="&#57352;" d="M79 256c0-22-18-40-39-40-22 0-40 18-40 40 0 22 18 40 40 40 21 0 39-18 39-40z m433 167l0-14c0-85-47-159-118-184l-27-10c-27-10-49-34-59-66-13-43-49-72-90-72l-113 0c-6 0-12 5-12 12l0 334c0 7 6 12 12 12l395 0c7 0 12-5 12-12z m-356-322l0 15-16 0c-6 0-12 6-12 12 0 7 6 12 12 12l16 0 0 27-16 0c-6 0-12 6-12 12 0 7 6 12 12 12l16 0 0 27-16 0c-6 0-12 6-12 12 0 7 6 12 12 12l16 0 0 28-16 0c-6 0-12 5-12 12 0 6 6 12 12 12l16 0 0 27-16 0c-6 0-12 5-12 12 0 6 6 12 12 12l16 0 0 27-16 0c-6 0-12 5-12 12 0 6 6 12 12 12l16 0 0 15-39 0 0-310z"/>
<glyph glyph-name="painting" unicode="&#57353;" d="M440 432l-124 0 0 14c0 6-5 12-12 12l-36 0 0 42c0 7-5 12-12 12-7 0-12-5-12-12l0-42-35 0c-7 0-12-6-12-12l0-14-125 0c-6 0-12-5-12-12l0-250c0-7 6-12 12-12l45 0 0-7c0-7 5-12 12-12l32 0-16-81c0 0 0 0 0 0l-9-44c-2-6 3-12 9-14 1 0 2 0 3 0 5 0 10 4 11 10l7 34 78 0 0-32c0-7 5-12 12-12 7 0 12 5 12 12l0 32 78 0 7-34c1-6 6-10 11-10 1 0 2 0 3 0 6 2 11 8 9 14l-9 44c0 0 0 0 0 0l-16 81 32 0c7 0 12 5 12 12l0 7 45 0c6 0 12 5 12 12l0 250c0 7-6 12-12 12z m-219 2l71 0 0-22-71 0z m-50-367l14 72 59 0 0-72z m170 0l-73 0 0 72 59 0z m30 96l-34 0c0 0 0 0 0 0l-162 0c0 0 0 0 0 0l-34 0 0 15 230 0z"/>
<glyph glyph-name="ping-pong" unicode="&#57354;" d="M276 453c0-24-20-44-44-44-25 0-45 20-45 44 0 25 20 45 45 45 24 0 44-20 44-45z m225-228c-24-60-81-101-143-101-4 0-9 0-13 0l-31-79c-1-5-6-8-11-8-1 0-3 0-4 1l-22 9c0-5-3-10-8-12l-48-20c-1-1-3-1-5-1-4 0-9 3-11 7l-33 79c-1 0-1 0-2 0-1-1-2-1-3-1-2 0-3 0-5 0-1 0-3 0-4 0-1 0-2 0-3 0-6 0-12 0-17 1 0 0-1 0-1 0-1 0-3 0-4 0-1 0-1 1-2 1-1 0-2 0-3 0-1 0-2 1-3 1-1 0-2 0-2 0-1 0-3 1-4 1 0 0-1 0-1 0-2 1-3 1-5 2 0 0 0 0 0 0-43 13-80 45-100 91-34 79 0 169 74 201 17 7 36 11 55 11 39 0 75-16 103-42 29 41 76 67 125 67 17 0 34-3 50-9 76-29 112-118 81-199z m-247-123l20 50c0 0-1 0-1 0 0 0 0 1 0 1-2 1-3 2-5 3 0 0 0 1 0 1-7-10-16-19-26-27z m-5-49l-33 76c-2 5 0 11 4 15 19 13 33 31 42 52l-152-64c14-6 29-9 45-9 7 0 15 1 22 2 1 0 1 0 2 0 5 0 10-2 11-7l33-76z m157 105l-115 45c-3-9-6-17-10-25 4-4 9-8 14-11 5-3 7-10 5-15l-30-77 26-10 30 77c2 5 8 8 13 8 6-1 13-2 19-2 16 0 33 3 48 10z"/>
<glyph glyph-name="plus" unicode="&#57356;" d="M189 509l-143 0c-25 0-46-20-46-46l0-143c0-25 21-46 46-46l143 0c25 0 46 21 46 46l0 143c0 26-21 46-46 46z m-25-131l-33 0 0-32c0-8-6-14-13-14-8 0-14 6-14 14l0 32-33 0c-7 0-13 6-13 14 0 7 6 13 13 13l33 0 0 33c0 7 6 13 14 13 7 0 13-6 13-13l0-33 33 0c7 0 13-6 13-13 0-8-6-14-13-14z m25-140l-143 0c-25 0-46-21-46-46l0-143c0-26 21-46 46-46l143 0c25 0 46 20 46 46l0 143c0 25-21 46-46 46z m-25-131l-93 0c-7 0-13 6-13 13 0 8 6 14 13 14l93 0c7 0 13-6 13-14 0-7-6-13-13-13z m302 402l-143 0c-25 0-46-20-46-46l0-143c0-25 21-46 46-46l143 0c25 0 46 21 46 46l0 143c0 26-21 46-46 46z m-29-140c5-6 5-14 0-19-3-3-7-4-10-4-3 0-7 1-9 4l-24 23-23-23c-2-3-6-4-9-4-4 0-7 1-10 4-5 5-5 13 0 19l24 23-24 23c-5 5-5 14 0 19 6 5 14 5 19 0l23-23 24 23c5 5 13 5 18 0 6-5 6-14 0-19l-23-23z m29-131l-143 0c-25 0-46-21-46-46l0-143c0-26 21-46 46-46l143 0c25 0 46 20 46 46l0 143c0 25-21 46-46 46z m-72-57c8 0 14-6 14-13 0-8-6-14-14-14-7 0-13 6-13 14 0 7 6 13 13 13z m0-122c-7 0-13 6-13 14 0 7 6 13 13 13 8 0 14-6 14-13 0-8-6-14-14-14z m47 48l-93 0c-7 0-13 6-13 13 0 8 6 14 13 14l93 0c7 0 13-6 13-14 0-7-6-13-13-13z"/>
<glyph glyph-name="note-1" unicode="&#57357;" d="M301 427c-4 19 0 38 11 54 11 15 27 26 46 30 4 1 9 1 13 1 35 0 65-25 71-59 7-39-18-76-57-84-5-1-9-1-14-1-34 0-64 25-70 59z m177-336c-1-4-5-7-9-8l-347-83c-1 0-2 0-3 0-5 0-9 2-11 6-1 2-25 41-48 146-22 104-27 268-27 275 0 6 5 12 12 13l230 18c-2-12-2-24 0-36 2-12 6-22 12-32l-78-62c-6-4-7-12-2-18 2-3 6-5 10-5 3 0 6 1 8 3l78 62c18-18 42-28 68-28 6 0 12 1 18 2 4 0 8 1 12 2 1-21 4-45 7-70 11-99 68-172 68-173 3-3 4-8 2-12z m-179 47c-2 7-9 11-16 9l-137-33c-7-2-12-9-10-16 1-6 7-10 13-10 1 0 2 0 3 1l137 33c7 2 12 9 10 16z m42 107c-1 7-8 11-15 10l-207-43c-7-2-12-8-10-15 1-7 6-11 12-11 1 0 2 0 3 0l207 43c7 2 11 9 10 16z"/>
<glyph glyph-name="notebook" unicode="&#57358;" d="M512 384l0-328c0-8-6-14-13-14l-23 0c-7 0-13 6-13 14l0 328c0 0 0 0 0 0 0 0 0 1 0 2l11 72c1 7 7 12 14 12 6 0 12-5 13-12l11-72c0-1 0-2 0-2 0 0 0 0 0 0z m-108 106l0-468c0-7-6-13-14-13l-327 0c-8 0-14 6-14 13l0 38-36 0c-7 0-13 6-13 13 0 7 6 13 13 13l36 0 0 35-36 0c-7 0-13 6-13 13 0 7 6 13 13 13l36 0 0 35-36 0c-7 0-13 6-13 13 0 7 6 13 13 13l36 0 0 35-36 0c-7 0-13 6-13 13 0 7 6 13 13 13l36 0 0 35-36 0c-7 0-13 6-13 13 0 7 6 13 13 13l36 0 0 35-36 0c-7 0-13 6-13 13 0 7 6 13 13 13l36 0 0 35-36 0c-7 0-13 6-13 13 0 7 6 13 13 13l36 0 0 38c0 7 6 13 14 13l327 0c8 0 14-6 14-13z m-305-172c0-8 6-14 13-14l187 0c7 0 13 6 13 14 0 7-6 13-13 13l-187 0c-7 0-13-6-13-13z m13 47l114 0c7 0 13 6 13 13 0 8-6 14-13 14l-114 0c-7 0-13-6-13-14 0-7 6-13 13-13z m200-230c0 8-6 14-13 14l-187 0c-7 0-13-6-13-14 0-7 6-13 13-13l187 0c7 0 13 6 13 13z m-200 48l158 0c7 0 13 6 13 13 0 7-6 13-13 13l-158 0c-7 0-13-6-13-13 0-7 6-13 13-13z m241 74c0 7-6 13-13 13l-228 0c-7 0-13-6-13-13 0-8 6-13 13-13l228 0c7 0 13 5 13 13z m0 182c0 7-6 13-13 13l-228 0c-7 0-13-6-13-13 0-7 6-13 13-13l228 0c7 0 13 6 13 13z"/>
<glyph glyph-name="medical" unicode="&#57359;" d="M495 403c0 30-24 54-54 54-29 0-53-24-53-54 0-25 17-46 41-52l0-194c0-73-59-132-132-132-73 0-133 59-133 132l0 27c69 7 123 65 123 135l0 128c0 21-12 40-30 48-3 10-12 17-23 17-13 0-24-11-24-24 0-13 11-24 24-24 6 0 12 2 16 6 8-5 12-13 12-23l0-128c0-61-49-110-110-110-61 0-110 49-110 110l0 128c0 10 5 19 12 24 4-4 10-7 17-7 13 0 24 11 24 24 0 13-11 24-24 24-11 0-20-7-23-16-18-8-31-27-31-49l0-128c0-70 54-128 122-135l0-27c0-86 71-157 158-157 86 0 157 71 157 157l0 194c24 6 41 27 41 52z"/>
<glyph glyph-name="heart" unicode="&#57361;" d="M364 475c-53 0-90-34-108-55-18 21-55 55-108 55-71 0-148-49-148-156 0-109 54-165 107-205 64-49 133-72 143-76 2 0 4-1 6-1 0 0 0 0 1 0 1 0 3 1 4 1 10 3 79 27 144 76 53 40 107 96 107 205 0 107-77 156-148 156z"/>
<glyph glyph-name="apple-1" unicode="&#57362;" d="M458 275c-17 42-47 71-85 81-10 3-21 5-32 5-23 0-46-7-67-20 5 22 16 52 40 80 4 5 4 13-2 18-5 5-14 4-18-2-12-13-21-27-28-41l-18 17c2 16 4 56-31 81-17 12-38 18-62 18-18 0-31-3-31-4-6-1-10-7-10-13 0-2 5-54 42-81 21-16 44-19 59-19 5 0 10 1 13 1l27-25c-4-13-7-25-9-34-24 15-50 24-75 24-11 0-22-2-32-5-38-10-68-39-85-81-16-40-18-88-5-134 23-83 88-141 157-141 11 0 22 1 32 4 6 2 12 4 18 7 6-3 12-5 18-7 10-3 21-4 32-4 0 0 0 0 0 0 69 0 134 58 157 141 13 46 11 94-5 134z"/>
<glyph glyph-name="diploma" unicode="&#57364;" d="M413 153c9 1 17 4 24 7l14-68-36-5z m-8 124c-1 0-3 0-4 0-27-2-47-26-45-53 2-25 24-45 49-45 1 0 3 0 4 0 27 2 47 26 45 53-2 25-23 45-49 45z m-18-122c-5 1-9 3-13 5l-13-49 25-4z m125 257l0-277c0-7-6-13-13-13l-28 0-11 55c14 14 22 35 20 57-3 39-36 69-75 69-2 0-4 0-6 0-41-3-72-40-69-81 2-18 9-34 21-46l-14-54-324 0c-7 0-13 6-13 13l0 277c0 7 6 13 13 13l486 0c7 0 13-6 13-13z m-224-191c0 7-6 13-13 13l-212 0c-7 0-13-6-13-13 0-8 6-13 13-13l212 0c7 0 13 5 13 13z m-225 57l159 0c7 0 13 6 13 13 0 7-6 13-13 13l-159 0c-7 0-13-6-13-13 0-7 6-13 13-13z m331 83c0 7-6 13-13 13l-318 0c-7 0-13-6-13-13 0-7 6-13 13-13l318 0c7 0 13 6 13 13z"/>
<glyph glyph-name="certificate" unicode="&#57366;" d="M327 327l1-48-27 4 13 48c4-2 8-3 13-4z m17 23c1 0 3 0 4 0 13 1 24 7 33 16 8 10 12 22 11 35-2 25-23 44-48 44-1 0-2 0-4 0-26-2-45-25-43-52 2-24 23-43 47-43z m8-25l1-48c0 0 0 0 0-1l1-15 35 5-14 65c-7-3-15-5-23-6z m105 174l0-486c0-7-6-13-12-13l-378 0c-6 0-12 6-12 13l0 486c0 7 6 13 12 13l378 0c6 0 12-6 12-13z m-353-66c0-7 6-12 13-12l115 0c7 0 13 5 13 12 0 7-6 13-13 13l-115 0c-7 0-13-6-13-13z m0-50c0-7 6-13 13-13l115 0c7 0 13 6 13 13 0 7-6 12-13 12l-115 0c-7 0-13-5-13-12z m0-51c0-7 6-13 13-13l115 0c7 0 13 6 13 13 0 7-6 13-13 13l-115 0c-7 0-13-6-13-13z m305-257c0 7-5 13-12 13l-280 0c-7 0-13-6-13-13 0-7 6-13 13-13l280 0c7 0 12 6 12 13z m-292 40l181 0c7 0 12 6 12 13 0 7-5 12-12 12l-181 0c-7 0-13-5-13-12 0-7 6-13 13-13z m292 66c0 7-5 12-12 12l-280 0c-7 0-13-5-13-12 0-7 6-13 13-13l280 0c7 0 12 6 12 13z m-12 166c1 1 2 2 3 3 12 15 18 34 17 53-3 38-35 67-73 67-2 0-4 0-6 0-40-3-70-39-66-79 1-17 8-32 20-44l-19-71c0-3 0-7 2-10 2-3 5-5 9-5l45-7 0-8c0-3 2-7 4-9 3-2 5-3 8-3 1 0 2 0 2 0l63 9c3 0 6 2 8 5 2 3 3 6 2 10z"/>
<glyph glyph-name="bus" unicode="&#57367;" d="M500 361l-12 0-47 60 0 33c0 24-20 43-44 43l-282 0c-24 0-44-19-44-43l0-33-47-60-12 0c-7 0-12-6-12-12l0-72c0-7 5-12 12-12l35 0c7 0 12 5 12 12l0 72c0 5-3 8-7 10l19 24 0-272c0-16 9-30 21-37l0-48c0-6 5-11 12-11l38 0c6 0 11 5 11 11l0 41 206 0 0-41c0-6 5-11 11-11l38 0c7 0 12 5 12 11l0 48c12 7 21 21 21 37l0 272 19-24c-4-2-7-5-7-10l0-72c0-7 5-12 12-12l35 0c7 0 12 5 12 12l0 72c0 6-5 12-12 12z m-119-73l-250 0c-6 0-11 5-11 11l0 89c0 6 5 11 11 11l250 0c6 0 11-5 11-11l0-89c0-6-5-11-11-11z m-236-140c-14 0-25 11-25 25 0 13 11 25 25 25 14 0 25-12 25-25 0-14-11-25-25-25z m197 25c0 13 11 25 25 25 14 0 25-12 25-25 0-14-11-25-25-25-14 0-25 11-25 25z m-60 288l105 0c7 0 12-5 12-11 0-7-5-12-12-12l-105 0c-6 0-12 5-12 12 0 6 6 11 12 11z m-157 0l105 0c6 0 12-5 12-11 0-7-6-12-12-12l-105 0c-7 0-12 5-12 12 0 6 5 11 12 11z m181-350l-100 0c-6 0-11 5-11 12 0 6 5 11 11 11l100 0c6 0 11-5 11-11 0-7-5-12-11-12z m0 43l-100 0c-6 0-11 5-11 12 0 6 5 11 11 11l100 0c6 0 11-5 11-11 0-7-5-12-11-12z m0 44l-100 0c-6 0-11 5-11 11 0 7 5 12 11 12l100 0c6 0 11-5 11-12 0-6-5-11-11-11z"/>
<glyph glyph-name="book-search" unicode="&#57368;" d="M233 176c-39 0-71 32-71 71 0 40 32 72 71 72 40 0 72-32 72-72 0-39-32-71-72-71z m212 253l0-415c0-8-6-14-14-14l-350 0c-8 0-14 6-14 14l0 484c0 8 6 14 14 14l350 0c8 0 14-6 14-14 0-7-6-13-14-13l-15 0 0-42 15 0c8 0 14-6 14-14z m-68-314l-70 67c16 17 25 40 25 65 0 55-44 99-99 99-54 0-99-44-99-99 0-54 45-99 99-99 20 0 38 6 53 16l72-68c2-3 6-4 9-4 4 0 7 1 10 4 5 5 5 14 0 19z m12 370l-295 0 0-42 295 0z"/>
<glyph glyph-name="books" unicode="&#57369;" d="M127 481l-100 0c-15 0-27-12-27-26l0-398c0-14 12-26 27-26l100 0c15 0 27 12 27 26l0 398c0 14-12 26-27 26z m-20-391l-62 0c-7 0-13 5-13 13 0 7 6 13 13 13l62 0c8 0 13-6 13-13 0-8-5-13-13-13z m0 181l-62 0c-7 0-13 6-13 13 0 8 6 13 13 13l62 0c8 0 13-5 13-13 0-7-5-13-13-13z m0 53l-62 0c-7 0-13 5-13 13 0 7 6 13 13 13l62 0c8 0 13-6 13-13 0-8-5-13-13-13z m0 52l-62 0c-7 0-13 6-13 13 0 7 6 13 13 13l62 0c8 0 13-6 13-13 0-7-5-13-13-13z m199 105l-100 0c-15 0-27-12-27-26l0-398c0-14 12-26 27-26l100 0c15 0 27 12 27 26l0 398c0 14-12 26-27 26z m-20-391l-62 0c-7 0-13 5-13 13 0 7 6 13 13 13l62 0c8 0 14-6 14-13 0-8-6-13-14-13z m0 181l-62 0c-7 0-13 6-13 13 0 8 6 13 13 13l62 0c8 0 14-5 14-13 0-7-6-13-14-13z m0 53l-62 0c-7 0-13 5-13 13 0 7 6 13 13 13l62 0c8 0 14-6 14-13 0-8-6-13-14-13z m0 52l-62 0c-7 0-13 6-13 13 0 7 6 13 13 13l62 0c8 0 14-6 14-13 0-7-6-13-14-13z m199 105l-100 0c-15 0-27-12-27-26l0-398c0-14 12-26 27-26l100 0c15 0 27 12 27 26l0 398c0 14-12 26-27 26z m-20-391l-62 0c-7 0-13 5-13 13 0 7 6 13 13 13l62 0c8 0 14-6 14-13 0-8-6-13-14-13z m0 181l-62 0c-7 0-13 6-13 13 0 8 6 13 13 13l62 0c8 0 14-5 14-13 0-7-6-13-14-13z m0 53l-62 0c-7 0-13 5-13 13 0 7 6 13 13 13l62 0c8 0 14-6 14-13 0-8-6-13-14-13z m0 52l-62 0c-7 0-13 6-13 13 0 7 6 13 13 13l62 0c8 0 14-6 14-13 0-7-6-13-14-13z"/>
<glyph glyph-name="brush" unicode="&#57370;" d="M399 281l-44 0 7 78c9 8 23 23 27 50 9 57-54 99-56 101-5 3-11 3-15-1-4-4-5-9-3-14 0-1 11-24 1-35-6-5-10-8-14-10-10-6-17-11-22-29-6-21 4-42 10-51l-22-89-32 0-9 100c0 0 0 1 0 1 0 0 0 1 0 2 0 0 0 0 0 0-1 0-1 1-1 2l-42 88-1 1 0 0c0 0 0 0 0 1-2 2-4 4-7 5-1 1-3 1-5 1 0 0 0 0 0 0-2 0-3-1-5-2 0 0 0 0 0 0-1 0-1 0-1 0 0 0-1-1-1-1 0 0 0 0 0 0 0-1-1-1-1-1 0 0 0 0 0 0 0-1-1-1-1-2 0 0 0 0 0 0 0 0-1-1-1-1 0 0 0 0 0 0 0-1 0-1-1-2l-25-97c0-1 0-1 0-2 0 0 0 0 0 0 0-1 0-2 0-2 0 0 0 0 0 0l8-91-30 0c-7 0-13-6-13-12 0-7 6-12 13-12l8 0 31-246c0-6 5-11 11-11l184 0c6 0 11 5 12 11l31 246 9 0c7 0 13 5 13 12 0 6-6 12-13 12z m-87 76l1 0 24-4-6-72-38 0z m-141 60l12 1 14-28-34-3z m-1-54l24 3 8-85-24 0z"/>
<glyph glyph-name="cellphone" unicode="&#57371;" d="M363 512l-214 0c-25 0-46-21-46-46l0-420c0-25 21-46 46-46l214 0c25 0 46 21 46 46l0 420c0 25-21 46-46 46z m-107-487c-12 0-22 10-22 22 0 12 10 22 22 22 12 0 22-10 22-22 0-12-10-22-22-22z m121 65l-242 0 0 368 242 0z m-218 251l0 78c0 7 5 12 12 12l170 0c7 0 12-5 12-12l0-78c0-7-5-13-12-13l-170 0c-7 0-12 6-12 13z m191-55c0-7-5-12-12-12l-164 0c-7 0-12 5-12 12 0 6 5 12 12 12l164 0c7 0 12-6 12-12z m-188-53c0 7 5 12 12 12l115 0c7 0 12-5 12-12 0-6-5-12-12-12l-115 0c-7 0-12 6-12 12z m139-104c0-7-5-12-12-12l-115 0c-7 0-12 5-12 12 0 6 5 12 12 12l115 0c7 0 12-6 12-12z m31 52c0-7-6-12-12-12l-146 0c-7 0-12 5-12 12 0 7 5 12 12 12l146 0c6 0 12-5 12-12z"/>
<glyph glyph-name="comedy" unicode="&#57372;" d="M508 313c-4 6-9 10-17 12l-178 45c-1 26-3 53-7 80-2 15-14 25-28 25-2 0-3 0-5 0l-249-41c-8-1-14-5-19-11-4-7-6-15-4-23 31-166 111-287 191-287 0 0 0 0 0 0 4 0 8 0 12 1 8 1 16 4 23 7 14-44 38-74 71-82 6-2 12-2 18-2 0 0 0 0 0 0 36 0 76 26 112 74 34 46 64 110 83 180 2 7 1 15-3 22z m-197-11l8 1c3 0 7-1 9-3 2-3 4-6 4-9-1-10-7-28-28-35 3 15 5 30 7 46z m-124 54c2 12 13 35 44 35l1 0c30 0 41-22 43-35 0-1 0-1 0-2 0-7-5-12-12-12 0 0 0 0 0 0 0 0 0 0 0 0l-64 1c-3 0-6 1-9 4-2 2-3 5-3 9z m-115-47c-2 0-4 0-5 1-3 1-6 4-7 7-3 12-3 38 27 50 6 3 13 4 19 4 19 0 31-12 35-20 1-3 2-6 1-9-1-4-4-6-7-7l-59-25c-1-1-3-1-4-1z m123-140c-3 0-7-1-11-1-56 0-73 71-74 74 0 3 0 7 2 9 2 3 5 5 8 5l119 20c3 0 6 0 9-2 2-2 4-5 4-9 3-29-5-87-57-96z m191-59c-1-4-2-6-5-8-2-1-4-2-7-2-1 0-2 0-2 0l-110 27c-3 1-6 3-7 6-2 3-2 6-1 9 12 12 22 29 31 49 10 9 23 15 39 15 5 0 10 0 15-2 49-12 52-67 47-94z m71 126c-2-2-12-16-31-16-8 0-15 2-22 6-27 15-25 39-20 50 1 3 3 5 7 7 3 1 6 0 9-1l52-29c3-2 6-4 6-8 1-3 0-6-1-9z"/>
<glyph glyph-name="bell-1" unicode="&#57373;" d="M508 300l-39 39c5 7 7 15 7 24 0 12-4 23-12 31-8 8-19 12-31 12-9 0-17-2-24-7l-110 109c-4 5-11 5-16 2-5-4-7-10-5-16 0 0 8-19 8-44 0-21-20-52-61-93-47-47-42-88-30-113 0 0 0 0 0 0-6-5-9-12-10-19l-172-160c0 0 0-1 0-1-8-7-13-17-13-27 0-10 3-19 11-26 6-7 15-11 25-11 10 0 20 5 28 13 0 0 0 0 1 0l160 172c7 1 14 4 19 10 0 0 0 0 0 0 11-5 23-8 35-8 27 0 53 13 78 38 41 41 72 61 93 61l1 0c24 0 43-8 43-8 2 0 4-1 6-1 6 0 12 6 12 13 0 4-2 7-4 10z"/>
<glyph glyph-name="medal-1" unicode="&#57374;" d="M282 164l37-5-27-27c-3-2-4-6-3-10l6-37-33 17c-4 2-8 2-12 0l-33-17 6 37c1 4 0 8-3 10l-27 27 37 5c4 1 8 3 9 7l17 33 17-33c1-4 5-6 9-7z m-26 111c76 0 138-61 138-137 0-76-62-138-138-138-76 0-138 62-138 138 0 76 62 137 138 137z m0-31c-5 0-9-3-11-7l-25-50-55-8c-4-1-8-4-9-8-2-5-1-9 3-13l40-39-10-55c-1-4 1-9 5-11 4-3 9-3 13-1l49 26 49-26c2-1 4-2 6-2 2 0 5 1 7 3 4 2 6 7 5 11l-10 55 40 39c4 4 5 8 3 13-1 4-5 7-9 8l-56 8-24 50c-2 4-6 7-11 7z m-96 71l38-26c18 7 37 11 58 11 21 0 40-4 58-11l38 26c3 2 5 6 5 10l0 175c0 7-5 12-12 12l-178 0c-7 0-12-5-12-12l0-175c0-4 2-8 5-10z"/>
<glyph glyph-name="headphones" unicode="&#57376;" d="M474 223l-5 0 0 27c0 64-21 119-62 159-39 38-92 59-150 59-58 0-111-21-150-59-40-40-62-95-62-159l0-27-7 0c-21 0-38-17-38-38l0-102c0-21 17-39 38-39l47 0c8 0 14 7 14 15l0 150c0 8-6 14-14 14l-15 0 0 27c0 114 77 193 187 193 111 0 188-79 188-193l0-27-18 0c-8 0-14-6-14-14l0-150c0-8 6-15 14-15l47 0c21 0 38 18 38 39l0 102c0 21-17 38-38 38z"/>
<glyph glyph-name="football" unicode="&#57377;" d="M256 512c-141 0-256-115-256-256 0-141 115-256 256-256 141 0 256 115 256 256 0 141-115 256-256 256z m179-263c-3 4-3 10 0 14l37 66c8-23 12-48 12-73 0-25-4-50-12-73z m-3 152l-75 3c-5 0-10 3-12 7l-36 67c49-12 92-39 123-77z m-78-145l-49-85-98 0-49 85 49 85 98 0z m-154 221l-35-67c-2-5-7-8-12-8l-75-4c30 39 73 67 122 79z m-160-148l38-66c2-4 2-10 0-14l-38-66c-8 23-12 48-12 73 0 25 4 50 12 73z m40-218l75-3c5 0 10-3 12-7l36-67c-49 12-92 39-123 77z m232-76l35 67c2 5 7 8 12 8l75 4c-30-39-73-67-122-79z"/>
<glyph glyph-name="email" unicode="&#57378;" d="M512 394l0-276-189 138z m-512 0l0-276 189 138z m502 25c-3 2-6 4-10 4 0 0-1 0-1 0l-470 0c0 0-1 0-2 0 0 0 0 0 0 0-1 0-1 0-2 0-3-1-6-2-8-4l247-179z m-201-179l-37-27c-3-1-5-2-8-2-3 0-5 1-8 2l-37 27-202-148c4-2 8-3 12-3l470 0c4 0 8 1 11 3z"/>
<glyph glyph-name="desk" unicode="&#57379;" d="M499 427l-308 0c-7 0-13-5-13-13 0-7 6-13 13-13l87 0 0-38c0-8 6-14 13-14l30 0 0-249-31 0c-19 0-35-16-35-35 0-7 6-13 13-13l207 0c0 0 0 0 0 0l0 0c8 0 13 6 13 13l0 22c0 7-5 13-13 13-14 0-26 12-26 26l0 187c0 15 12 26 26 26 8 0 13 6 13 13l0 49 11 0c7 0 13 6 13 13 0 8-6 13-13 13z m-304-156l-154 0-15 177c-1 7-7 12-14 12-7-1-13-7-12-14l18-216 0-165c0-7 6-13 13-13 8 0 13 6 13 13l0 26 148 0 0-26c0-7 5-13 13-13 7 0 13 6 13 13l0 152 4 0c0 0 0 0 0 0 8 0 13 6 13 13 0 1 0 1 0 2 0 21-18 39-40 39z m-3-154l-148 0 0 100 148 0z"/>
<glyph glyph-name="music" unicode="&#57380;" d="M480 509c-3 3-8 4-12 2l-286-94c-6-1-9-6-9-12l0-257c-16 15-37 25-60 25-48 0-87-39-87-87 0-47 39-86 87-86 47 0 86 39 86 86l0 247 260 82 0-194c-15 15-36 25-60 25-47 0-86-39-86-87 0-47 39-86 86-86 48 0 87 39 87 86 0 2 0 3 0 5 0 0 0 0 0 1l0 334c0 4-2 8-6 10z"/>
<glyph glyph-name="lamp" unicode="&#57382;" d="M448 271c-4 0-8 0-12-1l-104 104 12 12c10 10 15 24 15 38 0 14-5 28-15 38l-35 34c-10 10-23 16-38 16-14 0-28-6-38-16l-54-54c-15 5-32 8-49 8-44 0-86-18-118-49-5-5-5-13 0-17l60-61c-3-8-4-16-4-26 0-40 32-72 72-72 10 0 18 1 26 4l65-64c2-3 5-4 9-4 3 0 6 1 8 4 32 31 49 73 49 118 0 17-2 33-7 49l7 8 100-100c-3-8-5-16-5-25 0-7 1-15 4-21l-101-101c-7 0-13 1-20 1-65 0-124-31-145-77-2-3-2-8 0-11 2-4 6-6 10-6l270 0c4 0 8 2 10 6 3 3 3 8 1 11-13 27-38 49-71 62l83 82c4-1 9-2 15-2 30 0 55 25 55 56 0 31-25 56-55 56z"/>
<glyph glyph-name="food" unicode="&#57383;" d="M483 382l-107 0 0 39c0 11 6 21 16 26l82 42c6 3 8 10 5 16-3 6-10 9-16 6l-82-43c-18-9-29-27-29-47l0-39-107 0c-6 0-12-5-12-12l0-18c0-7 6-12 12-12l4 0 9-153c-5 1-10 1-15 1l-139 0c-48 0-87-39-87-86 0-10 7-19 15-21 0-2 0-4 0-7 0-2 0-4 0-6-8-3-15-11-15-21l0-25c0-12 10-22 22-22l410 0c6 0 11 5 12 12l18 328 4 0c6 0 12 5 12 12l0 18c0 7-6 12-12 12z m-379-218l139 0c33 0 61-27 62-60l-264 0c2 33 29 60 63 60z m-63-119l264 0 0-21-264 0z"/>
<glyph glyph-name="folder" unicode="&#57384;" d="M498 486l-484 0c-8 0-14-6-14-14l0-432c0-8 6-14 14-14l484 0c8 0 14 6 14 14l0 432c0 8-6 14-14 14z m-222-392l-202 0c-8 0-14 7-14 14 0 8 6 15 14 15l202 0c7 0 14-7 14-15 0-7-7-14-14-14z m60 70l-262 0c-8 0-14 6-14 14 0 8 6 15 14 15l262 0c8 0 15-7 15-15 0-8-7-14-15-14z m148 213l-210 0-32 51c-3 4-8 7-13 7l-201 0 0 23 456 0z"/>
<glyph glyph-name="desk-1" unicode="&#57386;" d="M500 406l-488 0c-7 0-12-5-12-12l0-25c0-6 5-12 12-12l16 0 0-217c-8-4-13-13-13-22 0-7 5-12 12-12l26 0c0 0 0 0 0 0 7 0 12 5 12 12 0 0 0 1 0 1-1 9-6 17-13 21l0 53 233 0 0-75c0-6 5-12 12-12l171 0c7 0 12 6 12 12l0 239 20 0c7 0 12 6 12 12l0 25c0 7-5 12-12 12z m-55-135l0-124-123 0 0 124z m-123 35l0 44 123 0 0-44z m-270 24l0 27 233 0 0-27z"/>
<glyph glyph-name="cell" unicode="&#57387;" d="M500 226l-67 0-45 78c-2 3-6 5-10 5l-89 0-42 72 45 78c3 5 1 12-4 16-6 3-13 1-16-5l-45-77-83 0-45 77c-3 6-10 8-16 5-5-4-7-11-4-16l45-78-45-77c-2-4-2-9 0-12l45-78-41-72-71 0c-7 0-12-5-12-11 0-7 5-12 12-12l71 0 44-77c2-4 6-6 10-6l97 0c4 0 8 2 10 6l45 77 89 0c4 0 8 2 10 6l45 78 67 0c7 0 12 5 12 11 0 7-5 12-12 12z m-356 144l83 0 41-72-41-72-83 0-41 72z m83-311l-83 0-41 72 41 72 83 0 41-72z"/>
<glyph glyph-name="columns" unicode="&#57389;" d="M413 257l0-243c0-7-6-14-14-14l-286 0c-8 0-14 7-14 14l0 243c14 0 27 4 39 9l0-220c0-8 7-14 14-14 8 0 15 6 15 14l0 237c0 0-1 1-1 1 18 17 31 39 35 63l6 0 0-301c0-8 7-14 14-14 8 0 15 6 15 14l0 301 40 0 0-301c0-8 7-14 15-14 7 0 14 6 14 14l0 301 6 0c4-24 17-46 35-63 0 0-1-1-1-1l0-237c0-8 7-14 15-14 7 0 14 6 14 14l0 220c12-5 25-9 39-9z m5 123c-9 0-16-7-16-15 0-9 7-16 16-16 8 0 15 7 15 16 0 8-7 15-15 15z m-325 0c-8 0-15-7-15-15 0-9 7-16 15-16 9 0 16 7 16 16 0 8-7 15-16 15z m405-15c0-6-1-11-2-16-7-37-39-64-78-64-2 0-3 0-5 0-42 2-75 37-75 80 0 3 0 7 1 11l-166 0c1-4 1-8 1-11 0-43-33-78-75-80-2 0-3 0-5 0-39 0-71 27-78 64-1 5-2 10-2 16 0 5 1 11 2 16 7 36 39 64 78 64l324 0c39 0 71-28 78-64 1-5 2-11 2-16z m-361 0c0 24-20 43-44 43-24 0-43-19-43-43 0-24 19-44 43-44 24 0 44 20 44 44z m324 0c0 24-19 43-43 43-24 0-44-19-44-43 0-24 20-44 44-44 24 0 43 20 43 44z m37 147l-484 0c-8 0-14-7-14-14l0-20c0-8 6-14 14-14l484 0c8 0 14 6 14 14l0 20c0 7-6 14-14 14z"/>
<glyph glyph-name="download-book" unicode="&#57390;" d="M309 198l22 0-75-104-75 104 22 0c8 0 14 6 14 13l0 98 78 0 0-98c0-7 6-13 14-13z m136 231l0-415c0-8-6-14-14-14l-350 0c-8 0-14 6-14 14l0 484c0 8 6 14 14 14l350 0c8 0 14-6 14-14 0-7-6-13-14-13l-15 0 0-42 15 0c8 0 14-6 14-14z m-75-211c-2 4-7 7-12 7l-36 0 0 98c0 7-6 13-13 13l-106 0c-7 0-13-6-13-13l0-98-36 0c-5 0-10-3-12-7-2-5-2-10 1-15l102-140c3-4 7-6 11-6 4 0 8 2 11 6l102 140c3 5 3 10 1 15z m19 267l-295 0 0-42 295 0z"/>
<glyph glyph-name="book-read" unicode="&#57391;" d="M469 323c-2 2-6 3-10 3l-124-22c0 0 0 0 0 0 10 1 26 8 33 35 4 15 3 28-3 37-2 4-5 7-8 8 0 5-1 12-2 19 1 10 4 63-29 87-20 14-42 22-64 22-18 0-35-5-48-14-12-8-18-17-22-24-11 0-31-5-40-32-8-23-3-39 3-48 0-4 0-7 0-10-3-1-6-4-9-8-6-9-7-22-3-37 7-26 22-33 32-35l-122 22c-4 0-8-1-10-3-3-2-5-6-5-9l0-256c0-6 4-11 10-12l169-30 0-4c0-7 6-12 13-12l53 0c6 0 12 5 12 12l0 4 169 30c6 1 10 6 10 12l0 256c0 3-2 7-5 9z m-199-299l-28 0 0 240 29 0 0-240z m-14 266l-49 8c-5 9-10 18-12 23-2 4-6 7-10 7-1 0-2 0-3 0 0 0 0 0 0 0-7 0-12 6-15 17-3 11-2 18 2 20 3 0 6 2 8 4 2 2 2 6 2 9 0 0 0 4 0 11 8 3 19 9 28 20 5 5 8 10 11 16 7-6 16-12 29-17 22-10 65-15 85-17 1-8 0-13 0-13 0-7 4-12 11-13 0 0 1-1 2-2 2-3 2-10 0-18-3-11-9-17-15-17 0 0 0 0 0 0-6 1-11-2-14-7-2-5-6-14-12-23z m180-114l-119-24c-1 0-2 0-3 0-5 0-10 4-12 10-1 6 3 13 10 14l119 23c7 2 13-3 14-9 2-7-3-13-9-14z m0 63l-119-24c-1 0-2 0-3 0-5 0-10 4-12 10-1 6 3 13 10 14l119 24c7 1 13-3 14-10 2-7-3-13-9-14z"/>
<glyph glyph-name="multimedia" unicode="&#57393;" d="M363 512l-214 0c-25 0-46-21-46-46l0-420c0-25 21-46 46-46l214 0c25 0 46 21 46 46l0 420c0 25-21 46-46 46z m-107-487c-12 0-22 10-22 22 0 12 10 22 22 22 12 0 22-10 22-22 0-12-10-22-22-22z m121 65l-242 0 0 368 242 0z m-121 261c-44 0-81-37-81-81 0-44 37-81 81-81 44 0 81 37 81 81 0 44-37 81-81 81z m33-91l-44-26c-2-1-4-2-6-2-2 0-4 1-6 2-4 2-6 6-6 10l0 52c0 4 2 8 6 10 4 2 8 2 12 0l44-26c4-2 6-6 6-10 0-4-2-8-6-10z"/>
<glyph glyph-name="medal" unicode="&#57394;" d="M445 326c12 4 19 17 16 30 0 2-1 4-1 5-4 13-17 20-29 18 10 7 13 21 6 33-1 1-2 3-3 4-7 11-21 15-32 9 8 10 6 24-3 33-2 1-3 3-4 4-10 8-25 8-34-1 5 12 0 25-12 31-2 1-3 2-5 2-12 6-26 1-32-10 1 13-8 24-21 26-2 1-3 1-5 1-13 2-25-6-28-19-2 13-14 21-27 20-2 0-4-1-6-1-12-2-22-13-21-26-6 11-19 16-31 11-2 0-4-1-5-2-12-5-18-19-13-31-9 9-24 10-34 2-1-1-3-3-4-4-10-8-11-23-4-33-11 6-25 3-33-8-1-1-2-3-3-4-7-11-4-26 6-34-12 3-25-4-29-16-1-2-1-4-2-5-3-13 3-26 15-31-13 0-23-11-23-24 0-1 0-3 0-5l0 0c0-13 10-24 23-25-12-4-19-17-16-30 0-1 1-3 1-5 4-12 17-20 29-17-10-8-13-22-6-33 1-2 2-3 3-5 7-11 21-14 32-8-8-10-7-25 3-34 1-1 3-2 4-3 4-3 8-5 12-6l-26-88c-1-3-1-7 1-9 1-3 4-5 7-6l104-31c1-1 2-1 3-1 5 0 10 3 12 9l26 87 26-87c2-6 7-9 12-9 1 0 2 0 3 1l104 31c3 1 6 3 7 6 2 2 2 6 1 9l-25 86c2 1 5 2 7 4 1 1 3 3 4 4 10 8 11 23 4 33 11-6 25-3 33 8 1 1 2 3 3 4 7 11 4 26-6 34 12-3 25 4 29 16 1 2 1 4 2 5 3 13-3 26-15 30 12 1 23 12 23 25 0 1 0 3 0 5l0 0c0 14-10 24-23 25z m-189-190c-91 0-165 74-165 165 0 91 74 165 165 165 91 0 165-74 165-165 0-91-74-165-165-165z m0 305c-77 0-140-62-140-140 0-77 63-140 140-140 77 0 140 63 140 140 0 78-63 140-140 140z m36-227l-72 0c-7 0-12 6-12 12 0 7 5 13 12 13l26 0 0 107-17-17c-5-5-13-5-17 0-5 5-5 13 0 18l37 37c4 4 9 5 14 3 4-2 7-6 7-11l0-137 22 0c7 0 12-6 12-13 0-6-5-12-12-12z"/>
<glyph glyph-name="knife" unicode="&#57395;" d="M511 480c-1 5-5 8-10 9l-126 18c-4 0-8-1-11-4l-74-73c-5 5-12 7-20 7-8 0-15-3-21-8l-208-208c-26-27-41-62-41-100 0-38 15-74 41-100l4-4c8-8 17-12 28-12 10 0 20 4 27 12l225 225c21 20 32 48 32 76 0 1 0 1 0 1l151 148c4 4 5 9 3 13z m-139-111l-94 13 37 37 94-13z m-183-74l95-13-155-152c-9-9-23-13-35-10-14 3-25 12-29 26-4 13 0 27 10 36z m117 10l-94 13 43 42 94-14z m126 123l-94 13 40 39 94-13z m-343-284c-5 4-7 10-7 16 0 6 2 11 7 15l43 43c4 4 9 6 15 6 6 0 11-2 15-6l2-2c4-4 6-10 6-15 0-6-2-12-6-16l-43-42c-5-4-10-6-16-6-5 0-11 2-15 6z"/>
<glyph glyph-name="gym" unicode="&#57396;" d="M508 409l-31 31 7 7c5 5 5 12 0 17l-20 20c-5 5-12 5-17 0l-7-7-31 31c-5 5-12 5-17 0l-30-30-14 14c-5 5-13 5-18 0l-38-38c-3-3-4-6-4-9 0-3 1-6 4-9l53-54-215-215-54 53c-5 5-13 5-18 0l-38-38c-3-3-4-6-4-9 0-3 1-6 4-9l14-14-30-30c-3-2-4-5-4-9 0-3 1-6 4-8l31-31-7-7c-5-5-5-12 0-17l20-20c2-2 5-3 9-3 3 0 6 1 8 3l7 7 31-31c2-3 5-4 8-4 4 0 7 1 9 4l30 30 14-14c3-3 6-4 9-4 3 0 6 1 9 4l38 38c5 5 5 13 0 18l-53 54 215 215 54-53c3-3 6-4 9-4 3 0 6 1 9 4l38 38c5 5 5 13 0 18l-14 14 30 30c5 5 5 12 0 17z"/>
<glyph glyph-name="chemistry" unicode="&#57397;" d="M506 82l-109 167 0 144 4 0c7 0 12 6 12 13 0 6-5 12-12 12l-4 0 0 57c0 6-6 12-12 12l-96 0c-6 0-12-6-12-12l0-57-4 0c-6 0-12-6-12-12 0-7 6-13 12-13l4 0 0-144-109-167c-7-11-8-25-1-37 6-12 18-20 32-20l276 0c14 0 26 8 33 20 6 12 5 26-2 37z m-134 311l0-65-70 0 0 65z m-243-84l-5 0 0 45c0 7-5 13-12 13l-83 0c-6 0-12-6-12-13l0-45-5 0c-7 0-12-6-12-12 0-7 5-13 12-13l5 0 0-210c0-27 22-49 48-49l11 0c27 0 49 22 49 49l0 210 4 0c7 0 12 6 12 13 0 6-5 12-12 12z m-29-85l-59 0 0 60 59 0z"/>
<glyph glyph-name="emc2" unicode="&#57398;" d="M124 300c-6-5-25-11-45-14 0 1 0 1 0 2 5 14 18 20 29 20 1 0 2 0 2 0 4 0 12-2 14-8z m388 120l0-288c0-1 0-2 0-3l0-37c0-7-6-12-12-12l-488 0c-6 0-12 5-12 12l0 37c0 1 0 2 0 3l0 288c0 7 5 12 12 12l488 0c7 0 12-5 12-12z m-107-74c3-6 10-8 16-6 2 1 4 2 7 3-2-6-6-8-7-9-5-1-8-6-7-12 0-6 5-10 11-10l26-2c0 0 1 0 1 0 6 0 11 4 12 11 0 6-5 12-11 12l-4 0c2 4 3 7 3 11 2 11-3 17-6 19-11 8-28 2-35-1-6-3-9-10-6-16z m-42-115c9-7 21-9 30-9 10 0 18 2 20 3 6 1 10 8 8 14-1 6-8 10-14 8-6-1-22-3-29 3-3 2-4 8-4 15 1 9 3 14 8 17 7 4 20 1 23-1 6-2 13 0 16 6 2 6-1 13-7 16-2 1-26 10-45-1-7-5-17-14-18-35-2-19 6-30 12-36z m-136 1c1-7 6-11 12-11 7 0 12 5 12 11l1 32c1 10 4 18 8 23 1 1 3 2 5 2 2 0 3-1 3-2 5-5 5-19 4-33-2-8-3-15-3-20-1-6 3-12 9-13 6-1 12 3 14 9 0 3 2 10 3 20 4 20 11 36 15 39 1 0 1 0 2-1 5-7 4-34-1-55-1-6 3-12 9-14 1 0 2 0 3 0 5 0 10 4 11 9 2 9 12 55-4 75-5 6-11 9-19 10-9 0-17-5-22-13-1 0-1 1-2 2-5 7-13 10-22 11-4 0-8-1-12-3-1 6-5 10-11 10-7 0-12-5-12-11l-2-43c-2-16-1-31-1-34z m-64 55c0-7 5-12 12-12l21 0c7 0 12 5 12 12 0 6-5 12-12 12l-21 0c-7 0-12-6-12-12z m0-34c0-7 5-12 12-12l21 0c7 0 12 5 12 12 0 6-5 11-12 11l-21 0c-7 0-12-5-12-11z m-101-4c8-14 22-24 38-27 3 0 5 0 7 0 25 0 40 21 40 22 4 6 2 13-3 17-5 3-13 2-16-4-1 0-10-14-24-11-9 1-17 7-22 15 0 0-1 1-1 1 18 3 51 10 62 24 3 5 5 10 4 15-2 17-16 29-34 30-20 2-46-8-56-35-5-16-4-33 5-47z m426-129l-464 0 0-17 464 0z"/>
<glyph glyph-name="school-1" unicode="&#57400;" d="M501 138l-13 0 0 121c0 7-5 12-11 12l-139 0 0 57 9-5c2-1 3-2 5-2 4 0 8 2 10 6 3 5 1 12-4 15l-26 15c0 0 0 0 0 0l-68 38c0 0 0 0 0 0 0 0 0 1 0 1-1 0-1 0-1 0 0 0-1 0-1 0 0 0 0 0 0 0 0 0 0 0 0 0-1 0-1 1-2 1 0 0 0 0 0 0 0 0 0 0 0 0 0 0 0 0 0 0-1 0-1 0-2 0 0 0 0 0 0 0 0 0 0 0 0 0 0 0 0 0 0 0-1 0-1-1-2-1 0 0 0 0 0 0 0 0 0 0 0 0 0 0-1 0-1 0 0 0 0 0-1 0 0 0 0-1 0-1 0 0 0 0-1 0l-67-38c0 0 0 0 0 0l-26-15c-5-3-7-10-4-15 2-4 6-6 10-6 2 0 3 1 5 2l9 5 0-57-139 0c-6 0-11-5-11-12l0-121-19 0c-6 0-11-5-11-12 0-6 5-11 11-11l490 0c6 0 11 5 11 11 0 7-5 12-11 12z m-424 6l-23 0 0 37 23 0z m0 62l-23 0 0 36 23 0z m38-62l-22 0 0 37 22 0z m0 62l-22 0 0 36 22 0z m39-62l-22 0 0 37 22 0z m0 62l-22 0 0 36 22 0z m73-57l-22 0 0 35 22 0z m0 72l-22 0 0 35 22 0z m0 72l-22 0 0 35 22 0z m43-144l-22 0 0 35 22 0z m0 72l-22 0 0 35 22 0z m0 72l-22 0 0 35 22 0z m43-144l-23 0 0 35 23 0z m0 72l-23 0 0 35 23 0z m0 72l-23 0 0 35 23 0z m73-149l-22 0 0 37 22 0z m0 62l-22 0 0 36 22 0z m39-62l-22 0 0 37 22 0z m0 62l-22 0 0 36 22 0z m38-62l-22 0 0 37 22 0z m0 62l-22 0 0 36 22 0z"/>
<glyph glyph-name="cd" unicode="&#57401;" d="M256 512c-141 0-256-115-256-256 0-141 115-256 256-256 141 0 256 115 256 256 0 141-115 256-256 256z m0-360c-57 0-104 47-104 104 0 57 47 104 104 104 57 0 104-47 104-104 0-57-47-104-104-104z m0 182c-43 0-78-35-78-78 0-43 35-78 78-78 43 0 78 35 78 78 0 43-35 78-78 78z m0-127c-27 0-49 22-49 49 0 27 22 49 49 49 27 0 49-22 49-49 0-27-22-49-49-49z"/>
<glyph glyph-name="movie-1" unicode="&#57402;" d="M499 512l-486 0c-7 0-13-6-13-13l0-486c0-7 6-13 13-13l486 0c7 0 13 6 13 13l0 486c0 7-6 13-13 13z m-473-486l0 18 19 0c11 0 20 9 20 20l0 26c0 10-9 19-20 19l-19 0 0 31 1 0c28 0 51 19 51 41l0 154c0 23-23 41-51 41l-1 0 0 29 19 0c11 0 20 8 20 19l0 26c0 11-9 19-20 19l-19 0 0 17 460 0 0-17-25 0c-11 0-19-8-19-19l0-26c0-11 8-19 19-19l25 0 0-29-7 0c-28 0-50-18-50-41l0-154c0-22 22-41 50-41l7 0 0-31-25 0c-11 0-19-9-19-19l0-26c0-11 8-20 19-20l25 0 0-18-460 0z m322 114l-190 0c-30 0-56 25-56 56l0 124c0 31 26 56 56 56l190 0c31 0 56-25 56-56l0-124c0-31-25-56-56-56z m-195-50l0-26c0-11-9-20-19-20l-26 0c-11 0-20 9-20 20l0 26c0 10 9 19 20 19l26 0c10 0 19-9 19-19z m88 0l0-26c0-11-8-20-19-20l-26 0c-11 0-19 9-19 20l0 26c0 10 8 19 19 19l26 0c11 0 19-9 19-19z m89 0l0-26c0-11-9-20-20-20l-26 0c-10 0-19 9-19 20l0 26c0 10 9 19 19 19l26 0c11 0 20-9 20-19z m88 0l0-26c0-11-9-20-19-20l-26 0c-11 0-20 9-20 20l0 26c0 10 9 19 20 19l26 0c10 0 19-9 19-19z m-330 334l0 26c0 11 9 19 20 19l26 0c10 0 19-8 19-19l0-26c0-11-9-19-19-19l-26 0c-11 0-20 8-20 19z m89 0l0 26c0 11 8 19 19 19l26 0c11 0 19-8 19-19l0-26c0-11-8-19-19-19l-26 0c-11 0-19 8-19 19z m88 0l0 26c0 11 9 19 19 19l26 0c11 0 20-8 20-19l0-26c0-11-9-19-20-19l-26 0c-10 0-19 8-19 19z m153 26l0-26c0-11-9-19-19-19l-26 0c-11 0-20 8-20 19l0 26c0 11 9 19 20 19l26 0c10 0 19-8 19-19z"/>
<glyph glyph-name="mail" unicode="&#57403;" d="M147 418c0 7 5 13 13 13l182 0c8 0 14-6 14-13 0-8-6-13-14-13l-182 0c-8 0-13 5-13 13z m365-100l0-233c0-31-24-55-55-55l-402 0c-31 0-55 24-55 55l0 233c0 31 24 55 55 55l40 0 0 73c0 20 16 36 36 36l245 0c20 0 36-16 36-36l0-73 45 0c31 0 55-24 55-55z m-39-226l-164 106 164 116c6 4 7 12 3 18-4 6-12 7-18 3l-72-50 0 161c0 6-4 10-10 10l-245 0c-6 0-10-4-10-10l0-158-66 46c-6 4-14 3-19-3-4-6-2-14 4-18l164-116-164-107c-6-3-8-12-4-18 3-3 7-6 11-6 3 0 5 1 7 3l173 112c0 0 0 0 0 0l7-5c7-4 14-7 22-7 8 0 15 3 22 7l8 6 172-112c3-1 5-2 7-2 5 0 9 2 11 6 4 6 3 14-3 18z m-313 254l182 0c8 0 14 6 14 13 0 8-6 13-14 13l-182 0c-8 0-13-5-13-13 0-7 5-13 13-13z m0-58l182 0c8 0 14 6 14 13 0 7-6 13-14 13l-182 0c-8 0-13-6-13-13 0-7 5-13 13-13z"/>
<glyph glyph-name="vegetables" unicode="&#57404;" d="M396 39l0-27c0-6-6-12-12-12l-256 0c-6 0-12 6-12 12l0 27z m-12 406c-6 0-12 0-17-1-21 42-64 68-111 68-47 0-90-26-110-68-6 1-12 1-18 1-68 0-123-55-123-124 0-64 49-116 111-123l0-135 36 0 0 128c0 7 5 12 12 12 7 0 12-5 12-12l0-128 68 0 0 128c0 7 5 12 12 12 7 0 12-5 12-12l0-128 68 0 0 128c0 7 5 12 12 12 7 0 12-5 12-12l0-128 36 0 0 135c62 7 111 59 111 123 0 69-55 124-123 124z"/>
<glyph glyph-name="audio-book" unicode="&#57407;" d="M188 264l38 26 0-120-38 26c-2 2-4 3-7 3l-45 0 0 63 45 0c3 0 5 0 7 2z m257 166l0-418c0-6-6-12-13-12l-352 0c-7 0-13 6-13 12l0 488c0 6 6 12 13 12l352 0c7 0 13-6 13-12 0-7-6-13-13-13l-16 0 0-44 16 0c7 0 13-6 13-13z m-353 13l299 0 0 44-299 0z m159-130c0 5-3 9-7 11-4 2-9 2-12 0l-55-38-54 0c-6 0-12-5-12-12l0-88c0-7 6-12 12-12l54 0 55-37c2-2 4-3 7-3 2 0 4 1 5 2 4 2 7 6 7 11z m85-83c0 45-32 68-33 69-6 4-13 3-17-3-4-5-3-13 3-17 1-1 23-17 23-49 0-32-22-48-23-49-6-4-7-11-3-17 2-3 6-5 10-5 2 0 5 0 7 2 1 1 33 24 33 69z m63 0c0 69-49 104-51 106-6 4-14 2-18-3-4-6-2-13 3-17 2-1 41-30 41-86 0-55-39-84-41-85-5-4-7-12-3-18 3-3 7-5 10-5 3 0 5 1 8 2 2 2 51 37 51 106z"/>
<glyph glyph-name="coffee" unicode="&#57409;" d="M500 142l-118 0c27 21 45 54 45 92l0 81c0 6-6 12-12 12l-22 0 27 50c3 6 1 13-5 16-6 3-14 1-17-5l-33-61-261 0c-7 0-12-6-12-12l0-24c-1 0-3 0-4 0l-38 0c-27 0-50-22-50-50l0-1c0-44 36-81 81-81l38 0c5-6 11-12 18-17l-118 0c-7 0-12-6-12-12 0-7 5-13 12-13l481 0c7 0 12 6 12 13 0 6-5 12-12 12z m-419 42c-31 0-57 25-57 56l0 1c0 14 12 26 26 26l38 0c1 0 3 0 4 1l0-34c0-18 4-35 11-50z"/>
<glyph glyph-name="ebook" unicode="&#57412;" d="M508 471c-3 2-7 3-10 3l-28-5c-1 1-3 1-5 2-2 0-55 8-101 8-22 0-38-2-50-6-28-8-47-24-58-35-11 11-30 27-58 35-12 4-28 6-50 6-46 0-99-8-101-8-2-1-4-1-5-2l-28 5c-3 0-7-1-10-3-2-2-4-6-4-9l0-304c0-6 4-11 10-12l149-26 0-40c0-26 21-47 47-47l117 0c26 0 46 21 46 47l0 43 133 23c6 1 10 6 10 12l0 304c0 3-2 7-4 9z m-349-138l0-157c-3 0-6 0-9 0-34 0-70-4-89-7l0 279c17 2 54 6 87 6 19 0 34-1 43-4 30-9 47-28 53-36l0-34-38 0c-26 0-47-21-47-47z m105-279c-8 0-14 7-14 14 0 8 6 15 14 15 8 0 15-7 15-15 0-7-7-14-15-14z m76 47l-151 0 0 234 151 0 0-234z m111 68c-18 3-50 7-82 7l0 157c0 26-20 47-46 47l-55 0 0 35c6 7 22 26 53 35 9 3 24 4 43 4 33 0 70-4 87-6z m-241 102l0 35c0 6 6 12 12 12l84 0c7 0 12-6 12-12l0-35c0-7-5-12-12-12l-84 0c-6 0-12 5-12 12z m-1-45c0 7 5 12 12 12l85 0c7 0 12-5 12-12 0-7-5-12-12-12l-85 0c-7 0-12 5-12 12z m0-44c0 7 5 12 12 12l35 0c7 0 12-5 12-12 0-7-5-12-12-12l-35 0c-7 0-12 5-12 12z m0-44c0 6 5 12 12 12l63 0c6 0 12-6 12-12 0-7-6-12-12-12l-63 0c-7 0-12 5-12 12z"/>
<glyph glyph-name="movie" unicode="&#57413;" d="M484 294l-378 0 354 129c3 2 5 4 7 7 1 3 2 7 0 10l-23 63c-2 7-10 11-16 8l-405-147c-3-1-5-4-7-7-1-3-1-6 0-10l23-63c0-1 1-2 1-3l0-268c0-7 6-13 13-13l431 0c7 0 13 6 13 13l0 268c0 8-6 13-13 13z m-53 171l8-22-13-4z m-97-15l50 18-8-47-50-19z m-100-37l50 18-8-47-50-18z m-100-36l50 18-8-47-50-19z m-50-19l-8-47-17-6-15 39z m1-131l-18 0 0 41 42 0z m107 0l-54 0 24 41 53 0z m106 0l-53 0 24 41 53 0z m107 0l-53 0 23 41 54 0z m66 0l-13 0 13 23z"/>
<glyph glyph-name="zoom" unicode="&#57414;" d="M458 458c-35 35-81 54-130 54-49 0-96-19-130-54-35-35-54-81-54-130 0-41 13-81 38-113l-35-35-4 3c-5 5-13 5-18 0l-113-113c-16-16-16-42 0-58 8-8 18-12 29-12 11 0 21 4 29 12l113 113c5 5 5 13 0 18l-3 4 35 35c32-25 72-38 113-38 49 0 95 19 130 54 35 34 54 81 54 130 0 49-19 95-54 130z m-18-243c-30-30-70-46-112-46-43 0-83 16-113 46-30 30-46 70-46 113 0 42 16 82 46 112 30 30 70 47 113 47 42 0 82-17 112-47 30-30 47-70 47-112 0-43-17-83-47-113z m-103 240c1-7-4-13-11-14-4-1-104-16-104-113 0-7-6-13-13-13-7 0-13 6-13 13 0 62 35 97 64 114 31 19 61 24 62 24 7 1 14-4 15-11z"/>
<glyph glyph-name="keyboard" unicode="&#57415;" d="M506 374l-132 132c-4 4-10 6-15 6-6 0-11-2-15-6l-338-338c-8-8-8-21 0-30l132-132c4-4 10-6 15-6 6 0 11 2 15 6l338 338c4 4 6 9 6 15 0 5-2 11-6 15z m-60 20l-22-22-17 17 22 22z m-129-60l-21-21-17 17 21 21z m0 34l21 21 17-17-21-21z m-37-71l-22-22-17 17 22 22z m-38-38l-21-21-17 17 21 21z m-37-37l-22-22-17 17 22 22z m-38-38l-21-21-17 17 21 21z m-1-36l17-17-22-22-17 17z m16 16l21 21 17-17-21-21z m37 37l22 22 17-17-21-22z m38 38l22 21 17-17-22-21z m38 37l21 22 17-17-21-22z m37 38l22 22 17-18-22-21z m38 38l21 21 17-17-21-21z m41 76l-40-40-17 17 40 40z m-52 52l17-17-21-21-18 17z m-38-37l17-17-21-22-17 17z m-37-38l17-17-22-21-17 17z m-38-37l17-17-21-22-17 17z m-37-38l17-17-22-21-17 17z m-38-37l17-17-21-22-17 17z m-37-38l17-17-22-21-17 17z m-38-37l17-18-21-21-17 17z m-61-61l22 21 17-17-22-21z m35-35l39 38 17-17-38-39z m52-52l-17 17 22 21 17-17z m36-36l-17 17 21 22 17-17z m39 40l-17 17 21 21 17-17z m37 37l-17 17 134 134 17-17z m151 150l-17 18 21 21 17-17z m37 38l-17 17 22 22 17-17z m38 38l-17 17 21 21 17-17z"/>
<glyph glyph-name="guitars" unicode="&#57416;" d="M508 473l-35 35c-5 5-12 5-17 1l-58-48c-3-2-4-5-4-9-1-3 1-7 3-9l3-3-141-140-17 17c-10 9-23 15-37 15-13 0-25-5-35-13-1-1-2-2-3-4-6-6-12-14-16-22-6-11-17-18-29-18-34-2-65-17-87-41-49-52-46-137 7-191 28-27 65-43 103-43 0 0 0 0 0 0 35 0 68 13 92 38 22 22 36 52 38 84 0 13 7 23 17 28 10 5 18 12 26 20 0 0 0 0 0 0 19 21 18 53-2 72l-16 17 140 141 2-3c3-2 6-3 9-3 1 0 1 0 1 0 4 0 7 2 9 4l48 58c4 5 4 13-1 17z m-278-283c0-10-4-21-11-28-8-8-18-12-29-12-11 0-21 4-28 12-8 7-12 18-12 28 0 11 4 21 12 29 7 7 17 12 28 12 11 0 21-5 29-12 7-8 11-18 11-29z m-71-124c-3-3-6-4-9-4-3 0-7 1-9 4l-75 75c-5 5-5 13 0 18 5 5 13 5 17 0l76-75c5-5 5-13 0-18z"/>
<glyph glyph-name="earth-globe" unicode="&#57418;" d="M419 205c29 34 46 77 46 122 0 49-20 96-54 131-35 35-82 54-131 54-46 0-88-16-122-46l-25 25c-5 5-13 5-18 0-90-90-90-238 0-329 41-41 95-65 152-68l0-69-122 0c-7 0-12-6-12-13 0-7 5-12 12-12l270 0c6 0 12 5 12 12 0 7-6 13-12 13l-123 0 0 69c58 3 112 27 153 68 5 5 5 13 0 17z m-139-87c-56 0-108 22-147 61-79 79-81 204-9 286l17-16c-64-73-61-184 8-253 35-35 81-54 131-54 45 0 88 16 122 46l17-17c-39-34-87-53-139-53z"/>
<glyph glyph-name="cup" unicode="&#57419;" d="M456 503c-1 6-8 10-14 9l-59-12-254 0-59 12c-6 1-13-3-14-9-2-4-29-100 23-158 38-42 108-51 145-52 3-7 5-15 5-23l0-55c0-18-11-34-29-40-21-7-35-18-40-31l-32 0c-7 0-12-6-12-13l0-118c0-7 5-13 12-13l256 0c7 0 12 6 12 13l0 118c0 7-5 13-12 13l-32 0c-5 13-19 24-40 31-18 6-29 22-29 40l0 55c0 8 2 16 5 23 37 1 107 10 145 52 52 58 25 154 23 158z m-358-141c-34 37-26 98-21 122l36-7c-1-9-2-18-2-28 0-53 29-102 75-127-31 5-67 16-88 40z m225-325l-134 0c-7 0-13 5-13 12 0 7 6 13 13 13l134 0c7 0 13-6 13-13 0-7-6-12-13-12z m34 67c7 0 13-6 13-13 0-7-6-12-13-12l-202 0c-7 0-13 5-13 12 0 7 6 13 13 13z m57 258c-21-24-57-35-88-40 46 25 75 74 75 127 0 10-1 19-2 28l36 7c5-24 13-85-21-122z"/>
<glyph glyph-name="cloud-download" unicode="&#57420;" d="M400 401c-9 0-17-1-25-3-27 42-73 68-123 68-74 0-135-56-144-127-8 2-16 4-25 4-46 0-83-38-83-84 0-45 37-83 83-83l161 0 0-87-47 46c-4 5-12 5-17 0-5-5-5-13 0-18l67-67c1-1 1-1 2-2 0 0 1 0 1 0 0-1 1-1 1-1 1 0 1 0 1 0 1 0 1-1 2-1 0 0 1 0 2 0 1 0 2 0 2 0 1 0 1 1 2 1 0 0 0 0 1 0 0 0 1 0 1 1 0 0 1 0 1 0 1 1 1 1 2 2l67 67c5 5 5 13 0 18-5 5-13 5-17 0l-47-46 0 87 132 0c62 0 112 51 112 113 0 62-50 112-112 112z"/>
<glyph glyph-name="open-book-1" unicode="&#57422;" d="M500 419l-9 0 0 18c0 7-6 13-13 13l-271 0c0 6-5 12-12 12l-56 0c-7 0-12-6-12-12l-93 0c-7 0-13-6-13-13l0-18-9 0c-6 0-12-6-12-12l0-345c0-6 6-12 12-12l488 0c6 0 12 6 12 12l0 345c0 6-6 12-12 12z m-256-314l-198 0 0 320 81 0 0-16-51 0c-7 0-13-6-13-13 0-6 6-12 13-12l51 0 0-20-51 0c-7 0-13-5-13-12 0-7 6-13 13-13l51 0 0-5c0-5 3-10 7-12 2 0 4-1 5-1 3 0 7 2 9 4l14 14 11 0 13-13c4-4 9-5 13-3 5 2 8 7 8 12l0 4 7 0c7 0 13 6 13 13 0 7-6 12-13 12l-7 0 0 20 7 0c7 0 13 6 13 12 0 7-6 13-13 13l-7 0 0 16 37 0z m222 0l-198 0 0 320 198 0z m-239 202c0-7-6-12-13-12l-138 0c-7 0-13 5-13 12 0 7 6 12 13 12l138 0c7 0 13-5 13-12z m0-45c0-7-6-12-13-12l-138 0c-7 0-13 5-13 12 0 7 6 13 13 13l138 0c7 0 13-6 13-13z m0-45c0-6-6-12-13-12l-138 0c-7 0-13 6-13 12 0 7 6 13 13 13l138 0c7 0 13-6 13-13z m0-44c0-7-6-13-13-13l-138 0c-7 0-13 6-13 13 0 7 6 12 13 12l138 0c7 0 13-5 13-12z m61 223c0 7 6 13 13 13l137 0c6 0 12-6 12-13 0-6-6-12-12-12l-137 0c-7 0-13 6-13 12z m0-44c0 7 6 12 13 12l137 0c6 0 12-5 12-12 0-7-6-13-12-13l-137 0c-7 0-13 6-13 13z m0-45c0 7 6 12 13 12l137 0c6 0 12-5 12-12 0-7-6-12-12-12l-137 0c-7 0-13 5-13 12z m0-45c0 7 6 13 13 13l137 0c6 0 12-6 12-13 0-7-6-12-12-12l-137 0c-7 0-13 5-13 12z m0-45c0 7 6 13 13 13l137 0c6 0 12-6 12-13 0-6-6-12-12-12l-137 0c-7 0-13 6-13 12z m0-44c0 7 6 12 13 12l137 0c6 0 12-5 12-12 0-7-6-13-12-13l-137 0c-7 0-13 6-13 13z"/>
<glyph glyph-name="book-1" unicode="&#57424;" d="M434 464l-9 0 0 22 9 0c7 0 13 6 13 13 0 7-6 13-13 13l-356 0c-7 0-13-6-13-13l0-486c0-7 6-13 13-13l356 0c7 0 13 6 13 13l0 438c0 8-6 13-13 13z m-300-438l-43 0 0 413 43 0z m238 333l-163 0c-7 0-13 6-13 13 0 7 6 13 13 13l163 0c7 0 13-6 13-13 0-7-6-13-13-13z m28 105l-309 0 0 22 309 0z"/>
<glyph glyph-name="book-2" unicode="&#57425;" d="M431 443l-15 0 0 42 15 0c8 0 14 6 14 13 0 8-6 14-14 14l-350 0c-8 0-14-6-14-14l0-484c0-8 6-14 14-14l350 0c8 0 14 6 14 14l0 415c0 8-6 14-14 14z m-42-238c0-8-6-14-14-14l-236 0c-8 0-14 6-14 14l0 136c0 7 6 14 14 14l236 0c8 0 14-7 14-14z m0 238l-295 0 0 42 295 0z m-22-130c0-8-7-14-14-14l-194 0c-7 0-14 6-14 14 0 7 7 13 14 13l194 0c7 0 14-6 14-13z m0-58c0-7-7-13-14-13l-194 0c-7 0-14 6-14 13 0 8 7 14 14 14l194 0c7 0 14-6 14-14z"/>
<glyph glyph-name="mortarboard" unicode="&#57426;" d="M248 248l-238 69c-9 2-10 11-10 13 0 3 1 11 10 14l238 68c1 1 2 1 4 1 1 0 2 0 4-1l246-77c8-2 10-9 10-14 0-5-3-12-11-14l-245-59c-3-1-5 0-8 0z m14-24c-3-1-6-1-10-1-3 0-7 0-10 1l-165 47 0-113c0-4 1-6 3-9 2-2 46-50 176-50 131 0 169 49 171 51 1 2 2 5 2 8l0 106z"/>
<glyph glyph-name="file-zoom" unicode="&#57427;" d="M377 58l0-31c0-15-12-27-27-27l-268 0c-15 0-27 12-27 27l0 374c0 15 12 27 27 27l26 0 0-323c0-26 22-47 48-47z m80 432l0-385c0-12-9-21-21-21l-280 0c-12 0-21 9-21 21l0 385c0 12 9 22 21 22l280 0c12 0 21-10 21-22z m-54-287l-69 69c12 13 19 31 19 51 0 44-37 80-81 80-44 0-80-36-80-80 0-45 36-81 80-81 16 0 30 5 42 12l70-70c3-2 6-3 10-3 3 0 6 1 9 3 5 6 5 14 0 19z m-76 120c0 30-25 54-55 54-30 0-54-24-54-54 0-30 24-55 54-55 30 0 55 25 55 55z"/>
<glyph glyph-name="flask-3" unicode="&#57430;" d="M443 62l-122 186 0 162 12 0c7 0 12 6 12 13 0 7-5 12-12 12l-12 0 0 65c0 6-5 12-12 12l-106 0c-7 0-12-6-12-12l0-65-12 0c-7 0-12-5-12-12 0-7 5-13 12-13l12 0 0-162-122-186c-8-12-9-28-2-41 7-13 20-21 35-21l308 0c15 0 28 8 35 21 7 13 6 29-2 41z m-146 348l0-75-82 0 0 75z"/>
<glyph glyph-name="cloud-upload" unicode="&#57433;" d="M400 336c-9 0-17-1-25-3-27 42-73 68-123 68-74 0-135-56-144-127-8 2-16 4-25 4-46 0-83-38-83-84 0-46 37-83 83-83l161 0 0 115-47-46c-2-3-5-4-8-4-4 0-7 1-9 4-5 5-5 13 0 17l67 68c1 0 1 1 2 1 0 1 1 1 1 1 0 0 1 0 1 1 1 0 1 0 1 0 1 0 1 0 2 0 1 1 3 1 4 0 1 0 1 0 2 0 0 0 0 0 1 0 0-1 1-1 1-1 0 0 1 0 1-1 1 0 1-1 2-1l67-68c5-4 5-12 0-17-2-3-5-4-9-4-3 0-6 1-8 4l-47 46 0-115 132 0c62 0 112 51 112 113 0 62-50 112-112 112z"/>
<glyph glyph-name="webcam" unicode="&#57434;" d="M416 25l-91 38 0 33c86 29 145 111 145 202 0 118-96 214-214 214-118 0-214-96-214-214 0-91 59-173 145-202l0-33-91-38c-5-3-8-9-7-15 1-6 6-10 12-10l310 0c6 0 11 4 12 10 1 6-2 12-7 15z m-296 273c0 75 61 136 136 136 75 0 136-61 136-136 0-74-61-135-136-135-75 0-136 61-136 135z m136 110c-61 0-110-49-110-110 0-60 49-110 110-110 61 0 110 50 110 110 0 61-49 110-110 110z m0-182c-40 0-72 32-72 72 0 5 0 10 1 14 5-4 12-6 19-6 18 0 32 14 32 32 0 10-5 19-12 25 10 5 20 8 32 8 40 0 72-33 72-73 0-40-32-72-72-72z"/>
<glyph glyph-name="magnet" unicode="&#57436;" d="M499 497l-109 0c-8 0-13-5-13-13l0-263c0-40-33-72-73-72l-96 0c-40 0-73 32-73 72l0 263c0 8-5 13-13 13l-109 0c-7 0-13-5-13-13l0-268c0-111 90-201 201-201l110 0c111 0 201 90 201 201l0 268c0 8-6 13-13 13z m-473-281l0 255 83 0 0-250c0-54 44-98 99-98l35 0 0-82-42 0c-96 0-175 78-175 175z"/>
<glyph glyph-name="key" unicode="&#57437;" d="M482 391c-25 45-70 59-108 62-5 9-11 18-19 26-21 21-50 33-80 33-31 0-59-12-81-33-31-32-41-77-26-118l-149-149c-2-2-4-5-4-8l-2-26c-1-4 0-7 3-10l33-33c2-2 4-3 7-3l14-1c0 0 1 0 1 0 3 0 6 1 9 3l25 25c2 2 3 6 3 9l0 2 3 0c3 0 6 2 8 4l5 5c3 2 4 5 4 9l0 19 19 0c3 0 6 1 9 3l17 18c2 2 4 5 4 8l0 2 1 0c3 0 6 1 9 3l16 16c2 3 3 6 3 9l0 5 5 0c4 0 7 1 9 4l17 16c12-4 25-6 38-6 30 0 59 12 80 33 29 30 39 71 30 109 28-4 58-17 76-48 31-56 4-105-12-126l-79 17c-5 1-9 0-12-3l-141-141c-2-2-3-6-3-9 0-3 1-6 3-8l105-105c3-3 6-4 9-4 3 0 6 1 9 4l141 140c3 3 4 8 3 12l-17 79c6 8 15 22 22 39 16 39 14 80-7 117z m-172 11c-9 0-17 3-23 9-12 12-12 32 0 45 6 6 14 9 23 9 8 0 16-3 22-9 1-2 2-3 3-4-16-2-27-5-29-6-6-1-10-8-8-15 2-6 8-10 15-8 0 0 11 3 28 4-2-6-5-11-9-16-6-6-14-9-22-9z"/>
<glyph glyph-name="graduation" unicode="&#57438;" d="M479 93l0-80c0-7-6-13-13-13l-420 0c-7 0-13 6-13 13l0 80c0 34 20 64 51 76l90 40c4 1 7 1 11 0 3-1 6-4 7-8l26-72 12 19-8 20c-1 4-1 8 2 12 2 3 6 6 11 6l42 0c5 0 9-3 11-6 3-4 3-8 2-12l-8-20 12-19 26 72c1 4 4 7 7 8 4 1 7 1 11 0l90-40c31-12 51-42 51-76z m-38 419l-370 0c-7 0-13-6-13-13 0-7 5-13 12-13l0-100c-5-4-8-10-8-17 0-11 10-21 21-21 12 0 21 10 21 21 0 7-3 13-8 17l0 100 40 0 0-53 240 0 0 53 65 0c7 0 13 5 13 13 0 7-6 13-13 13z m-66-159c-3 4-6 7-9 9 0 5-1 12-2 20 0 5 1 16 0 30l-216 0c-1-14 0-25 0-30-1-8-2-15-2-20-3-2-6-5-9-9-6-10-7-24-3-40 8-30 26-37 36-38 6-13 19-36 32-48 5-5 12-10 21-13 10-4 22-6 33-6 11 0 23 2 33 6 9 3 16 8 21 13 13 12 26 35 32 48 10 1 28 8 36 38 4 16 3 30-3 40z"/>
<glyph glyph-name="file-1" unicode="&#57439;" d="M479 100l-9-43c-3-16-17-27-32-27l-386 0c-21 0-37 19-32 40l37 182c2 12 12 22 23 26 1 0 2 0 3 1 0 0 0 0 0 0 1 0 2 0 2 0 1 0 1 0 1 0 1 0 2 0 2 1 1 0 2 0 3 0l404 0c5 0 9-2 12-5 3-3 5-7 5-12 0-1 0-2 0-3z m0 206c-2 14-14 26-29 26l-14 0 0-26z m-448-49c5 24 25 43 49 48l0 71-45 0c-20 0-35-16-35-35l0-238z m380 210l0-161-305 0 0 161c0 8 7 15 15 15l275 0c8 0 15-7 15-15z m-38-114c0 7-5 13-13 13l-204 0c-7 0-13-6-13-13 0-7 6-13 13-13l204 0c8 0 13 6 13 13z m0 67c0 7-5 13-13 13l-204 0c-7 0-13-6-13-13 0-7 6-13 13-13l204 0c8 0 13 6 13 13z"/>
<glyph glyph-name="library-1" unicode="&#57444;" d="M500 413l-488 0c-7 0-12-5-12-12l0-290c0-7 5-12 12-12l488 0c7 0 12 5 12 12l0 290c0 7-5 12-12 12z m-30-113l0-156-39 0z m0 29c-1 1-2 2-4 2-6 2-13-2-14-8l-46-177c0-1 0-1 0-2l-17 0 0 82c0 6-6 12-12 12l-29 0c-6 0-11-6-11-12l0-82-15 0 0 59c0 7-6 12-12 12l-14 0c-4 0-8-3-10-6l0 159 184 0z m-271-28l9-28-9 0z m63-28l-29 0-16 46c-2 7-8 10-15 8-1-1-2-1-3-2l0 15c0 6-6 12-12 12l-11 0c-7 0-12-6-12-12l0-67-14 0 0 52c0 7-5 12-11 12l-23 0c-6 0-12-5-12-12l0-52-16 0 0 71c0 6-5 12-12 12l-22 0c-4 0-8-2-10-6l0 18 218 0z m0-24l0-105-13 0-43 61c-4 5-11 6-16 2-6-3-7-11-3-16l9-13-125 0c-6 0-12-5-12-11l0-23-15 0 0 105z m-54-88l12-17-12 0z"/>
<glyph glyph-name="megaphone" unicode="&#57447;" d="M507 453c-4 3-8 3-12 2l-486-165c-5-1-9-6-9-12l0-44c0-6 4-11 9-12l74-25-7-23c-5-13-4-27 3-40 6-12 17-21 30-25l88-29c5-1 10-2 16-2 22 0 42 14 49 36l6 20 227-77c1 0 3-1 4-1 3 0 5 1 8 3 3 2 5 6 5 10l0 374c0 4-2 8-5 10z m-270-331c-3-11-13-18-24-18-3 0-6 0-8 1l-88 28c-7 2-12 7-15 13-3 6-4 13-2 20l7 22 137-46z"/>
<glyph glyph-name="drink" unicode="&#57451;" d="M425 247c0 0 0 1 0 2 0 0 0 0 0 0 0 1 0 1-1 2 0 0 0 0 0 0 0 0 0 1 0 1l-48 96 0 48c0 6-5 11-12 11l-42 0 0 15c0 15 9 29 22 35l71 33c6 3 8 10 5 15-2 6-9 9-15 6l-71-33c-21-10-35-32-35-56l0-15-151 0c-7 0-12-5-12-11l0-48-48-96c0 0 0-1 0-1 0 0 0 0 0 0-1-1-1-1-1-2 0 0 0 0 0 0 0-1 0-2 0-2 0 0 0 0 0 0l0-235c0-7 5-12 11-12l316 0c6 0 11 5 11 12l0 235c0 0 0 0 0 0z m-54-121l-119 0c-6 0-11 5-11 11 0 7 5 12 11 12l119 0c6 0 12-5 12-12 0-6-6-11-12-11z m0 57l-119 0c-6 0-11 5-11 12 0 6 5 11 11 11l119 0c6 0 12-5 12-11 0-7-6-12-12-12z m-167 75l-37 76 131 0 0-43c0-6 5-11 12-11 0 0 0 0 0 0 6 0 11 5 11 11l1 43 35 0 38-76-191 0z"/>
<glyph glyph-name="computers" unicode="&#57452;" d="M500 81l-13 0 0 91c0 6-6 12-12 12l-85 0c-1 1-2 1-3 2l-118 66 0 76 98 0c6 0 12 6 12 12l0 14c0 7-6 12-12 12l-14 0 0 90c0 7-5 12-12 12l-169 0c-7 0-12-5-12-12l0-90-14 0c-6 0-12-5-12-12l0-14c0-6 6-12 12-12l99 0 0-76-119-66c-1-1-2-1-3-2l-86 0c-6 0-12-6-12-12l0-91-13 0c-7 0-12-5-12-12l0-13c0-7 5-12 12-12l220 0c7 0 12 5 12 12l0 13c0 7-5 12-12 12l-13 0 0 91c0 6-5 12-12 12l-36 0 86 47 86-47-38 0c-7 0-12-6-12-12l0-91-13 0c-7 0-12-5-12-12l0-13c0-7 5-12 12-12l220 0c7 0 12 5 12 12l0 13c0 7-5 12-12 12z m-316 363l146 0 0-76-146 0z m11-363l-146 0 0 79 146 0z m122 79l146 0 0-77-146 0z"/>
<glyph glyph-name="chronomete" unicode="&#57453;" d="M285 374l0 6 2 0c6 0 12 5 12 12l0 7 27 0c7 0 12 5 12 12l0 50c0 28-23 51-52 51l-30 0c0 0 0 0 0 0 0 0 0 0 0 0l-30 0c-29 0-52-23-52-51l0-50c0-7 5-12 12-12l27 0 0-7c0-7 6-12 12-12l2 0 0-6c-90-15-159-92-159-186 0-104 84-188 188-188 104 0 188 84 188 188 0 94-69 171-159 186z m-29-60c70 0 126-56 126-126 0-70-56-126-126-126-70 0-126 56-126 126 0 70 56 126 126 126z m-31 146c-6 0-12-5-12-12l0-26-15 0 0 39c0 15 12 27 28 27l30 0c0 0 0 0 0 0 0 0 0 0 0 0l30 0c16 0 28-12 28-27l0-39-15 0 0 26c0 7-6 12-12 12z m5-272c0 10 6 18 14 23l0 71c0 7 5 12 12 12 7 0 12-5 12-12l0-71c8-5 14-13 14-23 0-14-12-26-26-26-14 0-26 12-26 26z"/>
<glyph glyph-name="book-3" unicode="&#57455;" d="M431 443l-15 0 0 42 15 0c8 0 14 6 14 13 0 8-6 14-14 14l-350 0c-8 0-14-6-14-14l0-484c0-8 6-14 14-14l350 0c8 0 14 6 14 14l0 415c0 8-6 14-14 14z m-42 0l-158 0 0-114c0-5-4-10-9-13-1 0-3-1-5-1-3 0-7 2-10 4l-20 21-20-21c-4-4-10-5-15-3-5 3-9 8-9 13l0 114-49 0 0 42 295 0z"/>
<glyph glyph-name="library" unicode="&#57456;" d="M240 342l0-46-56 0 0 46z m96-31l-11-15 7 0z m74 189l0-488c0-7-6-12-12-12-6 0-12 5-12 12l0 32-260 0 0-32c0-7-6-12-12-12-6 0-12 5-12 12l0 488c0 7 6 12 12 12l284 0c6 0 12-5 12-12z m-25-390l-258 0 0-23 258 0 0 23z m0 73l-30 0 0 37-23 0 0-37-14 0 0 37-23 0 0-37-35 0 0 57-24 0 0-57-16 0 0 57-23 0 0-57-16 0 0 57-23 0 0-57-31 0 0-23 258 0 0 23z m0 113l-29 0 11 43-23 6-6-26-16 12-26-35-33 0 0 69-102 0 0-69-34 0 0-23 258 0 0 23z m0 113l-22 0 0 49-23 0 0-49-17 0 0 43-24 0 0-43-8 0 0 21-23 0 0-21-49 0-18 48-20-8-3 15-23-3 8-52-36 0 0-23 258 0 0 23z m-203 31l5-31 7 0z"/>
<glyph glyph-name="bicycle" unicode="&#57457;" d="M423 291l0 0c-7 0-14-1-20-2l-15 41-2 10c-4 27-22 49-48 58l-5 1c-6 2-13-1-15-7-2-6 1-13 8-15l4-2c17-5 29-19 32-36l-182 2c-1 0-1 0-2 0 0 0 0 0 0 0 0 0-1-1-1-1-3 0-5-2-7-4 0 0 0 0 0 0l-37-52c-13 6-27 10-42 10l-1 0c-49 0-90-40-90-89 0-50 40-91 90-91l0 0c42 0 78 29 88 68l31-4c2-7 5-14 11-19 4-4 9-8 15-10l0-19c0-7 5-12 12-12 0 0 0 0 0 0 6 0 11 5 11 12l1 19c15 5 27 20 27 37 0 7-2 15-7 21l93 98 9-25c-28-14-48-44-48-78 0-24 9-46 26-63 17-17 39-27 63-27l1 0c49 0 89 40 89 89 0 49-39 89-89 90z m-74 25l-88-94c-4 2-9 3-14 3 0 0 0 0 0 0-2 0-5-1-7-1l-42 93z m-172-11l42-93c-3-3-5-6-7-10l-32 3c0 26-11 49-28 65z m-39-55c11-11 18-25 19-42l-46 5z m-48-113l0 0c-37 1-67 31-66 67 0 37 30 67 66 67l1 0c10-1 19-3 28-7l-38-53c-3-4-3-8-2-12 2-4 6-6 10-7l65-7c-8-28-34-48-64-48z m333-1l-1 0c-17 0-34 7-46 19-13 13-19 29-19 47 0 24 13 45 32 56l23-61c2-6 9-9 15-7 6 3 9 9 7 16l-23 60c4 1 8 1 12 1l0 0c36 0 66-30 65-66 0-36-29-65-65-65z m-287 234c1 6 7 11 14 10l56-9c6-2 11-8 10-14-1-6-6-10-12-10-1 0-1 0-2 0l-56 10c-7 1-11 7-10 13z"/>
<glyph glyph-name="books-2" unicode="&#57458;" d="M439 165l0-69 8 0c6 0 12-6 12-12 0-7-6-12-12-12l-337 0c-21 0-38 17-38 37l0 43c0 20 17 37 38 37l337 0c6 0 12-5 12-12 0-6-6-12-12-12l-8 0z m73 96l0-12c0-23-18-41-40-41l-356 0c-6 0-11 5-11 12 0 7 5 12 11 12l5 0 0 46-5 0c-6 0-11 5-11 12 0 7 5 12 11 12l356 0c22 0 40-18 40-41z m-24 0c0 10-7 17-16 17l-327 0 0-46 327 0c9 0 16 7 16 17z m-407-30l-29 42 0 143 74 0 0-83c0-7 5-12 12-12l242 0c6 0 12 5 12 12l0 83 86 0c6 0 11 6 11 12 0 7-5 12-11 12l-438 0c-6 0-12-5-12-12l0-155-26-47c-4-6-2-13 4-16 2-1 4-2 6-2 4 0 8 2 10 6l6 11 0-23c0-6 6-12 12-12 7 0 12 6 12 12l0 30 10-14c3-5 11-7 16-3 6 4 7 11 3 16z"/>
<glyph glyph-name="chess" unicode="&#57460;" d="M450 332l-3 11c-3 11-10 21-21 25l-151 68 21 60c2 5 0 10-4 13-4 3-9 4-14 1l-73-44c-37-22-65-54-82-93-16-37-25-75-25-113-1-65 13-113 24-139l-21 0c-7 0-12-5-12-12l0-37-16 0c-6 0-12-5-12-11l0-49c0-7 6-12 12-12l337 0c6 0 12 5 12 12l0 49c0 6-6 11-12 11l-16 0 0 37c0 7-5 12-12 12l-36 0 1 4c7 20 5 42-6 60l-50 90 7-3c3-1 6-1 9-1 8 0 16 4 21 10 5 5 11 8 18 8 3 0 5 0 8-1l36-13c4-1 8-2 12-2 10 0 20 5 27 12l12 13c8 9 11 22 9 34z"/>
<glyph glyph-name="computer-mouses" unicode="&#57461;" d="M410 512l-105 0c-41 0-75-27-86-64-72-5-130-65-130-139l0-170c0-77 62-139 139-139 76 0 138 62 138 139l0 170c0 71-53 129-121 138 10 24 33 40 60 40l105 0c7 0 13 6 13 13 0 6-6 12-13 12z m-157-162l0-62c0-14-12-25-25-25-14 0-25 11-25 25l0 62c0 13 11 24 25 24 13 0 25-11 25-24z"/>
</font>
</defs>
</svg>
